<svg xmlns="http://www.w3.org/2000/svg" width="7.879" height="13.41" viewBox="0 0 7.879 13.41">
  <g id="Group_123" data-name="Group 123" transform="translate(335.658 -787.373)">
    <path id="Path_566" data-name="Path 566" d="M-322.385,793.091a.727.727,0,0,0-.519-.214.728.728,0,0,0-.519.214l-.439.44a.734.734,0,0,0,0,1.037l5.012,5.011-5.017,5.017a.728.728,0,0,0-.214.518.73.73,0,0,0,.214.519l.44.439a.728.728,0,0,0,.519.214.729.729,0,0,0,.519-.214l5.973-5.974a.73.73,0,0,0,.214-.52.73.73,0,0,0-.214-.521Z" transform="translate(-11.576 -5.504)" fill="#fff"/>
  </g>
</svg>
