<svg id="Group_112" data-name="Group 112" xmlns="http://www.w3.org/2000/svg" width="21.26" height="13.287" viewBox="0 0 21.26 13.287">
  <g id="Group_111" data-name="Group 111">
    <path id="Path_467" data-name="Path 467" d="M-1688.616-834.722a3.145,3.145,0,0,0-2.387-3.3,2.791,2.791,0,0,0,1.786-2.723c0-2.6-1.942-3.23-4.182-3.23h-6.168v13.04h6.341c2.378,0,4.611-1.137,4.611-3.786Zm-8.076-7.028h2.7c1.037,0,1.971.291,1.971,1.49,0,1.107-.727,1.553-1.754,1.553h-2.915Zm0,8.6v-3.591h3.134c1.266,0,2.067.526,2.067,1.862,0,1.317-.956,1.729-2.126,1.729Zm0,0" transform="translate(1699.568 843.976)" fill="#f93737"/>
  </g>
  <path id="Path_468" data-name="Path 468" d="M-1661.431-824.62A4.222,4.222,0,0,0-1657-827.8h-2.3a2.155,2.155,0,0,1-2.056,1.232,2.138,2.138,0,0,1-2.325-2.4h6.832c.012-.153.022-.319.022-.485,0-2.793-1.639-5.122-4.61-5.122a4.752,4.752,0,0,0-4.846,5,4.606,4.606,0,0,0,4.846,4.956Zm-.082-8a1.936,1.936,0,0,1,2.074,2.017h-4.233a2.031,2.031,0,0,1,2.159-2.017Zm0,0" transform="translate(1678.081 837.907)" fill="#f93737"/>
  <rect id="Rectangle_15" data-name="Rectangle 15" width="5.304" height="1.284" transform="translate(13.878 0.685)" fill="#f93737"/>
</svg>
