<svg id="Group_18" data-name="Group 18" xmlns="http://www.w3.org/2000/svg" width="128.704" height="24.895" viewBox="0 0 128.704 24.895">
  <g id="Group_16" data-name="Group 16" transform="translate(39.595 3.578)">
    <path id="Path_59" data-name="Path 59" d="M-2507.9-376.721c0-.532.128-.66.66-.66H-2498c.532,0,.659.128.659.66v.234c0,.532-.127.66-.659.66h-3.787v11.554c0,.574-.149.723-.723.723h-.214c-.574,0-.723-.149-.723-.723v-11.554h-3.787c-.532,0-.66-.128-.66-.66Z" transform="translate(2507.895 377.508)" fill="#484e58"/>
    <path id="Path_60" data-name="Path 60" d="M-2481.03-366.619c-.063.532-.191.66-.766.66h-6.426v.638c0,1.937.958,2.7,3.32,2.7a10.772,10.772,0,0,0,2.894-.4c.511-.149.681.022.681.553v.192c0,.447-.085.6-.66.766a10.066,10.066,0,0,1-2.915.4c-3.341,0-4.916-1.3-4.916-4.447v-1.979c0-3,1.49-4.49,4.49-4.49,2.809,0,4.362,1.447,4.362,4.256a7.954,7.954,0,0,1-.064,1.148m-7.192-.681h5.745v-.7c0-1.723-.958-2.6-2.872-2.6s-2.873.872-2.873,2.6Z" transform="translate(2500.372 375.278)" fill="#484e58"/>
    <path id="Path_61" data-name="Path 61" d="M-2472.36-372.8c0-.489.128-.6.575-.66l1.212-.17.234-2.192c.021-.447.149-.574.638-.574h.149c.447,0,.575.128.575.574v2.192h3.447c.532,0,.66.127.66.659v.191c0,.532-.128.66-.66.66h-3.447v5.4c0,1.638.681,2.255,1.958,2.255a6.935,6.935,0,0,0,1.894-.213c.49-.106.638.021.638.553v.192c0,.425-.127.617-.66.766a7.363,7.363,0,0,1-1.85.212q-3.575,0-3.575-3.766v-5.4h-1.212c-.49,0-.575-.085-.575-.574Z" transform="translate(2493.106 377.099)" fill="#484e58"/>
    <path id="Path_62" data-name="Path 62" d="M-2454.474-362c0,.574-.106.681-.681.681h-.235c-.532,0-.68-.106-.68-.681v-6.341c0-2.447,1.213-3.681,3.638-3.681a6.047,6.047,0,0,1,.681.043c.532.064.639.213.639.745v.213c0,.532-.128.638-.66.553-.255-.021-.468-.042-.66-.042-1.532,0-2.042.723-2.042,2.255Z" transform="translate(2486.326 375.278)" fill="#484e58"/>
    <path id="Path_63" data-name="Path 63" d="M-2438.037-364.469c0,2.362-1.383,3.362-4.448,3.362-2.447,0-4-.978-4-3.192s1.448-3.107,4.341-3.107h2.511v-1.277c0-1.447-.979-1.936-2.787-1.936a10.154,10.154,0,0,0-2.341.234c-.511.106-.681-.022-.681-.532v-.171c0-.489.128-.616.638-.723a11.1,11.1,0,0,1,2.3-.213c2.979,0,4.469,1.107,4.469,3.341Zm-1.6-1.681h-2.489c-1.894,0-2.766.511-2.766,1.851,0,1.213.787,1.809,2.383,1.809,1.958,0,2.872-.447,2.872-2.042Z" transform="translate(2482.337 375.278)" fill="#484e58"/>
    <path id="Path_64" data-name="Path 64" d="M-2413.484-364.364c.021.574-.106.723-.681.723h-.235c-.574,0-.7-.149-.765-.723l-.745-10.533c-.064-.957-.362-1.213-.979-1.213-.532,0-.788.277-.937,1.213l-1.34,9.278c-.192,1.426-.66,1.979-2,1.979-1.213,0-1.809-.553-2-1.979l-1.34-9.278c-.149-.957-.425-1.213-.958-1.213-.6,0-.894.277-.958,1.213l-.766,10.533c-.064.574-.192.723-.766.723h-.213c-.575,0-.7-.149-.681-.723l.766-10.384c.149-2.107.979-2.851,2.617-2.851,1.511,0,2.277.723,2.553,2.851l1.192,8.915c.085.681.191.83.553.83.341,0,.468-.17.553-.83l1.192-8.915c.278-2.107,1.043-2.851,2.554-2.851,1.639,0,2.468.744,2.617,2.851Z" transform="translate(2474.998 377.599)" fill="#484e58"/>
    <path id="Path_65" data-name="Path 65" d="M-2390.647-366.619c-.064.532-.191.66-.766.66h-6.426v.638c0,1.937.957,2.7,3.319,2.7a10.768,10.768,0,0,0,2.894-.4c.511-.149.681.022.681.553v.192c0,.447-.085.6-.66.766a10.065,10.065,0,0,1-2.915.4c-3.34,0-4.915-1.3-4.915-4.447v-1.979c0-3,1.489-4.49,4.49-4.49,2.809,0,4.362,1.447,4.362,4.256a7.906,7.906,0,0,1-.064,1.148m-7.192-.681h5.745v-.7c0-1.723-.957-2.6-2.872-2.6s-2.872.872-2.872,2.6Z" transform="translate(2462.755 375.278)" fill="#484e58"/>
    <path id="Path_66" data-name="Path 66" d="M-2378.742-362c0,.574-.106.681-.681.681h-.234c-.532,0-.681-.106-.681-.681v-6.043c0-2.66,1.361-3.979,4.064-3.979,1.681,0,2.766.6,3.256,1.766a3.226,3.226,0,0,1,3.276-1.766c2.83,0,4.043,1.4,4.043,3.979V-362c0,.574-.149.681-.681.681h-.234c-.574,0-.681-.106-.681-.681v-6.043c0-1.681-.575-2.468-2.447-2.468-1.893,0-2.49.766-2.49,2.468V-362c0,.574-.106.681-.681.681h-.213c-.575,0-.681-.106-.681-.681v-6.043c0-1.681-.6-2.468-2.469-2.468s-2.468.787-2.468,2.468Z" transform="translate(2454.807 375.278)" fill="#484e58"/>
  </g>
  <g id="Group_17" data-name="Group 17">
    <path id="Path_67" data-name="Path 67" d="M-2536.66-371.311c.04-.046.082-.089.125-.131l-1.712-1.738a1.629,1.629,0,0,1-.157.151,1.307,1.307,0,0,1-1.349.291l-1.927,1.927v.748l4.644-.248a1.357,1.357,0,0,1,.375-1" transform="translate(2561.55 379.337)" fill="#484e58"/>
    <path id="Path_68" data-name="Path 68" d="M-2541.076-379.943a1.446,1.446,0,0,1,1.344,1.452,1.373,1.373,0,0,1-.387.92l1.711,1.739a1.383,1.383,0,0,1,.945-.4,1.482,1.482,0,0,1,.312.036l1.186-7.443a.993.993,0,0,0-.4-.086h-9.813l4.089,4.154a1.385,1.385,0,0,1,1.015-.37" transform="translate(2563.424 383.727)" fill="#484e58"/>
    <path id="Path_69" data-name="Path 69" d="M-2558.761-367.905l2.074,2.074v8.162a.485.485,0,0,0,.143.346l1.665,1.664a.488.488,0,0,0,.834-.345V-368.02l-4.644-.247a1.521,1.521,0,0,1-.072.362" transform="translate(2568.66 377.293)" fill="#484e58"/>
    <path id="Path_70" data-name="Path 70" d="M-2541.679-356a.489.489,0,0,0,.834.346l1.665-1.665a.489.489,0,0,0,.143-.345v-8.163l2.074-2.074a1.557,1.557,0,0,1-.072-.363l-4.644.248Z" transform="translate(2561.55 377.293)" fill="#484e58"/>
    <path id="Path_71" data-name="Path 71" d="M-2575.424-370.232l9.542,9.541a.489.489,0,0,0,.834-.346v-5.336l-1.692-1.691a1.306,1.306,0,0,1-1.351-.294,1.419,1.419,0,0,1-.542-1.065,1.4,1.4,0,0,1,.019-.237l-7.1-1.21a1,1,0,0,0,.288.638" transform="translate(2575.714 378.376)" fill="#484e58"/>
    <path id="Path_72" data-name="Path 72" d="M-2531.348-369.66a1.517,1.517,0,0,1,.018.239,1.422,1.422,0,0,1-.545,1.067,1.306,1.306,0,0,1-1.348.29l-1.692,1.692v5.336a.489.489,0,0,0,.834.346l9.542-9.541a1,1,0,0,0,.288-.638Z" transform="translate(2558.735 378.376)" fill="#484e58"/>
    <path id="Path_73" data-name="Path 73" d="M-2556.277-372.739a1.307,1.307,0,0,1-1.35-.292,1.587,1.587,0,0,1-.156-.149l-1.712,1.739a1.494,1.494,0,0,1,.123.13,1.355,1.355,0,0,1,.377,1l4.644.247v-.747Z" transform="translate(2568.965 379.338)" fill="#484e58"/>
    <path id="Path_74" data-name="Path 74" d="M-2548.444-367.724v14.231a.49.49,0,0,0,.143.346l.833.833a.49.49,0,0,0,.691,0l.833-.833a.489.489,0,0,0,.143-.346v-14.231l-1.322.07-1.321-.07" transform="translate(2564.365 377.067)" fill="#484e58"/>
    <path id="Path_75" data-name="Path 75" d="M-2562.182-376.233a1.384,1.384,0,0,1,.946.4l1.712-1.739a1.375,1.375,0,0,1-.388-.922,1.447,1.447,0,0,1,1.343-1.451,1.382,1.382,0,0,1,1.015.37l4.091-4.154h-9.813a1.01,1.01,0,0,0-.4.086l1.187,7.444a1.473,1.473,0,0,1,.311-.036" transform="translate(2570.707 383.727)" fill="#484e58"/>
    <path id="Path_76" data-name="Path 76" d="M-2545.465-378.053a1.273,1.273,0,0,1,.193-1.223,1.761,1.761,0,0,1,.265-.3l-4.089-4.154-4.091,4.154a1.73,1.73,0,0,1,.265.3,1.27,1.27,0,0,1,.194,1.223l2.31,2.31v1.359l1.322.07,1.321-.07v-1.359Z" transform="translate(2566.339 383.727)" fill="#484e58"/>
    <path id="Path_77" data-name="Path 77" d="M-2522.792-376.943l-6.428-6.429a1.006,1.006,0,0,0-.309-.208l-1.186,7.444a1.448,1.448,0,0,1,1.114,1.186l7.1-1.21a.994.994,0,0,0-.287-.783" transform="translate(2556.987 383.666)" fill="#484e58"/>
    <path id="Path_78" data-name="Path 78" d="M-2567.5-376.136l-1.186-7.444a1.009,1.009,0,0,0-.308.208l-6.429,6.429a1,1,0,0,0-.287.783l7.1,1.21a1.445,1.445,0,0,1,1.113-1.186" transform="translate(2575.716 383.666)" fill="#484e58"/>
  </g>
</svg>
