<svg id="Group_49" data-name="Group 49" xmlns="http://www.w3.org/2000/svg" width="123.262" height="32.083" viewBox="0 0 123.262 32.083">
  <g id="Group_40" data-name="Group 40">
    <g id="Group_39" data-name="Group 39">
      <g id="Group_38" data-name="Group 38">
        <path id="Path_145" data-name="Path 145" d="M-1752.8-234.28l-13.4-7.735a.571.571,0,0,0-.573,0l-13.4,7.735a.57.57,0,0,0-.286.493l-.038,7.713a.573.573,0,0,0,.285.5.571.571,0,0,0,.574,0l6.412-3.7,6.45,3.724a.576.576,0,0,0,.286.076.576.576,0,0,0,.286-.076l6.448-3.723,6.374,3.721a.571.571,0,0,0,.288.078.571.571,0,0,0,.285-.076.573.573,0,0,0,.287-.5v-7.735A.571.571,0,0,0-1752.8-234.28Zm-26.541,7.214.028-5.731,4.949,2.857Zm12.857.355-12.253-7.074,12.253-7.074,12.252,7.074Zm7.876-3.226,4.949-2.857v5.747Z" transform="translate(1780.491 242.092)" fill="#0e1d2b"/>
        <path id="Path_146" data-name="Path 146" d="M-1752.771-205.04l-6.661-3.889a.573.573,0,0,0-.575,0l-6.468,3.734-6.393-3.712a.573.573,0,0,0-.573,0l-6.7,3.868a.573.573,0,0,0-.286.5.572.572,0,0,0,.286.5l6.7,3.867h0l6.7,3.867a.57.57,0,0,0,.286.076.571.571,0,0,0,.287-.076l6.6-3.812a.592.592,0,0,0,.136-.056.558.558,0,0,0,.113-.088l6.547-3.78a.572.572,0,0,0,.286-.494A.572.572,0,0,0-1752.771-205.04Zm-19.812-2.379,4.965,2.883-4.965,2.867Zm5.535,3.875v5.731l-4.963-2.865Zm1.144-.006,5.014,2.863-5.014,2.9Zm.577-.988,5.034-2.906v5.78Zm-8.4-2.884v5.752l-4.982-2.876Zm14.58,5.731v-5.747l4.949,2.89Z" transform="translate(1780.464 228.322)" fill="#0e1d2b"/>
      </g>
    </g>
  </g>
  <g id="Group_48" data-name="Group 48" transform="translate(36.446 11.44)">
    <g id="Group_47" data-name="Group 47">
      <path id="Path_147" data-name="Path 147" d="M-1718.063-222.036a.25.25,0,0,1,.242-.242h.511a.251.251,0,0,1,.242.242v8.451a.251.251,0,0,1-.242.243h-.511a.251.251,0,0,1-.242-.243Z" transform="translate(1718.063 222.406)" fill="#0e1d2b"/>
      <path id="Path_148" data-name="Path 148" d="M-1709.975-222.267a.24.24,0,0,1,.242-.23h.192a.218.218,0,0,1,.2.1l5.681,7.072h.026v-6.8a.242.242,0,0,1,.242-.242h.447a.251.251,0,0,1,.243.242v8.591a.24.24,0,0,1-.243.229h-.1a.219.219,0,0,1-.2-.1l-5.783-7.212h-.013v6.944a.242.242,0,0,1-.242.243h-.447a.251.251,0,0,1-.242-.243Z" transform="translate(1714.697 222.497)" fill="#0e1d2b"/>
      <path id="Path_149" data-name="Path 149" d="M-1692.042-214.774l.191-.243c.128-.166.23-.229.409-.076a3.725,3.725,0,0,0,2.2.932,1.545,1.545,0,0,0,1.71-1.455c0-.881-.766-1.392-2.234-2.017-1.4-.6-2.247-1.136-2.247-2.592a2.43,2.43,0,0,1,2.719-2.272,4.178,4.178,0,0,1,2.183.651.294.294,0,0,1,.076.434l-.127.217c-.1.179-.243.179-.446.064a3,3,0,0,0-1.7-.511c-1.353,0-1.762.868-1.762,1.4,0,.906.651,1.3,1.723,1.749,1.724.7,2.834,1.353,2.834,2.834a2.575,2.575,0,0,1-2.757,2.349,4.158,4.158,0,0,1-2.693-1.034C-1692.067-214.429-1692.22-214.544-1692.042-214.774Z" transform="translate(1707.268 222.497)" fill="#0e1d2b"/>
      <path id="Path_150" data-name="Path 150" d="M-1677.313-222.036a.251.251,0,0,1,.242-.242h.5a.242.242,0,0,1,.242.242v3.728h5.183v-3.728a.242.242,0,0,1,.242-.242h.5a.251.251,0,0,1,.242.242v8.451a.251.251,0,0,1-.242.243h-.5a.242.242,0,0,1-.242-.243v-3.868h-5.183v3.868a.243.243,0,0,1-.242.243h-.5a.251.251,0,0,1-.242-.243Z" transform="translate(1701.104 222.406)" fill="#0e1d2b"/>
      <path id="Path_151" data-name="Path 151" d="M-1655.067-222.5a4.588,4.588,0,0,1,4.6,4.609,4.565,4.565,0,0,1-4.6,4.582,4.554,4.554,0,0,1-4.582-4.582A4.577,4.577,0,0,1-1655.067-222.5Zm0,8.3a3.711,3.711,0,0,0,3.7-3.689,3.733,3.733,0,0,0-3.7-3.715,3.721,3.721,0,0,0-3.689,3.715A3.7,3.7,0,0,0-1655.067-214.2Z" transform="translate(1693.752 222.497)" fill="#0e1d2b"/>
      <path id="Path_152" data-name="Path 152" d="M-1638.509-222.036a.242.242,0,0,1,.243-.242h3.306a2.744,2.744,0,0,1,2.783,2.719,2.851,2.851,0,0,1-1.889,2.6l1.749,3.242a.242.242,0,0,1-.217.37h-.612a.275.275,0,0,1-.281-.192l-1.66-3.306h-2.438v3.255a.251.251,0,0,1-.243.243h-.5a.243.243,0,0,1-.243-.243Zm3.485,4.353a1.86,1.86,0,0,0,1.838-1.864,1.857,1.857,0,0,0-1.838-1.8h-2.476v3.663Z" transform="translate(1684.954 222.406)" fill="#0e1d2b"/>
      <path id="Path_153" data-name="Path 153" d="M-1622.113-222.036a.242.242,0,0,1,.243-.242h5.03a.242.242,0,0,1,.242.242v.37a.242.242,0,0,1-.242.243h-4.289v3.115h3.664a.251.251,0,0,1,.242.243v.37a.242.242,0,0,1-.242.242h-3.664v3.255h4.289a.242.242,0,0,1,.242.242v.37a.243.243,0,0,1-.242.243h-5.03a.242.242,0,0,1-.243-.243Z" transform="translate(1678.13 222.406)" fill="#0e1d2b"/>
      <g id="Group_42" data-name="Group 42" transform="translate(64.134 7.519)">
        <g id="Group_41" data-name="Group 41">
          <path id="Path_154" data-name="Path 154" d="M-1607.38-209.618a.831.831,0,0,1,.843.83.853.853,0,0,1-.843.855.85.85,0,0,1-.829-.855A.828.828,0,0,1-1607.38-209.618Z" transform="translate(1608.209 209.618)" fill="#0e1d2b"/>
        </g>
      </g>
      <g id="Group_44" data-name="Group 44" transform="translate(68.451)">
        <g id="Group_43" data-name="Group 43">
          <path id="Path_155" data-name="Path 155" d="M-1599.158-222.318a.246.246,0,0,1,.23-.179h.2a.244.244,0,0,1,.217.141l2.527,7.034h.064l2.489-7.034a.245.245,0,0,1,.217-.141h.2a.244.244,0,0,1,.229.179l1.647,8.579c.038.179-.038.306-.229.306h-.511a.262.262,0,0,1-.229-.179l-1.136-6.574h-.051l-2.349,6.74a.26.26,0,0,1-.217.14h-.23a.259.259,0,0,1-.217-.14l-2.375-6.74h-.051l-1.111,6.574a.248.248,0,0,1-.23.179h-.51c-.191,0-.269-.128-.23-.306Z" transform="translate(1600.815 222.497)" fill="#0e1d2b"/>
        </g>
      </g>
      <g id="Group_46" data-name="Group 46" transform="translate(81.301 0.128)">
        <g id="Group_45" data-name="Group 45">
          <path id="Path_156" data-name="Path 156" d="M-1578.805-222.036a.242.242,0,0,1,.243-.242h5.029a.242.242,0,0,1,.242.242v.37a.242.242,0,0,1-.242.243h-4.289v3.115h3.663a.251.251,0,0,1,.243.243v.37a.242.242,0,0,1-.243.242h-3.663v3.255h4.289a.242.242,0,0,1,.242.242v.37a.242.242,0,0,1-.242.243h-5.029a.243.243,0,0,1-.243-.243Z" transform="translate(1578.805 222.278)" fill="#0e1d2b"/>
        </g>
      </g>
    </g>
  </g>
</svg>
