<svg id="Group_79" data-name="Group 79" xmlns="http://www.w3.org/2000/svg" width="128.392" height="27.989" viewBox="0 0 128.392 27.989">
  <g id="Group_78" data-name="Group 78" transform="translate(37.467 5.825)">
    <path id="Path_401" data-name="Path 401" d="M-2100.661-211.262a11.147,11.147,0,0,1-3.006-.453v-2.173a12.283,12.283,0,0,0,2.644.543c1.032,0,1.956-.308,1.956-1.539,0-1.123-.652-1.467-1.521-1.956l-1.141-.633a3.557,3.557,0,0,1-2.046-3.314c0-2.771,2.281-3.513,3.948-3.513a7.264,7.264,0,0,1,2.753.489v2.064a8.12,8.12,0,0,0-2.572-.525c-.905,0-1.63.326-1.63,1.34,0,.887.58,1.25,1.323,1.666l1.086.6a3.871,3.871,0,0,1,2.337,3.695C-2096.532-211.877-2098.851-211.262-2100.661-211.262Z" transform="translate(2103.776 225.387)" fill="#484e58"/>
    <path id="Path_402" data-name="Path 402" d="M-2085.207-209.067c-1.937,0-4.383-.688-4.383-4.98,0-4.183,2.373-4.98,4.383-4.98,1.993,0,4.383.67,4.383,4.98C-2080.824-209.7-2083.286-209.067-2085.207-209.067Zm0-8.168c-1,0-1.847.326-1.847,3.188,0,2.825,1.032,3.17,1.847,3.17s1.847-.326,1.847-3.17C-2083.359-217.017-2084.21-217.235-2085.207-217.235Z" transform="translate(2097.871 223.193)" fill="#484e58"/>
    <path id="Path_403" data-name="Path 403" d="M-2063.451-211.52c-1.3,0-2.626-.326-2.626-2.59V-219.6h-3.26v7.9h-2.535v-7.9h-1.63v-1.7h1.63v-.634c0-2.336,1.449-2.988,3.061-2.988a6.265,6.265,0,0,1,2.01.362v1.865a7.8,7.8,0,0,0-1.575-.217c-.706,0-.96.308-.96,1.1v.507h3.26l.181-2.119,2.355-.779v2.9h2.173l-.253,1.7h-1.919v5.451c0,.543.289.616.615.616a11.659,11.659,0,0,0,1.739-.326v1.92A7.129,7.129,0,0,1-2063.451-211.52Z" transform="translate(2091.176 225.646)" fill="#484e58"/>
    <path id="Path_404" data-name="Path 404" d="M-2039.348-209.119h-3.459l-.8-3.894c-.145-.725-.507-2.608-.8-4.2-.326,1.575-.688,3.422-.815,4.111l-.778,3.985h-3.459l-2.01-9.6h2.789l.561,4.473c.145,1.141.381,3.6.4,3.749.036-.217.4-2.554.651-3.749l.942-4.473h3.441l.942,4.473c.217,1.086.58,3.5.616,3.749.018-.163.253-2.644.416-3.749l.616-4.473h2.753Z" transform="translate(2082.004 223.064)" fill="#484e58"/>
    <path id="Path_405" data-name="Path 405" d="M-2020.823-209.248l-.271-.851a3.684,3.684,0,0,1-2.59,1.032c-1.177,0-2.717-.489-2.717-3.1,0-2.626,2.156-3.078,3.586-3.078h1.666v-.688c0-.942-.489-1.05-1.358-1.05a11.1,11.1,0,0,0-3.025.543v-2.01a11.552,11.552,0,0,1,3.459-.579c1.884,0,3.459.471,3.459,3.115v6.665Zm-.326-4.6-.724.018c-1.431.036-1.992.381-1.992,1.612,0,1,.453,1.268,1.1,1.268a3.174,3.174,0,0,0,1.612-.471Z" transform="translate(2071.574 223.193)" fill="#484e58"/>
    <path id="Path_406" data-name="Path 406" d="M-2004.2-216.51a9.475,9.475,0,0,0-1.449-.181,3.038,3.038,0,0,0-1.231.344v7.1h-2.535v-9.6h2.028l.326.96a2.147,2.147,0,0,1,1.793-1.141,4.967,4.967,0,0,1,1.068.109Z" transform="translate(2064.503 223.193)" fill="#484e58"/>
    <path id="Path_407" data-name="Path 407" d="M-1996.575-213.214c.054,1.883,1.123,2.137,1.92,2.137a11.968,11.968,0,0,0,2.933-.489v2.01a9.561,9.561,0,0,1-2.933.489c-1.992,0-4.437-.525-4.437-4.98,0-4.038,2.137-4.98,4.075-4.98,1.775,0,3.894.833,3.894,4.727,0,.072,0,.163-.018,1.086Zm1.557-4.165c-1.087,0-1.521.652-1.557,2.571h2.97C-1993.641-216.872-1994.094-217.379-1995.017-217.379Z" transform="translate(2060.208 223.193)" fill="#484e58"/>
    <path id="Path_408" data-name="Path 408" d="M-1982.531-211.313v-12.678H-1980v12.678Zm5.885.181-3.151-7.063,2.916-5.8h2.861l-3.26,5.687,3.441,6.991Z" transform="translate(2053.315 225.258)" fill="#484e58"/>
    <path id="Path_409" data-name="Path 409" d="M-1964.487-223.084a1.519,1.519,0,0,1-1.5-1.539,1.519,1.519,0,0,1,1.5-1.54,1.519,1.519,0,0,1,1.5,1.54A1.519,1.519,0,0,1-1964.487-223.084Zm-1.267,10.867v-9.6h2.535v9.6Z" transform="translate(2046.431 226.162)" fill="#484e58"/>
    <path id="Path_410" data-name="Path 410" d="M-1954.944-211c-1.3,0-2.626-.326-2.626-2.59v-5.487h-1.63v-1.7h1.63l.181-2.119,2.354-.779v2.9h2.173l-.253,1.7h-1.92v5.451c0,.543.289.616.615.616a11.682,11.682,0,0,0,1.739-.326v1.92A7.131,7.131,0,0,1-1954.944-211Z" transform="translate(2043.605 225.129)" fill="#484e58"/>
  </g>
  <path id="Path_411" data-name="Path 411" d="M-2138.173-227.984l-14.124,8.12-11.043-6.357,11.043-6.376,3.995,2.306-7.113,4.067,3.119,1.778h0l10.159-5.829-10.159-5.865-15.654,9.038v1.772l15.654,9,12.582-7.239v4.608l-12.581,7.263-15.656-9.06v3.563l14.885,8.6c.238.138.769.438.769.438s.531-.3.768-.437l14.887-8.6V-227.1Z" transform="translate(2167.952 236.139)" fill="#737d8c"/>
</svg>
