<svg id="Group_84" data-name="Group 84" xmlns="http://www.w3.org/2000/svg" width="153.027" height="21.511" viewBox="0 0 153.027 21.511">
  <g id="Group_80" data-name="Group 80" transform="translate(0)">
    <path id="Path_412" data-name="Path 412" d="M-2172.8-681.005c-.312-.181-.622-.371-.943-.533s-.641-.326-.966-.48c-.162-.078-.328-.145-.491-.218s-.328-.143-.5-.208-.332-.134-.5-.2l-.5-.183c-.336-.117-.674-.233-1.013-.335s-.682-.2-1.023-.3-.686-.18-1.032-.257-.69-.154-1.037-.225-.694-.132-1.042-.19-.7-.112-1.047-.159q-1.048-.144-2.1-.229c-.352-.027-.7-.051-1.058-.068s-.7-.029-1.08-.029h0l-1.918.073,1.34,1.323.707.7c.233.235.48.458.7.709l.669.737c.229.24.431.505.643.761s.427.511.627.778l.592.8c.2.265.382.547.568.824s.378.552.544.841l.518.86.481.882c.165.293.3.6.454.9s.285.607.424.913.264.618.391.93.238.628.357.943.22.636.313.96.187.649.26.97l.276-.044c-.049-.346-.11-.681-.183-1.016s-.155-.667-.237-1-.175-.663-.282-.989-.2-.657-.32-.978-.223-.65-.354-.968-.243-.644-.387-.956l-.418-.945-.458-.927c-.146-.314-.325-.609-.488-.914s-.328-.609-.514-.9l-.544-.884c-.185-.294-.388-.574-.581-.862s-.386-.578-.6-.848l-.634-.828c-.031-.041-.062-.081-.093-.12l.164.012q1.008.081,2.01.218c.334.045.667.1,1,.152s.663.117.994.181.659.135.986.213.652.159.977.243.646.179.965.28.635.205.951.314l.469.171c.156.059.309.123.464.183s.308.125.459.193.305.13.454.2c.3.142.6.284.886.441s.575.32.859.484.556.347.819.539.521.389.78.586l.519.395v-2.067c-.117-.088-.234-.175-.355-.256C-2172.182-680.622-2172.491-680.811-2172.8-681.005Z" transform="translate(2189.05 691.221)" fill="#484e58"/>
    <path id="Path_413" data-name="Path 413" d="M-2170.905-695.482c.323.05.645.113.963.179.16.03.317.071.475.108s.315.074.471.117.312.08.464.131l.458.141.449.159c.151.049.292.12.438.176l.218.088c.072.03.141.067.211.1.139.069.281.132.417.2s.265.155.4.228a4.353,4.353,0,0,1,.381.244,4.176,4.176,0,0,1,.365.258c.116.092.235.178.353.266l.452.335v-1.765h0v1.765l.453-.335c.119-.087.237-.174.353-.266a4.18,4.18,0,0,1,.365-.258,4.289,4.289,0,0,1,.381-.244c.134-.073.265-.151.4-.228s.278-.135.417-.2c.071-.033.139-.069.211-.1l.218-.088c.146-.056.288-.127.439-.176l.449-.159.458-.141c.152-.051.309-.089.464-.131s.312-.083.47-.117.316-.078.475-.108c.319-.065.64-.128.964-.179s.651-.1.977-.135l.008-.17a10.065,10.065,0,0,0-1-.115c-.168-.013-.336-.018-.5-.024s-.338,0-.507-.006-.338.007-.508.012-.339.017-.509.033-.34.025-.509.05-.339.044-.509.071l-.508.1c-.17.029-.337.078-.506.12l-.253.065c-.084.024-.167.054-.25.08-.167.056-.335.107-.5.169s-.329.134-.492.206-.32.161-.48.243a3.454,3.454,0,0,0-.461.273h0a3.464,3.464,0,0,0-.46-.273,5.262,5.262,0,0,0-.481-.243c-.163-.072-.328-.138-.492-.206s-.334-.113-.5-.169c-.083-.026-.166-.056-.25-.08l-.253-.065c-.169-.042-.336-.091-.506-.12l-.508-.1c-.17-.027-.34-.05-.509-.071s-.34-.035-.51-.05-.338-.029-.508-.033-.339-.014-.508-.012-.337,0-.506.006-.337.012-.505.024a10.041,10.041,0,0,0-1,.115l.008.17C-2171.556-695.581-2171.229-695.535-2170.905-695.482Z" transform="translate(2181.908 695.932)" fill="#484e58"/>
    <path id="Path_414" data-name="Path 414" d="M-2143.443-684.613h0c-.38,0-.723.013-1.08.029s-.706.041-1.058.068q-1.057.085-2.1.229c-.35.047-.7.1-1.047.159s-.7.123-1.042.19-.693.142-1.038.225-.688.167-1.031.257-.685.19-1.024.3-.677.218-1.014.335l-.5.183c-.167.063-.332.131-.5.2s-.331.135-.5.208-.329.14-.491.218c-.324.154-.648.308-.965.48s-.631.352-.944.533-.615.384-.909.6c-.121.081-.239.168-.356.256v2.067l.52-.395c.259-.2.508-.4.78-.586s.543-.363.819-.539.564-.336.859-.484.588-.3.887-.441c.149-.072.3-.134.454-.2s.3-.133.459-.193.308-.124.464-.183l.469-.171c.315-.109.631-.218.951-.314s.641-.191.965-.28.648-.17.976-.243.656-.145.985-.213.662-.126.994-.181.666-.107,1-.152q1-.138,2.01-.218l.164-.012c-.031.04-.063.079-.093.12l-.634.828c-.217.271-.405.564-.6.848s-.4.568-.582.862l-.544.884c-.187.291-.346.6-.514.9s-.342.6-.488.914l-.457.927-.418.945c-.144.312-.257.638-.387.956s-.24.644-.354.968-.217.651-.318.978-.189.66-.283.989-.169.664-.237,1-.134.671-.183,1.016l.276.044c.073-.322.161-.65.26-.97s.206-.641.314-.96.225-.634.357-.943.249-.625.392-.93.27-.615.424-.913.289-.605.454-.9l.482-.882.517-.86c.166-.29.363-.562.545-.841s.363-.559.567-.824l.593-.8c.2-.266.418-.518.626-.778s.413-.52.643-.761l.669-.737c.216-.251.463-.475.7-.709l.706-.7,1.341-1.323Z" transform="translate(2176.562 691.221)" fill="#484e58"/>
    <path id="Path_415" data-name="Path 415" d="M-2168.642-687.379v2.022l.509-.391c.219-.167.43-.344.659-.5s.457-.315.688-.473.473-.3.722-.432.5-.27.749-.4c.126-.065.257-.122.385-.184s.258-.121.39-.176c.261-.116.527-.221.8-.325s.538-.2.812-.293.55-.18.827-.264c.556-.161,1.119-.311,1.688-.441s1.143-.242,1.722-.341c.289-.05.58-.092.871-.137s.583-.082.876-.117.586-.065.88-.089.59-.051.883-.064l.009-.191c-.6-.073-1.193-.1-1.793-.121-.3-.007-.6-.012-.9-.01s-.6.01-.9.023-.6.031-.9.052-.6.054-.9.087-.6.072-.9.118-.6.1-.9.154-.6.12-.893.192-.594.146-.888.229-.588.176-.879.277c-.146.047-.291.1-.435.155s-.29.105-.433.165c-.287.119-.574.235-.854.374s-.556.283-.833.429-.544.315-.8.5c-.087.055-.172.116-.256.176h0c-.084-.061-.169-.121-.256-.177-.259-.182-.531-.339-.8-.5s-.55-.3-.833-.429-.567-.255-.853-.374c-.143-.059-.289-.11-.433-.165s-.289-.107-.436-.155c-.291-.1-.584-.19-.878-.277s-.591-.162-.888-.229-.594-.133-.893-.192-.6-.113-.9-.154-.6-.082-.9-.118-.6-.064-.9-.087-.6-.04-.9-.052-.6-.024-.9-.023-.6,0-.9.01c-.6.017-1.2.048-1.793.121l.009.191c.292.013.589.04.883.064s.587.056.881.089.585.074.875.117.582.087.871.137c.578.1,1.153.213,1.722.341s1.132.28,1.688.441c.277.084.553.169.826.264s.542.194.812.293.534.208.8.325c.132.054.261.114.389.176s.259.119.385.184c.253.129.5.26.748.4s.484.286.723.432.466.307.688.473.44.334.659.5l.509.391v-2.022Z" transform="translate(2186.16 693.59)" fill="#484e58"/>
  </g>
  <g id="Group_83" data-name="Group 83" transform="translate(42.993 5.466)">
    <g id="Group_82" data-name="Group 82">
      <path id="Path_416" data-name="Path 416" d="M-2115.409-678.014v-.46h.91a.588.588,0,0,0,.362-.076.445.445,0,0,0,.088-.329v-6.6a.444.444,0,0,0-.088-.329.589.589,0,0,0-.362-.076h-.91v-.461h3.256l3.716,6.72,3.759-6.72h3.278v.461h-.987a.587.587,0,0,0-.361.076.443.443,0,0,0-.088.329v6.665l-.011.055a.247.247,0,0,0,.093.225.656.656,0,0,0,.334.06h1.019v.46h-4.691v-.46h.964a.59.59,0,0,0,.362-.076.445.445,0,0,0,.087-.329v-6.171h-.021l-3.891,7.037h-.921l-3.814-6.927h-.022v6.061a.445.445,0,0,0,.087.329.591.591,0,0,0,.362.076h.954v.46Z" transform="translate(2115.409 686.475)" fill="#484e58"/>
      <path id="Path_417" data-name="Path 417" d="M-2085.8-678.649h3.957a1.118,1.118,0,0,0,.411-.05.341.341,0,0,0,.159-.225l.438-1.359.647.088-.241,2.181h-8.66v-.46h1a.589.589,0,0,0,.362-.076.447.447,0,0,0,.088-.329v-6.6a.446.446,0,0,0-.088-.329.59.59,0,0,0-.362-.076h-1v-.461h8.418v1.809h-.5l-.2-.855a.448.448,0,0,0-.126-.252.431.431,0,0,0-.269-.066h-4.033v2.872h2.938a.661.661,0,0,0,.306-.044.36.36,0,0,0,.11-.208l.11-.428.395.088v1.886l-.395.088-.11-.427a.36.36,0,0,0-.11-.208.66.66,0,0,0-.306-.044h-2.937Z" transform="translate(2104.454 686.475)" fill="#484e58"/>
      <path id="Path_418" data-name="Path 418" d="M-2071.437-678.014v-.46h.953a.587.587,0,0,0,.362-.076.443.443,0,0,0,.088-.329v-6.6a.442.442,0,0,0-.088-.329.587.587,0,0,0-.362-.076h-.953v-.461h6.467a3.388,3.388,0,0,1,2.1.587,1.923,1.923,0,0,1,.767,1.617,1.919,1.919,0,0,1-.29,1.063,2.056,2.056,0,0,1-1.047.734q-.252.1-.548.2c-.154.044-.23.081-.23.11s.055.077.165.12a2.284,2.284,0,0,1,.3.165,1.12,1.12,0,0,1,.263.263l2.094,2.751a.645.645,0,0,0,.548.263h.515v.46h-2.784l-2.039-3.146a1.284,1.284,0,0,0-1.118-.669h-1.918v2.949a.475.475,0,0,0,.1.329.589.589,0,0,0,.362.076h1.031v.46Zm3.244-4.461a6.038,6.038,0,0,0,.729.06q.466.016,1.069.016a5.244,5.244,0,0,0,1.145-.1,1.651,1.651,0,0,0,.713-.323,1.17,1.17,0,0,0,.362-.548,2.778,2.778,0,0,0,.1-.822,1.376,1.376,0,0,0-.691-1.288,4.261,4.261,0,0,0-2.083-.4q-.45,0-.805.016a2.472,2.472,0,0,0-.543.071Z" transform="translate(2097.109 686.475)" fill="#484e58"/>
      <path id="Path_419" data-name="Path 419" d="M-2050.428-678.014v-.46h1a.588.588,0,0,0,.361-.076.441.441,0,0,0,.088-.329v-6.6a.44.44,0,0,0-.088-.329.588.588,0,0,0-.361-.076h-1v-.461h4.747v.461h-1a.615.615,0,0,0-.373.076.443.443,0,0,0-.088.329v6.83h3.858a1.152,1.152,0,0,0,.559-.088.845.845,0,0,0,.241-.45l.438-1.49.548.066-.263,2.6Z" transform="translate(2088.365 686.475)" fill="#484e58"/>
      <path id="Path_420" data-name="Path 420" d="M-2029.566-678.649h3.957a1.116,1.116,0,0,0,.411-.05.341.341,0,0,0,.159-.225l.438-1.359.647.088-.241,2.181h-8.659v-.46h1a.59.59,0,0,0,.362-.076.444.444,0,0,0,.088-.329v-6.6a.443.443,0,0,0-.088-.329.59.59,0,0,0-.362-.076h-1v-.461h8.418v1.809h-.5l-.2-.855a.452.452,0,0,0-.126-.252.432.432,0,0,0-.268-.066h-4.034v2.872h2.938a.666.666,0,0,0,.307-.044.365.365,0,0,0,.11-.208l.109-.428.395.088v1.886l-.395.088-.109-.427a.364.364,0,0,0-.11-.208.665.665,0,0,0-.307-.044h-2.938Z" transform="translate(2081.051 686.475)" fill="#484e58"/>
      <g id="Group_81" data-name="Group 81" transform="translate(59.098)">
        <path id="Path_421" data-name="Path 421" d="M-2014.182-686.344h3.935v.461h-.767a.524.524,0,0,0-.28.055.165.165,0,0,0-.082.142,2,2,0,0,0,.12.416.8.8,0,0,0,.033.1l1.677,5.086h.022l2.346-6.259h1.546l2.2,6.39h.022l1.874-5.02c.029-.073.058-.149.088-.23a1.755,1.755,0,0,0,.132-.461.194.194,0,0,0-.071-.164.417.417,0,0,0-.247-.055h-.844v-.461h2.784v.461h-.438c-.27,0-.434.08-.493.241l-2.828,7.761h-.943l-2.587-7.169-2.653,7.169h-.91l-2.587-7.574a.973.973,0,0,0-.165-.329.363.363,0,0,0-.285-.1h-.6Z" transform="translate(2014.182 686.475)" fill="#484e58"/>
        <path id="Path_422" data-name="Path 422" d="M-1986.735-683.938a3.759,3.759,0,0,1,.97-1.37,4.582,4.582,0,0,1,1.649-.926,7.24,7.24,0,0,1,2.3-.334,7.23,7.23,0,0,1,2.308.334,4.6,4.6,0,0,1,1.644.926,3.757,3.757,0,0,1,.97,1.37,4.364,4.364,0,0,1,.318,1.666,4.364,4.364,0,0,1-.318,1.666,3.744,3.744,0,0,1-.97,1.37,4.578,4.578,0,0,1-1.644.927,7.228,7.228,0,0,1-2.308.335,7.238,7.238,0,0,1-2.3-.335,4.565,4.565,0,0,1-1.649-.927,3.746,3.746,0,0,1-.97-1.37,4.366,4.366,0,0,1-.317-1.666A4.366,4.366,0,0,1-1986.735-683.938Zm1.792,3.036a3.22,3.22,0,0,0,.493,1.156,2.443,2.443,0,0,0,1.008.828,3.813,3.813,0,0,0,1.628.307,3.807,3.807,0,0,0,1.634-.307,2.459,2.459,0,0,0,1-.828,3.239,3.239,0,0,0,.493-1.156,6.509,6.509,0,0,0,.137-1.37,6.514,6.514,0,0,0-.137-1.37,3.246,3.246,0,0,0-.493-1.156,2.463,2.463,0,0,0-1-.827,3.807,3.807,0,0,0-1.634-.307,3.813,3.813,0,0,0-1.628.307,2.447,2.447,0,0,0-1.008.827,3.227,3.227,0,0,0-.493,1.156,6.489,6.489,0,0,0-.137,1.37A6.484,6.484,0,0,0-1984.942-680.9Z" transform="translate(2002.891 686.569)" fill="#484e58"/>
        <path id="Path_423" data-name="Path 423" d="M-1965.65-683.938a3.754,3.754,0,0,1,.97-1.37,4.592,4.592,0,0,1,1.65-.926,7.237,7.237,0,0,1,2.3-.334,7.225,7.225,0,0,1,2.307.334,4.585,4.585,0,0,1,1.644.926,3.753,3.753,0,0,1,.97,1.37,4.364,4.364,0,0,1,.317,1.666,4.364,4.364,0,0,1-.317,1.666,3.74,3.74,0,0,1-.97,1.37,4.568,4.568,0,0,1-1.644.927,7.223,7.223,0,0,1-2.307.335,7.236,7.236,0,0,1-2.3-.335,4.575,4.575,0,0,1-1.65-.927,3.741,3.741,0,0,1-.97-1.37,4.364,4.364,0,0,1-.318-1.666A4.364,4.364,0,0,1-1965.65-683.938Zm1.792,3.036a3.226,3.226,0,0,0,.493,1.156,2.448,2.448,0,0,0,1.009.828,3.811,3.811,0,0,0,1.628.307,3.8,3.8,0,0,0,1.633-.307,2.453,2.453,0,0,0,1-.828,3.23,3.23,0,0,0,.493-1.156,6.452,6.452,0,0,0,.137-1.37,6.457,6.457,0,0,0-.137-1.37,3.238,3.238,0,0,0-.493-1.156,2.457,2.457,0,0,0-1-.827,3.8,3.8,0,0,0-1.633-.307,3.811,3.811,0,0,0-1.628.307,2.452,2.452,0,0,0-1.009.827,3.233,3.233,0,0,0-.493,1.156,6.505,6.505,0,0,0-.137,1.37A6.5,6.5,0,0,0-1963.858-680.9Z" transform="translate(1994.116 686.569)" fill="#484e58"/>
        <path id="Path_424" data-name="Path 424" d="M-1945.2-678.474h.954a.588.588,0,0,0,.362-.076.442.442,0,0,0,.088-.329v-6.6a.441.441,0,0,0-.088-.329.588.588,0,0,0-.362-.076h-.954v-.461h5.854a6.459,6.459,0,0,1,1.968.285,4.429,4.429,0,0,1,1.529.822,3.568,3.568,0,0,1,.975,1.316,4.314,4.314,0,0,1,.34,1.743,3.758,3.758,0,0,1-1.3,3.124,5.714,5.714,0,0,1-3.651,1.041h-5.711Zm3.245-.088q.142.011.427.044.417.044.6.044a10.8,10.8,0,0,0,1.978-.154,3.307,3.307,0,0,0,1.348-.548,2.377,2.377,0,0,0,.817-1.123,5.425,5.425,0,0,0,.274-1.88,3.68,3.68,0,0,0-.953-2.834,4.433,4.433,0,0,0-3.047-.871q-.406,0-.784.011t-.663.033Z" transform="translate(1985.474 686.475)" fill="#484e58"/>
      </g>
    </g>
  </g>
</svg>
