<svg id="Group_21" data-name="Group 21" xmlns="http://www.w3.org/2000/svg" width="123.153" height="27.141" viewBox="0 0 123.153 27.141">
  <g id="Group_19" data-name="Group 19" transform="translate(0 0)">
    <path id="Path_79" data-name="Path 79" d="M-2559.849-60.611l-2.519-2.519a1.056,1.056,0,0,1-.078-1.44,1.018,1.018,0,0,1,1.477-.039l2.56,2.559V-71.9a1.264,1.264,0,0,0-1.264-1.264h-6.807a4.482,4.482,0,0,0-4.481,4.481v6.807a1.264,1.264,0,0,0,1.264,1.264Z" transform="translate(2570.962 73.164)" fill="#484e58"/>
    <path id="Path_80" data-name="Path 80" d="M-2545.974-62.051l5.571-5.571a1.018,1.018,0,0,1,1.574.165,1.034,1.034,0,0,1-.154,1.293l-5.552,5.551h9.849a1.264,1.264,0,0,0,1.264-1.264v-6.807a4.481,4.481,0,0,0-4.48-4.481h-6.808a1.264,1.264,0,0,0-1.264,1.264Z" transform="translate(2560.562 73.164)" fill="#484e58"/>
    <path id="Path_81" data-name="Path 81" d="M-2558.41-48.176H-2569.7a1.264,1.264,0,0,0-1.264,1.264V-40.1a4.481,4.481,0,0,0,4.481,4.481h6.807a1.264,1.264,0,0,0,1.264-1.264Z" transform="translate(2570.962 62.764)" fill="#484e58"/>
    <path id="Path_82" data-name="Path 82" d="M-2545.974-48.176v11.289a1.264,1.264,0,0,0,1.264,1.264h6.808a4.48,4.48,0,0,0,4.48-4.481v-6.808a1.264,1.264,0,0,0-1.264-1.264Z" transform="translate(2560.562 62.764)" fill="#484e58"/>
  </g>
  <g id="Group_20" data-name="Group 20" transform="translate(33.568 3.86)">
    <path id="Path_83" data-name="Path 83" d="M-2509.9-55.252a4.859,4.859,0,0,0,1.487,3.809A5.334,5.334,0,0,0-2504.7-50.1a4.323,4.323,0,0,0,1.373-.228v-5.422h3.065v7.023a8.981,8.981,0,0,1-4.781,1.1,9.256,9.256,0,0,1-6.017-1.945,6.873,6.873,0,0,1-2.4-5.674,6.948,6.948,0,0,1,2.345-5.674,8.953,8.953,0,0,1,5.914-1.945,9.376,9.376,0,0,1,4.461.915l-.412,2.4a7.3,7.3,0,0,0-3.729-.869,5,5,0,0,0-3.569,1.361A4.985,4.985,0,0,0-2509.9-55.252Z" transform="translate(2513.464 65.02)" fill="#484e58"/>
    <path id="Path_84" data-name="Path 84" d="M-2487.171-64.586a1.9,1.9,0,0,1,.572-1.4,1.9,1.9,0,0,1,1.4-.572,1.9,1.9,0,0,1,1.4.572,1.9,1.9,0,0,1,.572,1.4,1.911,1.911,0,0,1-.572,1.384,1.879,1.879,0,0,1-1.4.584,1.878,1.878,0,0,1-1.4-.584A1.91,1.91,0,0,1-2487.171-64.586Zm.32,15.076V-60.742h3.294V-49.51Z" transform="translate(2502.521 66.553)" fill="#484e58"/>
    <path id="Path_85" data-name="Path 85" d="M-2478.472-57.655v-2.127l1.991-.274v-.664q0-4.186,4.392-4.186a9.564,9.564,0,0,1,2.951.457l-.412,2.242a5.356,5.356,0,0,0-1.785-.3,2.129,2.129,0,0,0-1.4.4,1.716,1.716,0,0,0-.481,1.384v.664h3.615v2.4h-3.615v8.831h-3.271v-8.831Z" transform="translate(2498.901 65.868)" fill="#484e58"/>
    <path id="Path_86" data-name="Path 86" d="M-2460.918-56.677V-58.8l1.991-.274.366-3.477h2.905v3.477h3.614v2.4h-3.614V-52.1a2.285,2.285,0,0,0,.48,1.648,1.86,1.86,0,0,0,1.373.48,3.816,3.816,0,0,0,2.1-.617l.389,2.265a6.076,6.076,0,0,1-3.134.755q-4.485,0-4.484-4.255v-4.85Z" transform="translate(2491.595 64.89)" fill="#484e58"/>
    <path id="Path_87" data-name="Path 87" d="M-2444.46-60.089v-2.036h12.011v2.036h-4.644v12.422h-2.722V-60.089Z" transform="translate(2484.746 64.71)" fill="#484e58"/>
    <path id="Path_88" data-name="Path 88" d="M-2421.5-64.2a1.591,1.591,0,0,1,.48-1.166,1.589,1.589,0,0,1,1.167-.48,1.562,1.562,0,0,1,1.144.48,1.588,1.588,0,0,1,.48,1.166,1.562,1.562,0,0,1-.48,1.144,1.564,1.564,0,0,1-1.144.48,1.591,1.591,0,0,1-1.167-.48A1.565,1.565,0,0,1-2421.5-64.2Zm.321,14.985V-60.334h2.653v11.118Z" transform="translate(2475.189 66.26)" fill="#484e58"/>
    <path id="Path_89" data-name="Path 89" d="M-2412.054-45.5V-56.021a11.849,11.849,0,0,1,5.033-.893,4.935,4.935,0,0,1,3.34.984,8.607,8.607,0,0,1,4.141-.984,5.973,5.973,0,0,1,3.66,1.041,4.018,4.018,0,0,1,1.4,3.443V-45.5h-2.654v-6.841a2.487,2.487,0,0,0-.686-2.059,3.012,3.012,0,0,0-1.876-.527,4.129,4.129,0,0,0-2.631.732,4.4,4.4,0,0,1,.275,1.739V-45.5h-2.425v-6.841a2.487,2.487,0,0,0-.687-2.059,3.01,3.01,0,0,0-1.875-.527,4.653,4.653,0,0,0-2.357.48V-45.5Z" transform="translate(2471.259 62.541)" fill="#484e58"/>
    <path id="Path_90" data-name="Path 90" d="M-2367.975-51.492a6.313,6.313,0,0,1-.114,1.144h-8.212q0,3.158,3.774,3.157a8.494,8.494,0,0,0,3.752-.687l.526,1.9a11.3,11.3,0,0,1-4.324.755,7.48,7.48,0,0,1-4.815-1.407,5.4,5.4,0,0,1-1.75-4.473,5.675,5.675,0,0,1,1.544-4.415,5.926,5.926,0,0,1,4.129-1.4,5.777,5.777,0,0,1,4.027,1.327A5.264,5.264,0,0,1-2367.975-51.492Zm-8.327-.526.595.183h4.9q0-3.2-2.631-3.2a2.959,2.959,0,0,0-2.059.72A2.949,2.949,0,0,0-2376.3-52.018Z" transform="translate(2457.56 62.541)" fill="#484e58"/>
  </g>
</svg>
