<svg id="Group_11" data-name="Group 11" xmlns="http://www.w3.org/2000/svg" width="131.985" height="25.745" viewBox="0 0 131.985 25.745">
  <g id="Group_9" data-name="Group 9">
    <path id="Path_46" data-name="Path 46" d="M-2557.541-667.914a1.326,1.326,0,0,1-.515-.1l-9.31-3.9-9.311,3.9a1.333,1.333,0,0,1-1.5-.335,1.334,1.334,0,0,1-.186-1.529l9.484-17.58-2.282-4.23a1.333,1.333,0,0,1,.541-1.807,1.333,1.333,0,0,1,1.807.541l1.45,2.687,1.449-2.687a1.334,1.334,0,0,1,1.807-.541,1.334,1.334,0,0,1,.541,1.807l-2.282,4.23,9.485,17.58a1.334,1.334,0,0,1-.186,1.529A1.332,1.332,0,0,1-2557.541-667.914Zm-9.825-6.785a1.325,1.325,0,0,1,.515.1l6.344,2.658-6.859-12.715-6.859,12.715,6.344-2.658A1.33,1.33,0,0,1-2567.366-674.7Z" transform="translate(2578.526 693.658)" fill="#737d8c"/>
  </g>
  <g id="Group_10" data-name="Group 10" transform="translate(25.72 6.436)">
    <path id="Path_47" data-name="Path 47" d="M-2534.471-676.2a6.237,6.237,0,0,1,6.436-6.436,6.217,6.217,0,0,1,6.411,6.436,6.217,6.217,0,0,1-6.411,6.436A6.237,6.237,0,0,1-2534.471-676.2Zm10.819,0a4.288,4.288,0,0,0-4.383-4.533,4.288,4.288,0,0,0-4.382,4.533,4.288,4.288,0,0,0,4.382,4.533A4.288,4.288,0,0,0-2523.652-676.2Z" transform="translate(2534.471 682.634)" fill="#484e58"/>
    <path id="Path_48" data-name="Path 48" d="M-2502.616-680.731a4.351,4.351,0,0,0-4.407,4.533,4.346,4.346,0,0,0,4.382,4.533,4.305,4.305,0,0,0,3.306-1.553.885.885,0,0,1,1.377-.024.941.941,0,0,1,.075,1.427,6.214,6.214,0,0,1-4.733,2.053,6.243,6.243,0,0,1-6.461-6.436,6.243,6.243,0,0,1,6.461-6.436,6.191,6.191,0,0,1,4.608,1.928.881.881,0,0,1-.1,1.352.861.861,0,0,1-1.352.05A4.137,4.137,0,0,0-2502.616-680.731Z" transform="translate(2523.902 682.634)" fill="#484e58"/>
    <path id="Path_49" data-name="Path 49" d="M-2479.624-680.731a4.351,4.351,0,0,0-4.408,4.533,4.346,4.346,0,0,0,4.383,4.533,4.305,4.305,0,0,0,3.306-1.553.885.885,0,0,1,1.377-.024.941.941,0,0,1,.075,1.427,6.214,6.214,0,0,1-4.733,2.053,6.243,6.243,0,0,1-6.461-6.436,6.243,6.243,0,0,1,6.461-6.436,6.193,6.193,0,0,1,4.608,1.928.881.881,0,0,1-.1,1.352.861.861,0,0,1-1.352.05A4.136,4.136,0,0,0-2479.624-680.731Z" transform="translate(2514.333 682.634)" fill="#484e58"/>
    <path id="Path_50" data-name="Path 50" d="M-2450.963-681.307v10.368a.969.969,0,0,1-1,1.077.987.987,0,0,1-1.027-1.077v-.626h-.125a4.538,4.538,0,0,1-3.931,1.878c-2.7,0-5.059-1.4-5.059-5.184v-6.437a.968.968,0,0,1,1-1.077.968.968,0,0,1,1,1.077v6.136c0,2.755,1.477,3.581,3.481,3.581,2.5-.025,3.631-1.528,3.631-2.7v-7.012a.986.986,0,0,1,1.027-1.077A.968.968,0,0,1-2450.963-681.307Z" transform="translate(2504.354 682.53)" fill="#484e58"/>
    <path id="Path_51" data-name="Path 51" d="M-2425.7-676.223c0,3.556-2.4,6.461-6.111,6.461a4.411,4.411,0,0,1-4.132-2.179h-.15v4.733a.968.968,0,0,1-1,1.077.968.968,0,0,1-1-1.077v-9.116c0-3.931,2.429-6.31,5.985-6.31A6.181,6.181,0,0,1-2425.7-676.223Zm-2.029.025a4.3,4.3,0,0,0-4.383-4.533c-2.529,0-3.981,1.778-3.981,4.607v.1a4.044,4.044,0,0,0,4.207,4.383C-2429.236-671.64-2427.733-673.869-2427.733-676.2Z" transform="translate(2494.363 682.634)" fill="#484e58"/>
    <path id="Path_52" data-name="Path 52" d="M-2400.907-676.949v5.91a.977.977,0,0,1-1,1.1.994.994,0,0,1-1.027-1.1v-.876h-.125a4.445,4.445,0,0,1-4.183,2.154,6.169,6.169,0,0,1-6.236-6.286,6.236,6.236,0,0,1,6.562-6.586C-2403.712-682.634-2400.907-680.581-2400.907-676.949Zm-2.029.677v-.4a3.682,3.682,0,0,0-3.982-4.057,4.28,4.28,0,0,0-4.508,4.558,4.207,4.207,0,0,0,4.407,4.508C-2404.463-671.665-2402.936-673.343-2402.936-676.273Z" transform="translate(2484.116 682.634)" fill="#484e58"/>
    <path id="Path_53" data-name="Path 53" d="M-2379.038-681.207a.917.917,0,0,1-1.2.726,2.829,2.829,0,0,0-1.027-.225c-2.053,0-3.356,1.928-3.356,5.384v4.307a.968.968,0,0,1-1,1.077.969.969,0,0,1-1-1.077v-10.368a.968.968,0,0,1,1-1.077.967.967,0,0,1,1,1.077v1.052h.1a3.748,3.748,0,0,1,3.381-2.3,4.157,4.157,0,0,1,1.327.25A.921.921,0,0,1-2379.038-681.207Z" transform="translate(2472.94 682.634)" fill="#484e58"/>
    <path id="Path_54" data-name="Path 54" d="M-2365.668-680.731a4.351,4.351,0,0,0-4.407,4.533,4.346,4.346,0,0,0,4.383,4.533,4.306,4.306,0,0,0,3.306-1.553.885.885,0,0,1,1.377-.024.942.942,0,0,1,.075,1.427,6.215,6.215,0,0,1-4.734,2.053,6.243,6.243,0,0,1-6.461-6.436,6.243,6.243,0,0,1,6.461-6.436,6.191,6.191,0,0,1,4.608,1.928.881.881,0,0,1-.1,1.352.862.862,0,0,1-1.353.05A4.133,4.133,0,0,0-2365.668-680.731Z" transform="translate(2466.907 682.634)" fill="#484e58"/>
  </g>
</svg>
