<svg id="Group_15" data-name="Group 15" xmlns="http://www.w3.org/2000/svg" width="75.945" height="26.442" viewBox="0 0 75.945 26.442">
  <g id="Group_12" data-name="Group 12">
    <path id="Path_55" data-name="Path 55" d="M-2521.985-547.457a7.536,7.536,0,0,1,3.418.8,6.777,6.777,0,0,1,2.58,2.144v-11.036a.527.527,0,0,1,.527-.527h2.3a.527.527,0,0,1,.527.527v17a8.482,8.482,0,0,1-2.547,6.333,8.819,8.819,0,0,1-6.434,2.513,8.691,8.691,0,0,1-6.4-2.513,8.61,8.61,0,0,1-2.513-6.367,8.669,8.669,0,0,1,2.446-6.333,8.2,8.2,0,0,1,6.1-2.547Zm4.356,4.86a5.232,5.232,0,0,0-3.921-1.61,5.329,5.329,0,0,0-3.987,1.61,5.562,5.562,0,0,0-1.575,4.021,5.588,5.588,0,0,0,1.575,4.055,5.33,5.33,0,0,0,3.987,1.608,5.232,5.232,0,0,0,3.921-1.608,5.586,5.586,0,0,0,1.575-4.055A5.56,5.56,0,0,0-2517.629-542.6Z" transform="translate(2530.531 556.072)" fill="#484e58"/>
  </g>
  <g id="Group_13" data-name="Group 13" transform="translate(20.923 8.647)">
    <path id="Path_56" data-name="Path 56" d="M-2485.778-523.466a8.692,8.692,0,0,1-6.4-2.513,8.69,8.69,0,0,1-2.512-6.4,8.613,8.613,0,0,1,2.512-6.367,8.693,8.693,0,0,1,6.4-2.515,8.687,8.687,0,0,1,6.4,2.515,8.612,8.612,0,0,1,2.512,6.367,8.611,8.611,0,0,1-2.512,6.366,8.684,8.684,0,0,1-6.4,2.514Zm-.134-3.25a5.326,5.326,0,0,0,3.987-1.608,5.587,5.587,0,0,0,1.575-4.055,5.557,5.557,0,0,0-1.542-4.055,5.251,5.251,0,0,0-3.954-1.61,5.256,5.256,0,0,0-3.955,1.61,5.559,5.559,0,0,0-1.54,4.055,5.585,5.585,0,0,0,1.574,4.055,5.327,5.327,0,0,0,3.988,1.608Z" transform="translate(2494.692 541.26)" fill="#484e58"/>
  </g>
  <g id="Group_14" data-name="Group 14" transform="translate(71.925 8.983)">
    <path id="Path_57" data-name="Path 57" d="M-2403.981-540.158v16.036a.527.527,0,0,1-.527.527h-2.3a.527.527,0,0,1-.527-.527v-16.036a.527.527,0,0,1,.527-.527h2.3A.527.527,0,0,1-2403.981-540.158Z" transform="translate(2407.332 540.685)" fill="#484e58"/>
  </g>
  <path id="Path_58" data-name="Path 58" d="M-2434.449-535.846l-3.974-3.975a2.973,2.973,0,0,0-4.192,0l-3.363,3.364-3.363-3.364a2.974,2.974,0,0,0-4.193,0l-3.974,3.976a3.672,3.672,0,0,0-1.076,2.6v9.193a.528.528,0,0,0,.528.527h2.318a.528.528,0,0,0,.528-.527v-9.193l.088-.213,3.685-3.686,3.772,3.774v9.318a.528.528,0,0,0,.528.527h2.319a.527.527,0,0,0,.527-.527v-9.318l3.772-3.774,3.685,3.686.088.213v9.193a.528.528,0,0,0,.527.527h2.319a.527.527,0,0,0,.527-.527v-9.192A3.677,3.677,0,0,0-2434.449-535.846Z" transform="translate(2500.589 549.668)" fill="#484e58"/>
  <circle id="Ellipse_1" data-name="Ellipse 1" cx="2.311" cy="2.311" r="2.311" transform="translate(71.322 0.263)" fill="#484e58"/>
</svg>
