<svg id="Group_69" data-name="Group 69" xmlns="http://www.w3.org/2000/svg" width="106.281" height="38.178" viewBox="0 0 106.281 38.178">
  <g id="Group_63" data-name="Group 63">
    <path id="Path_343" data-name="Path 343" d="M-1366.009-393.233a.658.658,0,0,0-1.032.759,19.2,19.2,0,0,1,1.439,10.193,1.92,1.92,0,0,0-2.084.419,1.912,1.912,0,0,0-.534,1.037,5.223,5.223,0,0,1,1.193,1.306c-.019-.022-.04-.039-.058-.06s-.051-.06-.08-.088-.042-.038-.064-.058c-.052-.05-.1-.1-.157-.142-.031-.026-.063-.048-.1-.073-.056-.041-.11-.086-.167-.122a3.134,3.134,0,0,0-3.95.4,3.114,3.114,0,0,0-.8,1.357,5.6,5.6,0,0,1,1.828,1.37,3.425,3.425,0,0,0-.684-.45l-.032-.017-.081-.038a4.384,4.384,0,0,0-1.715-.445c-4.529-.727-9.495-5.479-10.893-6.9a4.437,4.437,0,0,1,2.121-.986.124.124,0,0,0,.085-.187c-1.187-1.964-2.545-1.36-2.545-1.36a4.757,4.757,0,0,0-4.383-1.735.166.166,0,0,0-.139.14,4.757,4.757,0,0,0,1.734,4.382s-.6,1.359,1.36,2.545a.124.124,0,0,0,.188-.085,4.437,4.437,0,0,1,.986-2.122c1.422,1.4,6.173,6.364,6.9,10.892a4.375,4.375,0,0,0,.445,1.715c.013.027.025.054.038.081l.016.032a3.482,3.482,0,0,0,.451.684,5.6,5.6,0,0,1-1.37-1.829,3.116,3.116,0,0,0-1.357.8,3.135,3.135,0,0,0-.4,3.949c.036.056.08.111.122.166.024.032.047.064.073.1.044.053.093.105.142.157.02.021.037.043.058.064s.059.053.088.08.037.04.06.058a5.215,5.215,0,0,1-1.306-1.193,1.911,1.911,0,0,0-1.037.534,1.919,1.919,0,0,0-.419,2.084,19.206,19.206,0,0,1-10.193-1.438.658.658,0,0,0-.759,1.032q.433.5.905.97a19.137,19.137,0,0,0,27.064,0,19.137,19.137,0,0,0,0-27.064Q-1365.511-392.8-1366.009-393.233Zm-21.2,6.745a.67.67,0,0,1,0-.947.67.67,0,0,1,.947,0,.669.669,0,0,1,0,.947A.67.67,0,0,1-1387.21-386.488Z" transform="translate(1393.171 397.836)" fill="#737d8c"/>
    <path id="Path_344" data-name="Path 344" d="M-1354.559-395.318a4.238,4.238,0,0,0-.7-.26,4.305,4.305,0,0,0,.079-.746,2.437,2.437,0,0,0-.029-.459,2.441,2.441,0,0,0-.229.4,4.291,4.291,0,0,0-.259.7,4.249,4.249,0,0,0-.746-.079,2.4,2.4,0,0,0-.459.03,2.427,2.427,0,0,0,.4.23,4.231,4.231,0,0,0,.7.259,4.182,4.182,0,0,0-.078.746,2.43,2.43,0,0,0,.029.459,2.424,2.424,0,0,0,.23-.4,4.2,4.2,0,0,0,.259-.7,4.247,4.247,0,0,0,.746.078,2.473,2.473,0,0,0,.46-.029A2.44,2.44,0,0,0-1354.559-395.318Z" transform="translate(1378.079 399.246)" fill="#737d8c"/>
    <path id="Path_345" data-name="Path 345" d="M-1378.866-393.732a4.271,4.271,0,0,0-.7-.26,4.31,4.31,0,0,0,.079-.746,2.438,2.438,0,0,0-.029-.459,2.453,2.453,0,0,0-.229.4,4.28,4.28,0,0,0-.259.7,4.253,4.253,0,0,0-.746-.079,2.455,2.455,0,0,0-.46.03,2.416,2.416,0,0,0,.4.23,4.231,4.231,0,0,0,.7.259,4.2,4.2,0,0,0-.078.746,2.425,2.425,0,0,0,.029.459,2.423,2.423,0,0,0,.23-.4,4.2,4.2,0,0,0,.259-.7,4.243,4.243,0,0,0,.745.078,2.41,2.41,0,0,0,.46-.029A2.446,2.446,0,0,0-1378.866-393.732Z" transform="translate(1388.195 398.585)" fill="#737d8c"/>
    <path id="Path_346" data-name="Path 346" d="M-1364.284-386.01a6.149,6.149,0,0,0-1.016-.375,6.164,6.164,0,0,0,.113-1.078,3.5,3.5,0,0,0-.042-.663,3.516,3.516,0,0,0-.331.576,6.149,6.149,0,0,0-.375,1.016,6.088,6.088,0,0,0-1.078-.113,3.479,3.479,0,0,0-.664.043,3.5,3.5,0,0,0,.577.332,6.123,6.123,0,0,0,1.016.374,6.019,6.019,0,0,0-.113,1.077,3.477,3.477,0,0,0,.043.664,3.468,3.468,0,0,0,.332-.577,6.042,6.042,0,0,0,.375-1.016,6.144,6.144,0,0,0,1.077.113,3.519,3.519,0,0,0,.664-.042A3.527,3.527,0,0,0-1364.284-386.01Z" transform="translate(1382.56 395.643)" fill="#737d8c"/>
    <path id="Path_347" data-name="Path 347" d="M-1366.142-398.683a6.823,6.823,0,0,0-1.113-.411,6.722,6.722,0,0,0,.124-1.18,3.849,3.849,0,0,0-.046-.727,3.838,3.838,0,0,0-.363.632,6.681,6.681,0,0,0-.411,1.113,6.616,6.616,0,0,0-1.181-.124,3.784,3.784,0,0,0-.727.047,3.825,3.825,0,0,0,.632.364,6.638,6.638,0,0,0,1.113.41,6.626,6.626,0,0,0-.124,1.18,3.85,3.85,0,0,0,.047.727,3.825,3.825,0,0,0,.364-.632,6.68,6.68,0,0,0,.41-1.113,6.723,6.723,0,0,0,1.18.124,3.813,3.813,0,0,0,.727-.046A3.866,3.866,0,0,0-1366.142-398.683Z" transform="translate(1383.468 401.001)" fill="#737d8c"/>
  </g>
  <g id="Group_68" data-name="Group 68" transform="translate(41.494 13.212)">
    <g id="Group_67" data-name="Group 67">
      <g id="Group_64" data-name="Group 64">
        <path id="Path_348" data-name="Path 348" d="M-1321.962-369.692c-.135-.109-.189-.19-.067-.406l.486-.838a.313.313,0,0,1,.459-.095,3.267,3.267,0,0,0,2.042.838,1.129,1.129,0,0,0,1.23-1.041c0-.69-.582-1.163-1.717-1.622-1.271-.513-2.541-1.325-2.541-2.92,0-1.2.893-2.6,3.042-2.6a4.761,4.761,0,0,1,2.7.905.335.335,0,0,1,.081.446l-.514.771a.355.355,0,0,1-.473.162,3.487,3.487,0,0,0-1.879-.743c-.771,0-1.189.433-1.189.946,0,.635.5,1.068,1.595,1.514,1.311.527,2.825,1.311,2.825,3.055a2.855,2.855,0,0,1-3.109,2.676A4.238,4.238,0,0,1-1321.962-369.692Z" transform="translate(1322.098 378.371)" fill="#484e58"/>
        <path id="Path_349" data-name="Path 349" d="M-1305.1-377.815a.32.32,0,0,1,.324-.325h1.189a.329.329,0,0,1,.325.325v3.65l3.407-3.839a.324.324,0,0,1,.257-.135h1.352a.288.288,0,0,1,.216.487l-3.528,3.974,3.785,4.529a.3.3,0,0,1-.243.473h-1.474a.294.294,0,0,1-.243-.095l-3.528-4.353V-369a.329.329,0,0,1-.325.325h-1.189a.32.32,0,0,1-.324-.325Z" transform="translate(1315.023 378.275)" fill="#484e58"/>
        <path id="Path_350" data-name="Path 350" d="M-1285.6-373.233l-3.082-4.515a.251.251,0,0,1,.216-.392h1.379a.268.268,0,0,1,.216.122l2.163,3.109,2.163-3.109a.269.269,0,0,1,.216-.122h1.392a.251.251,0,0,1,.217.392l-3.123,4.5v4.313a.266.266,0,0,1-.257.257h-1.244a.257.257,0,0,1-.257-.257Z" transform="translate(1308.21 378.275)" fill="#484e58"/>
        <path id="Path_351" data-name="Path 351" d="M-1270.5-369.692c-.135-.109-.189-.19-.068-.406l.487-.838a.313.313,0,0,1,.459-.095,3.263,3.263,0,0,0,2.041.838,1.129,1.129,0,0,0,1.231-1.041c0-.69-.582-1.163-1.717-1.622-1.271-.513-2.542-1.325-2.542-2.92,0-1.2.892-2.6,3.042-2.6a4.765,4.765,0,0,1,2.7.905.335.335,0,0,1,.081.446l-.514.771a.356.356,0,0,1-.474.162,3.484,3.484,0,0,0-1.879-.743c-.771,0-1.19.433-1.19.946,0,.635.5,1.068,1.595,1.514,1.311.527,2.826,1.311,2.826,3.055a2.855,2.855,0,0,1-3.109,2.676A4.237,4.237,0,0,1-1270.5-369.692Z" transform="translate(1300.682 378.371)" fill="#484e58"/>
        <path id="Path_352" data-name="Path 352" d="M-1253.641-377.883a.266.266,0,0,1,.257-.257h1.257a.257.257,0,0,1,.257.257v3.583h4.406v-3.583a.257.257,0,0,1,.257-.257h1.244a.266.266,0,0,1,.257.257v8.949a.267.267,0,0,1-.257.257h-1.244a.257.257,0,0,1-.257-.257v-3.731h-4.406v3.731a.257.257,0,0,1-.257.257h-1.257a.266.266,0,0,1-.257-.257Z" transform="translate(1293.607 378.275)" fill="#484e58"/>
        <path id="Path_353" data-name="Path 353" d="M-1232.637-377.883a.266.266,0,0,1,.257-.257h1.257a.266.266,0,0,1,.257.257v8.949a.266.266,0,0,1-.257.257h-1.257a.267.267,0,0,1-.257-.257Z" transform="translate(1284.865 378.275)" fill="#484e58"/>
        <path id="Path_354" data-name="Path 354" d="M-1222.193-377.883a.257.257,0,0,1,.257-.257h3.177a3.023,3.023,0,0,1,3.028,2.988,3.04,3.04,0,0,1-3.014,3.042h-1.69v3.177a.266.266,0,0,1-.257.257h-1.244a.257.257,0,0,1-.257-.257Zm3.38,4.123a1.349,1.349,0,0,0,1.338-1.405,1.3,1.3,0,0,0-1.338-1.311h-1.622v2.716Z" transform="translate(1280.519 378.275)" fill="#484e58"/>
      </g>
      <g id="Group_66" data-name="Group 66" transform="translate(0.45 12.526)">
        <g id="Group_65" data-name="Group 65">
          <path id="Path_355" data-name="Path 355" d="M-1321.327-356.714a.106.106,0,0,1,.106-.106h2.2a.107.107,0,0,1,.106.106v.162a.106.106,0,0,1-.106.106h-1.876v1.363h1.6a.11.11,0,0,1,.106.106v.162a.106.106,0,0,1-.106.106h-1.6v1.424h1.876a.106.106,0,0,1,.106.106v.162a.107.107,0,0,1-.106.106h-2.2a.106.106,0,0,1-.106-.106Z" transform="translate(1321.327 356.875)" fill="#484e58"/>
          <path id="Path_356" data-name="Path 356" d="M-1312.944-356.815a.105.105,0,0,1,.106-.1h.083a.1.1,0,0,1,.089.045l2.485,3.093h.011v-2.976a.106.106,0,0,1,.106-.106h.2a.11.11,0,0,1,.106.106v3.759a.105.105,0,0,1-.106.1h-.044a.1.1,0,0,1-.089-.045l-2.53-3.155h-.006v3.038a.106.106,0,0,1-.106.106h-.2a.11.11,0,0,1-.106-.106Z" transform="translate(1317.838 356.915)" fill="#484e58"/>
          <path id="Path_357" data-name="Path 357" d="M-1302.372-356.446h-.972a.106.106,0,0,1-.106-.106v-.162a.107.107,0,0,1,.106-.106h2.367a.106.106,0,0,1,.106.106v.162a.106.106,0,0,1-.106.106h-.971v3.429a.11.11,0,0,1-.106.106h-.212a.11.11,0,0,1-.106-.106Z" transform="translate(1313.887 356.875)" fill="#484e58"/>
          <path id="Path_358" data-name="Path 358" d="M-1294.99-356.714a.106.106,0,0,1,.106-.106h2.2a.107.107,0,0,1,.106.106v.162a.106.106,0,0,1-.106.106h-1.876v1.363h1.6a.11.11,0,0,1,.106.106v.162a.106.106,0,0,1-.106.106h-1.6v1.424h1.876a.106.106,0,0,1,.106.106v.162a.107.107,0,0,1-.106.106h-2.2a.106.106,0,0,1-.106-.106Z" transform="translate(1310.366 356.875)" fill="#484e58"/>
          <path id="Path_359" data-name="Path 359" d="M-1286.607-356.714a.107.107,0,0,1,.106-.106h1.446a1.2,1.2,0,0,1,1.217,1.19,1.246,1.246,0,0,1-.826,1.139l.765,1.419a.106.106,0,0,1-.1.162h-.268a.121.121,0,0,1-.123-.083l-.726-1.447h-1.067v1.424a.111.111,0,0,1-.106.106h-.218a.107.107,0,0,1-.106-.106Zm1.524,1.9a.814.814,0,0,0,.8-.816.812.812,0,0,0-.8-.787h-1.083v1.6Z" transform="translate(1306.877 356.875)" fill="#484e58"/>
          <path id="Path_360" data-name="Path 360" d="M-1277.174-356.446h-.971a.106.106,0,0,1-.106-.106v-.162a.107.107,0,0,1,.106-.106h2.368a.106.106,0,0,1,.106.106v.162a.106.106,0,0,1-.106.106h-.972v3.429a.11.11,0,0,1-.106.106h-.212a.11.11,0,0,1-.106-.106Z" transform="translate(1303.4 356.875)" fill="#484e58"/>
          <path id="Path_361" data-name="Path 361" d="M-1271.025-353.1l1.7-3.759a.1.1,0,0,1,.1-.061h.055a.1.1,0,0,1,.1.061l1.687,3.759a.1.1,0,0,1-.1.145h-.224a.1.1,0,0,1-.095-.061l-.413-.922h-1.983l-.408.922a.1.1,0,0,1-.095.061h-.224A.1.1,0,0,1-1271.025-353.1Zm2.653-1.185c-.274-.608-.542-1.223-.816-1.831h-.044l-.816,1.831Z" transform="translate(1300.396 356.915)" fill="#484e58"/>
          <path id="Path_362" data-name="Path 362" d="M-1260.93-356.714a.11.11,0,0,1,.106-.106h.223a.11.11,0,0,1,.106.106v3.7a.11.11,0,0,1-.106.106h-.223a.11.11,0,0,1-.106-.106Z" transform="translate(1296.191 356.875)" fill="#484e58"/>
          <path id="Path_363" data-name="Path 363" d="M-1255.475-356.815a.105.105,0,0,1,.106-.1h.083a.1.1,0,0,1,.089.045l2.485,3.093h.011v-2.976a.106.106,0,0,1,.106-.106h.195a.11.11,0,0,1,.106.106v3.759a.105.105,0,0,1-.106.1h-.044a.1.1,0,0,1-.089-.045l-2.53-3.155h-.006v3.038a.106.106,0,0,1-.106.106h-.2a.11.11,0,0,1-.106-.106Z" transform="translate(1293.92 356.915)" fill="#484e58"/>
          <path id="Path_364" data-name="Path 364" d="M-1245.015-356.837a.107.107,0,0,1,.1-.078h.089a.106.106,0,0,1,.094.061l1.106,3.077h.028l1.089-3.077a.107.107,0,0,1,.1-.061h.089a.107.107,0,0,1,.1.078l.72,3.752c.017.078-.017.134-.1.134h-.223a.115.115,0,0,1-.1-.078l-.5-2.876h-.023l-1.027,2.949a.115.115,0,0,1-.094.061h-.1a.115.115,0,0,1-.1-.061l-1.039-2.949h-.022l-.486,2.876a.109.109,0,0,1-.1.078h-.223c-.084,0-.117-.056-.1-.134Z" transform="translate(1289.869 356.915)" fill="#484e58"/>
          <path id="Path_365" data-name="Path 365" d="M-1234.191-356.714a.106.106,0,0,1,.106-.106h2.2a.107.107,0,0,1,.106.106v.162a.106.106,0,0,1-.106.106h-1.876v1.363h1.6a.11.11,0,0,1,.106.106v.162a.106.106,0,0,1-.106.106h-1.6v1.424h1.876a.106.106,0,0,1,.106.106v.162a.107.107,0,0,1-.106.106h-2.2a.106.106,0,0,1-.106-.106Z" transform="translate(1285.062 356.875)" fill="#484e58"/>
          <path id="Path_366" data-name="Path 366" d="M-1225.808-356.815a.105.105,0,0,1,.106-.1h.084a.1.1,0,0,1,.089.045l2.485,3.093h.011v-2.976a.107.107,0,0,1,.106-.106h.2a.11.11,0,0,1,.106.106v3.759a.105.105,0,0,1-.106.1h-.045a.1.1,0,0,1-.089-.045l-2.53-3.155h-.005v3.038a.107.107,0,0,1-.106.106h-.2a.11.11,0,0,1-.106-.106Z" transform="translate(1281.573 356.915)" fill="#484e58"/>
          <path id="Path_367" data-name="Path 367" d="M-1215.236-356.446h-.971a.106.106,0,0,1-.106-.106v-.162a.107.107,0,0,1,.106-.106h2.368a.106.106,0,0,1,.106.106v.162a.106.106,0,0,1-.106.106h-.972v3.429a.11.11,0,0,1-.106.106h-.213a.11.11,0,0,1-.106-.106Z" transform="translate(1277.622 356.875)" fill="#484e58"/>
        </g>
      </g>
    </g>
  </g>
</svg>
