<svg id="Group_103" data-name="Group 103" xmlns="http://www.w3.org/2000/svg" width="109.429" height="33.568" viewBox="0 0 109.429 33.568">
  <path id="Path_450" data-name="Path 450" d="M-2119.353-70.633l-3.112-1.8,1.014-.586a.835.835,0,0,0,.417-.723.834.834,0,0,0-.417-.723l-3.079-1.778.5-.289a.835.835,0,0,0,.417-.723.835.835,0,0,0-.418-.723l-11.221-6.478a.836.836,0,0,0-.835,0l-11.221,6.478a.836.836,0,0,0-.417.723.836.836,0,0,0,.417.723l11.221,6.479a.831.831,0,0,0,.417.112.831.831,0,0,0,.417-.112l9.051-5.225,2.662,1.537-12.128,7-12.684-7.323a.836.836,0,0,0-1.141.306.836.836,0,0,0,.305,1.141l13.1,7.564a.837.837,0,0,0,.417.112.839.839,0,0,0,.418-.112l11.112-6.416,2.7,1.556-14.225,8.213-14.793-8.541a.835.835,0,0,0-1.141.306.835.835,0,0,0,.306,1.141l15.211,8.782a.831.831,0,0,0,.417.112.834.834,0,0,0,.418-.112l9.475-5.47.007.005,2.228,1.286-12.128,7-12.684-7.323a.836.836,0,0,0-1.141.306.836.836,0,0,0,.305,1.141l13.1,7.564a.831.831,0,0,0,.417.112.834.834,0,0,0,.418-.112l7-4.043.008.005,2.122,1.225-9.552,5.514-9.985-5.765a.836.836,0,0,0-1.141.306.835.835,0,0,0,.305,1.141l10.4,6.006a.837.837,0,0,0,.417.112.837.837,0,0,0,.417-.112l11.222-6.479a.836.836,0,0,0,.417-.723.835.835,0,0,0-.418-.724l-2.547-1.47,5.125-2.959a.834.834,0,0,0,.417-.723.835.835,0,0,0-.417-.723l-2.653-1.531,4.751-2.743a.836.836,0,0,0,.418-.723A.835.835,0,0,0-2119.353-70.633Zm-16.315-1.106-9.551-5.515,9.551-5.514,9.552,5.514Z" transform="translate(2151.712 84.566)" fill="#737d8c"/>
  <g id="Group_102" data-name="Group 102" transform="translate(38.115 7.129)">
    <path id="Path_451" data-name="Path 451" d="M-2077.786-57.817h-2.165v-.521a7.227,7.227,0,0,1-2.687.742c-2.566,0-3.789-1.343-3.789-5.213,0-3.629,1.3-5.253,4.17-5.253a17.336,17.336,0,0,1,2.286.26v-4.21h2.185Zm-2.185-2.226v-5.934a16.269,16.269,0,0,0-2.125-.2c-1.484,0-2.125,1.082-2.125,3.368,0,2.566.7,3.268,1.925,3.268A6.923,6.923,0,0,0-2079.971-60.042Z" transform="translate(2086.426 72.212)" fill="#484e58"/>
    <path id="Path_452" data-name="Path 452" d="M-2060.131-57.367a.863.863,0,0,0,.882.922l-.06,1.664a3.808,3.808,0,0,1-2.666-.742,8.847,8.847,0,0,1-3.228.742c-1.985,0-2.987-1.1-2.987-3.188,0-2.125,1.163-2.847,3.308-3.027l2.587-.221v-.722c0-1.1-.482-1.444-1.464-1.444-1.343,0-3.769.2-3.769.2l-.081-1.544a20.679,20.679,0,0,1,4.03-.521c2.446,0,3.448,1.022,3.448,3.308Zm-4.491-2.085c-.922.08-1.384.521-1.384,1.423s.381,1.464,1.223,1.464a9.516,9.516,0,0,0,2.487-.441v-2.667Z" transform="translate(2078.837 69.396)" fill="#484e58"/>
    <path id="Path_453" data-name="Path 453" d="M-2047.641-65.076v4.411c0,1.5.06,2.025,1.1,2.025.562,0,1.644-.06,1.644-.06l.1,1.744a14.937,14.937,0,0,1-2.045.261c-2.265,0-2.967-.842-2.967-3.729v-4.651h-1.283v-1.865h1.283v-2.907h2.165v2.907h2.767v1.865Z" transform="translate(2071.719 71.312)" fill="#484e58"/>
    <path id="Path_454" data-name="Path 454" d="M-2030.426-57.367a.863.863,0,0,0,.882.922l-.06,1.664a3.81,3.81,0,0,1-2.666-.742,8.851,8.851,0,0,1-3.229.742c-1.984,0-2.987-1.1-2.987-3.188,0-2.125,1.162-2.847,3.308-3.027l2.586-.221v-.722c0-1.1-.481-1.444-1.464-1.444-1.343,0-3.769.2-3.769.2l-.08-1.544a20.682,20.682,0,0,1,4.03-.521c2.446,0,3.448,1.022,3.448,3.308Zm-4.491-2.085c-.922.08-1.383.521-1.383,1.423s.381,1.464,1.223,1.464a9.507,9.507,0,0,0,2.486-.441v-2.667Z" transform="translate(2066.474 69.396)" fill="#484e58"/>
    <path id="Path_455" data-name="Path 455" d="M-2019.769-57.96v-14.4h1.5v4.932a8.478,8.478,0,0,1,3.088-.762c2.747,0,3.388,1.363,3.388,4.932v5.293h-1.5v-5.253c0-2.646-.3-3.629-2.146-3.629a8.246,8.246,0,0,0-2.827.6v8.28Z" transform="translate(2058.684 72.355)" fill="#484e58"/>
    <path id="Path_456" data-name="Path 456" d="M-2001.328-71.737h1.5v1.744h-1.5Zm0,4.01h1.5V-57.7h-1.5Z" transform="translate(2051.009 72.098)" fill="#484e58"/>
    <path id="Path_457" data-name="Path 457" d="M-1993.817-64.869l2.346,8.722h.742l2.426-8.722h1.544l-2.826,10.025h-3.008l-2.827-10.025Z" transform="translate(2048.551 69.239)" fill="#484e58"/>
    <path id="Path_458" data-name="Path 458" d="M-1970.513-56.29l.04,1.183a34.981,34.981,0,0,1-3.91.321c-2.988,0-3.969-1.744-3.969-5.152,0-3.809,1.643-5.273,4.19-5.273,2.666,0,4.029,1.4,4.029,4.692l-.08,1.143h-6.616c0,2.145.662,3.268,2.627,3.268C-1972.7-56.11-1970.513-56.29-1970.513-56.29Zm-1.123-4.29c0-2.486-.762-3.368-2.526-3.368-1.7,0-2.667.942-2.687,3.368Z" transform="translate(2041.447 69.382)" fill="#484e58"/>
  </g>
</svg>
