<svg id="Group_101" data-name="Group 101" xmlns="http://www.w3.org/2000/svg" width="129.907" height="32.011" viewBox="0 0 129.907 32.011">
  <g id="Group_85" data-name="Group 85" transform="translate(34.476 8.634)">
    <path id="Path_425" data-name="Path 425" d="M-2110.2-379.811h.674a.22.22,0,0,1,.218.218v13.809h-.674a.2.2,0,0,1-.218-.2Z" transform="translate(2110.196 380.465)" fill="#484e58"/>
    <path id="Path_426" data-name="Path 426" d="M-2097.423-370.257v7.211a.22.22,0,0,1-.218.218h-4.973a2.461,2.461,0,0,1-2.457-2.476v-1.03a2.466,2.466,0,0,1,2.457-2.5h4.082c.118,0,.2-.079.218-.218v-1.288a1.573,1.573,0,0,0-1.565-1.585h-4.14a.217.217,0,0,1-.2-.218v-.614h4.339A2.478,2.478,0,0,1-2097.423-370.257Zm-.891,6.558v-4.379a.247.247,0,0,1-.159.079h-4.141a1.572,1.572,0,0,0-1.565,1.584v1.15a1.556,1.556,0,0,0,1.565,1.565Z" transform="translate(2108.063 377.527)" fill="#484e58"/>
    <path id="Path_427" data-name="Path 427" d="M-2080.217-372.52v12.045a2.465,2.465,0,0,1-2.457,2.5h-4.952v-.614a.217.217,0,0,1,.2-.218h4.755a1.556,1.556,0,0,0,1.565-1.565v-2.734a.545.545,0,0,1-.534.278l-3.883.019a2.29,2.29,0,0,1-2.437-2.5v-7.41h.673a.2.2,0,0,1,.218.2v7.231a1.441,1.441,0,0,0,1.545,1.644h4.061a.355.355,0,0,0,.356-.356v-8.718h.674A.2.2,0,0,1-2080.217-372.52Z" transform="translate(2100.943 377.513)" fill="#484e58"/>
    <path id="Path_428" data-name="Path 428" d="M-2070.551-365.211v-5.131a2.272,2.272,0,0,1,2.4-2.378h3.131a2.272,2.272,0,0,1,2.4,2.378v2.694a.225.225,0,0,1-.218.238h-6.359a.544.544,0,0,1-.436-.238h-.02v2.417a1.556,1.556,0,0,0,1.565,1.565H-2063a.22.22,0,0,1,.219.218v.633h-5.31A2.313,2.313,0,0,1-2070.551-365.211Zm2.4-6.7a1.536,1.536,0,0,0-1.506,1.584v1.862c0,.119.08.2.218.218h5.924v-2.081a1.536,1.536,0,0,0-1.506-1.584Z" transform="translate(2093.697 377.513)" fill="#484e58"/>
    <path id="Path_429" data-name="Path 429" d="M-2051.941-372.719v.654s.4-.654,1.743-.654h2.259v.614a.2.2,0,0,1-.218.2h-2.437a1.341,1.341,0,0,0-1.346,1.426v7.667h-.892v-9.906Z" transform="translate(2086.322 377.513)" fill="#484e58"/>
    <path id="Path_430" data-name="Path 430" d="M-2041.836-368.776V-370.1a2.512,2.512,0,0,1,2.714-2.615h5.428v1.407a.22.22,0,0,1-.218.218h-5.211a.867.867,0,0,0-.991.971v.574a.253.253,0,0,0,.179.218l6.122,1.446a.659.659,0,0,1,.535.654v1.763a2.575,2.575,0,0,1-2.833,2.655h-5.606v-1.406a.22.22,0,0,1,.218-.218h5.389a1.1,1.1,0,0,0,1.229-1.03v-.931a.211.211,0,0,0-.178-.2l-6.221-1.526A.677.677,0,0,1-2041.836-368.776Z" transform="translate(2081.746 377.513)" fill="#484e58"/>
    <path id="Path_431" data-name="Path 431" d="M-2021.207-380.1v1.625h-1.506a.22.22,0,0,1-.218-.218v-1.625h1.506A.22.22,0,0,1-2021.207-380.1Zm0,4.418v9.707h-1.506a.22.22,0,0,1-.218-.218v-9.688h1.506A.2.2,0,0,1-2021.207-375.684Z" transform="translate(2073.877 380.677)" fill="#484e58"/>
    <path id="Path_432" data-name="Path 432" d="M-2016.176-368.776V-370.1a2.512,2.512,0,0,1,2.714-2.615h5.428v1.407a.22.22,0,0,1-.218.218h-5.21a.867.867,0,0,0-.991.971v.574a.253.253,0,0,0,.179.218l6.122,1.446a.659.659,0,0,1,.535.654v1.763a2.575,2.575,0,0,1-2.833,2.655h-5.606v-1.406a.22.22,0,0,1,.218-.218h5.389a1.1,1.1,0,0,0,1.228-1.03v-.931a.211.211,0,0,0-.178-.2l-6.221-1.526A.676.676,0,0,1-2016.176-368.776Z" transform="translate(2071.066 377.513)" fill="#484e58"/>
    <path id="Path_433" data-name="Path 433" d="M-1992.445-367.657v1.426h-2a2.9,2.9,0,0,1-2.893-2.892v-11.808h1.506a.22.22,0,0,1,.218.218v4.952a.618.618,0,0,1,.574-.357h2.1v1.427a.2.2,0,0,1-.218.2h-2.457v5.448a1.159,1.159,0,0,0,1.169,1.169h1.783A.22.22,0,0,1-1992.445-367.657Z" transform="translate(2063.226 380.931)" fill="#484e58"/>
    <path id="Path_434" data-name="Path 434" d="M-1985.9-365.706v-4.2a2.681,2.681,0,0,1,2.893-2.813h2.655a2.681,2.681,0,0,1,2.892,2.813v2.278c0,.337-.039.614-.515.614h-5.428a.948.948,0,0,1-.772-.376v1.763a1.158,1.158,0,0,0,1.169,1.169h4.913a.22.22,0,0,1,.218.218v1.426h-5.131A2.883,2.883,0,0,1-1985.9-365.706Zm2.893-5.389a1.081,1.081,0,0,0-1.169,1.169v1.07a.216.216,0,0,0,.2.218h4.616a.22.22,0,0,0,.218-.218v-1.07a1.017,1.017,0,0,0-1.15-1.169Z" transform="translate(2058.466 377.513)" fill="#484e58"/>
    <path id="Path_435" data-name="Path 435" d="M-1955.265-369.826v7.013h-1.506a.219.219,0,0,1-.218-.218v-6.894a1.171,1.171,0,0,0-1.169-1.169h-2.576a.671.671,0,0,1,.356.555v7.726h-1.506a.22.22,0,0,1-.218-.218v-7.845a.22.22,0,0,0-.218-.218h-2.991a.209.209,0,0,0-.2.178v7.885a.22.22,0,0,1-.218.218h-1.505v-8.618a1.285,1.285,0,0,1,1.287-1.288h7.786A2.883,2.883,0,0,1-1955.265-369.826Z" transform="translate(2050.696 377.513)" fill="#484e58"/>
  </g>
  <g id="Group_100" data-name="Group 100" transform="translate(0)">
    <g id="Group_86" data-name="Group 86" transform="translate(15.041 23.47)">
      <path id="Path_436" data-name="Path 436" d="M-2142.8-346.978a.657.657,0,0,0,.343-.1l11.663-7.095a.745.745,0,0,0,.251-.988.668.668,0,0,0-.938-.265l-11.663,7.095a.745.745,0,0,0-.252.988A.681.681,0,0,0-2142.8-346.978Z" transform="translate(2143.487 355.519)" fill="#484e58"/>
    </g>
    <g id="Group_87" data-name="Group 87" transform="translate(15.041 18.601)">
      <path id="Path_437" data-name="Path 437" d="M-2142.8-355.319a.657.657,0,0,0,.343-.1l11.663-7.094a.745.745,0,0,0,.251-.988.667.667,0,0,0-.938-.264l-11.663,7.094a.745.745,0,0,0-.252.988A.681.681,0,0,0-2142.8-355.319Z" transform="translate(2143.487 363.86)" fill="#484e58"/>
    </g>
    <g id="Group_88" data-name="Group 88" transform="translate(15.041 13.731)">
      <path id="Path_438" data-name="Path 438" d="M-2142.8-363.66a.657.657,0,0,0,.343-.1l11.663-7.095a.745.745,0,0,0,.251-.988.668.668,0,0,0-.938-.265l-11.663,7.095a.745.745,0,0,0-.252.988A.681.681,0,0,0-2142.8-363.66Z" transform="translate(2143.487 372.201)" fill="#484e58"/>
    </g>
    <g id="Group_89" data-name="Group 89" transform="translate(26.704 7.252)">
      <path id="Path_439" data-name="Path 439" d="M-2122.823-379.761a.706.706,0,0,0,.687-.723v-2.09a.706.706,0,0,0-.687-.723.706.706,0,0,0-.687.723v2.09A.706.706,0,0,0-2122.823-379.761Z" transform="translate(2123.509 383.298)" fill="#484e58"/>
    </g>
    <g id="Group_90" data-name="Group 90" transform="translate(22.816 4.759)">
      <path id="Path_440" data-name="Path 440" d="M-2129.482-379.5a.706.706,0,0,0,.687-.723v-6.623a.706.706,0,0,0-.687-.723.705.705,0,0,0-.686.723v6.623A.705.705,0,0,0-2129.482-379.5Z" transform="translate(2130.168 387.568)" fill="#484e58"/>
    </g>
    <g id="Group_91" data-name="Group 91" transform="translate(18.929 2.397)">
      <path id="Path_441" data-name="Path 441" d="M-2136.14-378.559a.706.706,0,0,0,.687-.723v-11.609a.706.706,0,0,0-.687-.723.705.705,0,0,0-.687.723v11.609A.706.706,0,0,0-2136.14-378.559Z" transform="translate(2136.827 391.614)" fill="#484e58"/>
    </g>
    <g id="Group_92" data-name="Group 92" transform="translate(15.041 0)">
      <path id="Path_442" data-name="Path 442" d="M-2142.8-377.679a.705.705,0,0,0,.686-.723V-395a.705.705,0,0,0-.686-.723.705.705,0,0,0-.686.723V-378.4A.705.705,0,0,0-2142.8-377.679Z" transform="translate(2143.486 395.72)" fill="#484e58"/>
    </g>
    <g id="Group_93" data-name="Group 93" transform="translate(0)">
      <path id="Path_443" data-name="Path 443" d="M-2168.562-387.179a.657.657,0,0,0,.343-.1l11.663-7.095a.744.744,0,0,0,.251-.988.668.668,0,0,0-.937-.264l-11.663,7.095a.744.744,0,0,0-.251.988A.679.679,0,0,0-2168.562-387.179Z" transform="translate(2169.249 395.72)" fill="#484e58"/>
    </g>
    <g id="Group_94" data-name="Group 94" transform="translate(0 4.87)">
      <path id="Path_444" data-name="Path 444" d="M-2168.562-378.838a.657.657,0,0,0,.343-.1l11.663-7.094a.745.745,0,0,0,.251-.988.668.668,0,0,0-.937-.264l-11.663,7.094a.745.745,0,0,0-.251.988A.679.679,0,0,0-2168.562-378.838Z" transform="translate(2169.249 387.379)" fill="#484e58"/>
    </g>
    <g id="Group_95" data-name="Group 95" transform="translate(0 9.739)">
      <path id="Path_445" data-name="Path 445" d="M-2168.562-370.5a.657.657,0,0,0,.343-.1l11.663-7.094a.745.745,0,0,0,.251-.988.667.667,0,0,0-.937-.264l-11.663,7.094a.745.745,0,0,0-.251.988A.679.679,0,0,0-2168.562-370.5Z" transform="translate(2169.249 379.039)" fill="#484e58"/>
    </g>
    <g id="Group_96" data-name="Group 96" transform="translate(0 21.222)">
      <path id="Path_446" data-name="Path 446" d="M-2168.562-355.833a.706.706,0,0,0,.687-.723v-2.089a.706.706,0,0,0-.687-.723.706.706,0,0,0-.687.723v2.089A.705.705,0,0,0-2168.562-355.833Z" transform="translate(2169.249 359.369)" fill="#484e58"/>
    </g>
    <g id="Group_97" data-name="Group 97" transform="translate(3.888 19.182)">
      <path id="Path_447" data-name="Path 447" d="M-2161.9-354.794a.706.706,0,0,0,.687-.723v-6.623a.706.706,0,0,0-.687-.723.706.706,0,0,0-.686.723v6.623A.706.706,0,0,0-2161.9-354.794Z" transform="translate(2162.59 362.863)" fill="#484e58"/>
    </g>
    <g id="Group_98" data-name="Group 98" transform="translate(7.775 16.559)">
      <path id="Path_448" data-name="Path 448" d="M-2155.244-354.3a.706.706,0,0,0,.687-.723v-11.609a.706.706,0,0,0-.687-.723.706.706,0,0,0-.687.723v11.609A.706.706,0,0,0-2155.244-354.3Z" transform="translate(2155.931 367.357)" fill="#484e58"/>
    </g>
    <g id="Group_99" data-name="Group 99" transform="translate(11.663 13.97)">
      <path id="Path_449" data-name="Path 449" d="M-2148.585-353.75a.706.706,0,0,0,.687-.723v-16.595a.706.706,0,0,0-.687-.723.706.706,0,0,0-.687.723v16.595A.706.706,0,0,0-2148.585-353.75Z" transform="translate(2149.272 371.792)" fill="#484e58"/>
    </g>
  </g>
</svg>
