<svg id="Group_109" data-name="Group 109" xmlns="http://www.w3.org/2000/svg" width="131.388" height="30.315" viewBox="0 0 131.388 30.315">
  <g id="Group_107" data-name="Group 107" transform="translate(0)">
    <g id="Group_104" data-name="Group 104" transform="translate(8.991)">
      <path id="Path_459" data-name="Path 459" d="M-2145.058-524.941h-1.435l-9.892-14.674v-.967l9.892-14.674h1.435l9.892,14.674v.967Zm-9.566-15.157,8.849,13.125,8.848-13.125-8.848-13.125Z" transform="translate(2156.386 555.256)" fill="#484e58"/>
    </g>
    <g id="Group_105" data-name="Group 105">
      <path id="Path_460" data-name="Path 460" d="M-2160.458-524.941h-1.435l-9.892-14.674v-.967l9.892-14.674h1.435l9.892,14.674v.967Zm-9.566-15.157,8.848,13.125,8.848-13.125-8.848-13.125Z" transform="translate(2171.786 555.256)" fill="#484e58"/>
    </g>
    <g id="Group_106" data-name="Group 106" transform="translate(4.495)">
      <path id="Path_461" data-name="Path 461" d="M-2152.758-524.941h-1.435l-9.892-14.674v-.967l9.892-14.674h1.435l9.892,14.674v.967Zm-9.566-15.157,8.848,13.125,8.849-13.125-8.849-13.125Z" transform="translate(2164.086 555.256)" fill="#484e58"/>
    </g>
  </g>
  <g id="Group_108" data-name="Group 108" transform="translate(38.43 8.883)">
    <path id="Path_462" data-name="Path 462" d="M-2105.961-527.741v-11.933h7.442c4.791,0,7.654,2.182,7.654,5.966s-2.864,5.967-7.654,5.967Zm1.859-1.54h5.582a6.917,6.917,0,0,0,4.106-1.133,3.843,3.843,0,0,0,1.583-3.294,3.777,3.777,0,0,0-1.583-3.272,6.913,6.913,0,0,0-4.106-1.133h-5.582Z" transform="translate(2105.961 539.888)" fill="#484e58"/>
    <path id="Path_463" data-name="Path 463" d="M-2057.112-527.741h-2.138l-3.187-4.426h-5.324v4.426h-1.882v-11.933h7.933a4.647,4.647,0,0,1,3.208,1.069,3.41,3.41,0,0,1,1.218,2.694c0,1.775-1.175,3.037-3.143,3.529Zm-10.649-10.372v4.4h5.666c1.926,0,2.887-.727,2.887-2.2s-.962-2.2-2.887-2.2Z" transform="translate(2090.846 539.888)" fill="#484e58"/>
    <path id="Path_464" data-name="Path 464" d="M-2036.556-529.349a5.279,5.279,0,0,1-2.374-4.512,5.268,5.268,0,0,1,2.374-4.49,10.443,10.443,0,0,1,6.179-1.69,10.445,10.445,0,0,1,6.18,1.69,5.207,5.207,0,0,1,2.417,4.49,5.28,5.28,0,0,1-2.373,4.512,10.6,10.6,0,0,1-6.223,1.669A10.6,10.6,0,0,1-2036.556-529.349Zm10.928-7.891a8.513,8.513,0,0,0-4.749-1.219,8.5,8.5,0,0,0-4.746,1.219,3.865,3.865,0,0,0-1.84,3.379,3.875,3.875,0,0,0,1.84,3.4,8.682,8.682,0,0,0,4.746,1.2,8.707,8.707,0,0,0,4.769-1.2,3.849,3.849,0,0,0,1.86-3.4A3.816,3.816,0,0,0-2025.629-537.239Z" transform="translate(2078.064 540.041)" fill="#484e58"/>
    <path id="Path_465" data-name="Path 465" d="M-1995.713-527.527l-7.74-12.147h2.159l5.581,9.238,5.6-9.238h2.138Z" transform="translate(2063.299 539.888)" fill="#484e58"/>
    <path id="Path_466" data-name="Path 466" d="M-1955.668-527.741h-2.138l-3.187-4.426h-5.324v4.426h-1.882v-11.933h7.933a4.648,4.648,0,0,1,3.208,1.069,3.409,3.409,0,0,1,1.218,2.694c0,1.775-1.175,3.037-3.143,3.529Zm-10.649-10.372v4.4h5.666c1.924,0,2.887-.727,2.887-2.2s-.963-2.2-2.887-2.2Z" transform="translate(2048.627 539.888)" fill="#484e58"/>
  </g>
</svg>
