<svg id="Group_77" data-name="Group 77" xmlns="http://www.w3.org/2000/svg" width="141.012" height="26.478" viewBox="0 0 141.012 26.478">
  <g id="Group_74" data-name="Group 74">
    <path id="Path_375" data-name="Path 375" d="M-1396.044-700.185h-4.781l2.391,7.852Z" transform="translate(1413.722 700.185)" fill="#484e58"/>
    <path id="Path_376" data-name="Path 376" d="M-1422.915-663.247l2.391,4.141,5.6-6Z" transform="translate(1422.915 685.584)" fill="#484e58"/>
    <g id="Group_73" data-name="Group 73">
      <path id="Path_377" data-name="Path 377" d="M-1407.628-692.333l-2.391-7.852-4,12.576-8.9,9.761,8-1.856,5.111-5.468Z" transform="translate(1422.915 700.185)" fill="#737d8c"/>
      <path id="Path_378" data-name="Path 378" d="M-1405.924-668l-7.291,1.692-5.6,6,12.9-2.827,12.9,2.827-5.6-6Z" transform="translate(1421.211 686.791)" fill="#737d8c"/>
      <path id="Path_379" data-name="Path 379" d="M-1389.44-679.7l8,1.856-8.9-9.761-4-12.576-2.391,7.852,2.18,7.161Z" transform="translate(1412.018 700.185)" fill="#737d8c"/>
    </g>
    <path id="Path_380" data-name="Path 380" d="M-1384.242-665.1l5.6,6,2.391-4.141Z" transform="translate(1406.82 685.584)" fill="#484e58"/>
  </g>
  <g id="Group_75" data-name="Group 75" transform="translate(34.29 1.962)">
    <path id="Path_381" data-name="Path 381" d="M-1364.181-694.924V-696.5h7.9v1.573h-2.868v7.809h-2.161v-7.809Z" transform="translate(1364.181 696.688)" fill="#484e58"/>
    <path id="Path_382" data-name="Path 382" d="M-1345.66-691.277v4.161h-2.161V-696.5h2.161v3.647h3.574V-696.5h2.161v9.382h-2.161v-4.161Z" transform="translate(1357.372 696.688)" fill="#484e58"/>
    <path id="Path_383" data-name="Path 383" d="M-1329.941-687.115V-696.5h2.162v9.382Z" transform="translate(1349.931 696.688)" fill="#484e58"/>
    <path id="Path_384" data-name="Path 384" d="M-1321.9-687.115V-696.5h2.192l3.823,6.117V-696.5h2.162v9.382h-2.191l-3.823-6.1v6.1Z" transform="translate(1346.583 696.688)" fill="#484e58"/>
    <path id="Path_385" data-name="Path 385" d="M-1303.615-687.115V-696.5h2.162v4.5l3.706-4.5h2.706l-3.765,4.265,3.779,5.117h-2.544l-2.558-3.588-1.324,1.485v2.1Z" transform="translate(1338.974 696.688)" fill="#484e58"/>
    <path id="Path_386" data-name="Path 386" d="M-1276.737-691.928a3.124,3.124,0,0,0,.955,2.449,3.431,3.431,0,0,0,2.383.86,2.772,2.772,0,0,0,.882-.147v-3.485h1.971v4.515a5.777,5.777,0,0,1-3.073.706,5.948,5.948,0,0,1-3.868-1.25,4.415,4.415,0,0,1-1.544-3.647,4.466,4.466,0,0,1,1.507-3.647,5.759,5.759,0,0,1,3.8-1.249,6.03,6.03,0,0,1,2.868.588l-.265,1.544a4.688,4.688,0,0,0-2.4-.559,3.214,3.214,0,0,0-2.294.875A3.205,3.205,0,0,0-1276.737-691.928Z" transform="translate(1328.743 696.824)" fill="#484e58"/>
    <path id="Path_387" data-name="Path 387" d="M-1260.584-687.115V-696.5h2.147v7.809h4.294v1.573Z" transform="translate(1321.065 696.688)" fill="#484e58"/>
    <path id="Path_388" data-name="Path 388" d="M-1248-691.928a5.453,5.453,0,0,1,.411-2.176,3.963,3.963,0,0,1,1.125-1.537,5.081,5.081,0,0,1,1.618-.882,6.124,6.124,0,0,1,1.948-.3,6.129,6.129,0,0,1,1.949.3,5.18,5.18,0,0,1,1.625.882,3.941,3.941,0,0,1,1.132,1.537,5.458,5.458,0,0,1,.411,2.176,4.535,4.535,0,0,1-1.463,3.64,5.41,5.41,0,0,1-3.654,1.257,5.391,5.391,0,0,1-3.64-1.257A4.536,4.536,0,0,1-1248-691.928Zm7.926,0a3.464,3.464,0,0,0-.787-2.4,2.611,2.611,0,0,0-2.036-.875,2.6,2.6,0,0,0-2.022.875,3.463,3.463,0,0,0-.786,2.4,3.439,3.439,0,0,0,.786,2.39,2.594,2.594,0,0,0,2.022.875,2.61,2.61,0,0,0,2.036-.875A3.441,3.441,0,0,0-1240.078-691.928Z" transform="translate(1315.83 696.824)" fill="#484e58"/>
    <path id="Path_389" data-name="Path 389" d="M-1227.156-696.5h4.059a3.937,3.937,0,0,1,2.566.7,2.263,2.263,0,0,1,.831,1.816,1.914,1.914,0,0,1-1.544,2,2.173,2.173,0,0,1,1.838,2.235,2.377,2.377,0,0,1-.853,1.911,4.044,4.044,0,0,1-2.646.72h-4.25Zm3.765,1.573h-1.6v2.265h1.6q1.484,0,1.485-1.132T-1223.391-694.924Zm.191,3.75h-1.794v2.485h1.794q1.588,0,1.588-1.235T-1223.2-691.174Z" transform="translate(1307.153 696.688)" fill="#484e58"/>
    <path id="Path_390" data-name="Path 390" d="M-1204.4-687.115l-.824-2.176h-3.868l-.823,2.176h-2.206l3.573-9.382h2.779l3.574,9.382Zm-2.765-7.382-1.412,3.72h2.824Z" transform="translate(1300.896 696.688)" fill="#484e58"/>
    <path id="Path_391" data-name="Path 391" d="M-1192.412-687.115V-696.5h2.147v7.809h4.294v1.573Z" transform="translate(1292.693 696.688)" fill="#484e58"/>
  </g>
  <g id="Group_76" data-name="Group 76" transform="translate(35.681 15.56)">
    <path id="Path_392" data-name="Path 392" d="M-1361.8-667.13v-6.188h1.416v5.15h2.832v1.038Z" transform="translate(1361.798 673.444)" fill="#737d8c"/>
    <path id="Path_393" data-name="Path 393" d="M-1351.332-670.3a3.6,3.6,0,0,1,.272-1.435,2.6,2.6,0,0,1,.742-1.013,3.355,3.355,0,0,1,1.067-.583,4.072,4.072,0,0,1,1.285-.2,4.072,4.072,0,0,1,1.285.2,3.42,3.42,0,0,1,1.072.583,2.577,2.577,0,0,1,.747,1.013,3.6,3.6,0,0,1,.272,1.435,2.993,2.993,0,0,1-.966,2.4,3.571,3.571,0,0,1-2.41.829,3.556,3.556,0,0,1-2.4-.829A2.992,2.992,0,0,1-1351.332-670.3Zm5.228,0a2.288,2.288,0,0,0-.519-1.586,1.723,1.723,0,0,0-1.343-.577,1.711,1.711,0,0,0-1.333.577,2.285,2.285,0,0,0-.519,1.586,2.268,2.268,0,0,0,.519,1.576,1.71,1.71,0,0,0,1.333.577,1.722,1.722,0,0,0,1.343-.577A2.271,2.271,0,0,0-1346.1-670.3Z" transform="translate(1357.442 673.533)" fill="#737d8c"/>
    <path id="Path_394" data-name="Path 394" d="M-1334.786-670.3a2.06,2.06,0,0,0,.63,1.615,2.257,2.257,0,0,0,1.571.568,1.828,1.828,0,0,0,.582-.1v-2.3h1.3v2.977a3.8,3.8,0,0,1-2.027.466,3.924,3.924,0,0,1-2.551-.824,2.912,2.912,0,0,1-1.019-2.405,2.946,2.946,0,0,1,.994-2.405,3.8,3.8,0,0,1,2.507-.824,3.971,3.971,0,0,1,1.892.388l-.174,1.018a3.092,3.092,0,0,0-1.581-.369,2.121,2.121,0,0,0-1.513.577A2.115,2.115,0,0,0-1334.786-670.3Z" transform="translate(1351.186 673.533)" fill="#737d8c"/>
    <path id="Path_395" data-name="Path 395" d="M-1322.012-667.13v-6.188h1.426v6.188Z" transform="translate(1345.24 673.444)" fill="#737d8c"/>
    <path id="Path_396" data-name="Path 396" d="M-1315.218-667.558l.184-1.018a3.93,3.93,0,0,0,1.833.407,2.062,2.062,0,0,0,.907-.174.56.56,0,0,0,.354-.524.564.564,0,0,0-.325-.484,3.7,3.7,0,0,0-.786-.339c-.307-.1-.616-.21-.926-.34a1.963,1.963,0,0,1-.791-.6,1.566,1.566,0,0,1-.324-1.009,1.553,1.553,0,0,1,.684-1.387,2.967,2.967,0,0,1,1.682-.456,4.15,4.15,0,0,1,2.046.465l-.184,1.009a3.455,3.455,0,0,0-1.7-.407,1.574,1.574,0,0,0-.776.169.544.544,0,0,0-.3.5.553.553,0,0,0,.233.446,1.676,1.676,0,0,0,.587.286q.355.1.761.257a7.291,7.291,0,0,1,.761.339,1.529,1.529,0,0,1,.587.549,1.574,1.574,0,0,1,.233.867,1.585,1.585,0,0,1-.752,1.436,3.388,3.388,0,0,1-1.847.475A4.65,4.65,0,0,1-1315.218-667.558Z" transform="translate(1342.412 673.513)" fill="#737d8c"/>
    <path id="Path_397" data-name="Path 397" d="M-1303.756-672.28v-1.038h5.208v1.038h-1.891v5.15h-1.426v-5.15Z" transform="translate(1337.642 673.444)" fill="#737d8c"/>
    <path id="Path_398" data-name="Path 398" d="M-1290.732-667.13v-6.188h1.426v6.188Z" transform="translate(1332.221 673.444)" fill="#737d8c"/>
    <path id="Path_399" data-name="Path 399" d="M-1282.509-670.3a2.141,2.141,0,0,0,.587,1.62,2.079,2.079,0,0,0,1.5.562,2.724,2.724,0,0,0,.781-.112,1.824,1.824,0,0,0,.567-.258l.174,1.019a3.06,3.06,0,0,1-1.677.4,3.664,3.664,0,0,1-2.469-.834,2.981,2.981,0,0,1-.975-2.4,3.271,3.271,0,0,1,.476-1.794,2.821,2.821,0,0,1,1.237-1.091,4.124,4.124,0,0,1,1.721-.344,3.363,3.363,0,0,1,1.707.388l-.184,1.018a2.045,2.045,0,0,0-.611-.262,2.883,2.883,0,0,0-.766-.107,2.028,2.028,0,0,0-1.484.573A2.171,2.171,0,0,0-1282.509-670.3Z" transform="translate(1329.429 673.533)" fill="#737d8c"/>
    <path id="Path_400" data-name="Path 400" d="M-1271.4-667.558l.184-1.018a3.93,3.93,0,0,0,1.833.407,2.062,2.062,0,0,0,.907-.174.559.559,0,0,0,.354-.524.564.564,0,0,0-.325-.484,3.691,3.691,0,0,0-.785-.339q-.461-.146-.926-.34a1.963,1.963,0,0,1-.791-.6,1.566,1.566,0,0,1-.324-1.009,1.553,1.553,0,0,1,.683-1.387,2.969,2.969,0,0,1,1.683-.456,4.151,4.151,0,0,1,2.046.465l-.184,1.009a3.454,3.454,0,0,0-1.7-.407,1.572,1.572,0,0,0-.776.169.543.543,0,0,0-.3.5.553.553,0,0,0,.232.446,1.681,1.681,0,0,0,.587.286q.355.1.761.257a7.312,7.312,0,0,1,.761.339,1.526,1.526,0,0,1,.587.549,1.573,1.573,0,0,1,.233.867,1.586,1.586,0,0,1-.751,1.436,3.39,3.39,0,0,1-1.848.475A4.652,4.652,0,0,1-1271.4-667.558Z" transform="translate(1324.174 673.513)" fill="#737d8c"/>
  </g>
</svg>
