<svg id="Group_37" data-name="Group 37" xmlns="http://www.w3.org/2000/svg" width="98.646" height="47.65" viewBox="0 0 98.646 47.65">
  <g id="Group_34" data-name="Group 34">
    <g id="Group_33" data-name="Group 33">
      <rect id="Rectangle_6" data-name="Rectangle 6" width="2.508" height="2.508" transform="translate(8.778)" fill="#737d8c"/>
      <rect id="Rectangle_7" data-name="Rectangle 7" width="2.508" height="2.508" transform="translate(11.286 2.508)" fill="#737d8c"/>
      <path id="Path_131" data-name="Path 131" d="M-1739.705-556.5V-559h-2.508v-2.508h-2.508V-559h-10.032v2.508h13.793v2.508h-16.3v2.508h15.048v2.508h2.508v-2.508h1.254V-556.5Z" transform="translate(1758.514 566.527)" fill="#737d8c"/>
      <path id="Path_132" data-name="Path 132" d="M-1742.933-540.033h-10.032v2.508h7.524v2.508h2.508v-2.508h2.508v-2.508h-2.508Z" transform="translate(1756.727 557.588)" fill="#737d8c"/>
      <rect id="Rectangle_8" data-name="Rectangle 8" width="2.508" height="2.508" transform="translate(8.778 22.571)" fill="#737d8c"/>
      <rect id="Rectangle_9" data-name="Rectangle 9" width="2.508" height="2.508" transform="translate(8.778 45.142)" fill="#737d8c"/>
      <rect id="Rectangle_10" data-name="Rectangle 10" width="2.508" height="2.508" transform="translate(6.27 42.635)" fill="#737d8c"/>
      <path id="Path_133" data-name="Path 133" d="M-1750.457-500.651v-2.508h10.032v-2.508h-12.54v2.508h0v2.508Z" transform="translate(1756.727 543.286)" fill="#737d8c"/>
      <path id="Path_134" data-name="Path 134" d="M-1752.965-520.342h12.54v-2.508h-12.54Z" transform="translate(1756.727 550.437)" fill="#737d8c"/>
      <path id="Path_135" data-name="Path 135" d="M-1758.154-516.046h-1.254v5.016h1.254v2.508h2.508v-2.508h-1.254v-2.508h16.3v-2.508h-15.047v-2.508h-2.508Z" transform="translate(1759.408 548.649)" fill="#737d8c"/>
      <rect id="Rectangle_11" data-name="Rectangle 11" width="2.508" height="2.508" transform="translate(6.27 25.079)" fill="#737d8c"/>
    </g>
  </g>
  <g id="Group_36" data-name="Group 36" transform="translate(27.014 16.454)">
    <rect id="Rectangle_12" data-name="Rectangle 12" width="2.411" height="2.411" transform="translate(52.414)" fill="#737d8c"/>
    <rect id="Rectangle_13" data-name="Rectangle 13" width="2.411" height="2.411" transform="translate(10.081)" fill="#737d8c"/>
    <g id="Group_35" data-name="Group 35" transform="translate(0 0.192)">
      <path id="Path_136" data-name="Path 136" d="M-1709.153-528.157a14.883,14.883,0,0,1-3.511-.454c-.4-.1-.472-.21-.472-.471v-12.159a.35.35,0,0,1,.349-.349h1.607a.351.351,0,0,1,.35.349v3.092a13.168,13.168,0,0,1,1.677-.123c2.813,0,4.175,1.66,4.175,4.385v1.345C-1704.978-529.817-1706.34-528.157-1709.153-528.157Zm1.869-5.73c0-1.433-.367-2.5-1.869-2.5a14.644,14.644,0,0,0-1.677.122v6.1a10.126,10.126,0,0,0,1.677.123c1.5,0,1.869-1.066,1.869-2.5Z" transform="translate(1713.136 541.591)" fill="#484e58"/>
      <path id="Path_137" data-name="Path 137" d="M-1693.822-525.844h-1.607a.366.366,0,0,1-.35-.367v-9.137a.35.35,0,0,1,.35-.349h1.607a.35.35,0,0,1,.349.349v9.137A.366.366,0,0,1-1693.822-525.844Z" transform="translate(1705.912 539.138)" fill="#484e58"/>
      <path id="Path_138" data-name="Path 138" d="M-1683.238-527.3a7.211,7.211,0,0,1-1.188.122c-1.974,0-2.778-.437-2.778-2.777v-5.485l-1.642-.245a.375.375,0,0,1-.349-.349v-.786a.35.35,0,0,1,.349-.349h1.642V-538.6a.374.374,0,0,1,.349-.349l1.625-.28h.07a.252.252,0,0,1,.28.262v1.8h1.572a.35.35,0,0,1,.349.349v1.031a.35.35,0,0,1-.349.349h-1.572v5.485c0,.873.052.978.682.978h.926c.227,0,.367.087.367.262v1.1C-1682.906-527.435-1683.011-527.331-1683.238-527.3Z" transform="translate(1703.172 540.607)" fill="#484e58"/>
      <path id="Path_139" data-name="Path 139" d="M-1667.593-534.106l-.577.227a2.221,2.221,0,0,1,.437,1.4v.123c0,2.183-1.5,3.179-4.14,3.179a5.244,5.244,0,0,1-1.9-.3.557.557,0,0,0-.3.454c0,.35.192.489.594.577l2.062.489c2.375.559,3.913.925,3.913,2.795v.122c0,1.782-1.31,2.743-4.28,2.743-2.83,0-4.332-1.066-4.332-2.9v-.157a2.625,2.625,0,0,1,.891-1.922,2.028,2.028,0,0,1-.786-1.607v-.018a1.706,1.706,0,0,1,.7-1.415,2.7,2.7,0,0,1-.716-2.044v-.123c0-1.747,1.136-3.214,4.158-3.214h4.087a.469.469,0,0,1,.472.472v.733C-1667.314-534.229-1667.383-534.194-1667.593-534.106Zm-2.219,8.944c0-.384-.227-.611-2.061-1.048l-1.555-.367a1.729,1.729,0,0,0-.437,1.223v.157c0,.716.437,1.153,2.079,1.153,1.677,0,1.974-.367,1.974-1Zm-.192-7.285c0-.838-.367-1.485-1.869-1.485-1.485,0-1.887.664-1.887,1.485v.14c0,.646.262,1.38,1.887,1.38,1.45,0,1.869-.507,1.869-1.38Z" transform="translate(1697.73 539.138)" fill="#484e58"/>
      <path id="Path_140" data-name="Path 140" d="M-1650.76-530.054h-5.7V-530a1.97,1.97,0,0,0,2.1,2.219c1.275,0,2.48-.1,3.214-.175h.052c.175,0,.314.088.314.262v1.153c0,.28-.052.4-.367.454a15.543,15.543,0,0,1-3.389.3,4.02,4.02,0,0,1-4.227-4.384v-1.293c0-2.725,1.52-4.438,4.192-4.438,2.69,0,4.158,1.834,4.158,4.438v.978C-1650.41-530.211-1650.515-530.054-1650.76-530.054Zm-1.974-1.712c0-1.363-.751-2.149-1.834-2.149a1.885,1.885,0,0,0-1.869,2.149v.07h3.7Z" transform="translate(1690.505 539.225)" fill="#484e58"/>
      <path id="Path_141" data-name="Path 141" d="M-1633.352-525.931h-1.607a.366.366,0,0,1-.35-.367v-5.7c0-1.52-.139-1.956-1.485-1.956a4.446,4.446,0,0,0-1.974.629v7.023a.366.366,0,0,1-.349.367h-1.607a.366.366,0,0,1-.349-.367v-9.137a.35.35,0,0,1,.349-.349h1.519a.35.35,0,0,1,.35.349v.367a4.529,4.529,0,0,1,2.83-.839c2.516,0,3.022,1.695,3.022,3.913v5.7A.366.366,0,0,1-1633.352-525.931Z" transform="translate(1683.145 539.225)" fill="#484e58"/>
      <path id="Path_142" data-name="Path 142" d="M-1621.312-525.844h-1.607a.365.365,0,0,1-.349-.367v-9.137a.35.35,0,0,1,.349-.349h1.607a.351.351,0,0,1,.35.349v9.137A.366.366,0,0,1-1621.312-525.844Z" transform="translate(1675.734 539.138)" fill="#484e58"/>
      <path id="Path_143" data-name="Path 143" d="M-1609.7-526.019a9.569,9.569,0,0,1-2.254.227c-2.271,0-3.983-1.4-3.983-4.245v-1.624c0-2.848,1.712-4.246,3.983-4.246a9.6,9.6,0,0,1,2.254.227c.3.07.367.175.367.454v1.135c0,.175-.14.262-.315.262h-.052a14.991,14.991,0,0,0-2.254-.122c-.821,0-1.677.472-1.677,2.289v1.624c0,1.817.856,2.289,1.677,2.289a15.066,15.066,0,0,0,2.254-.122h.052c.175,0,.315.087.315.262v1.136C-1609.333-526.193-1609.4-526.088-1609.7-526.019Z" transform="translate(1672.683 539.225)" fill="#484e58"/>
      <path id="Path_144" data-name="Path 144" d="M-1598.834-525.791a14.45,14.45,0,0,1-3.127-.349.4.4,0,0,1-.332-.4v-1.048a.291.291,0,0,1,.3-.28h.07c.839.1,2.411.192,2.935.192,1.083,0,1.24-.367,1.24-.839,0-.332-.209-.541-.768-.891l-2.394-1.467a2.879,2.879,0,0,1-1.467-2.411c0-1.747,1.1-2.621,3.319-2.621a12.912,12.912,0,0,1,3.109.35.381.381,0,0,1,.315.4v1.013c0,.21-.105.332-.28.332h-.07a25.678,25.678,0,0,0-2.882-.21c-.839,0-1.205.192-1.205.734,0,.279.261.454.7.716l2.289,1.4a2.805,2.805,0,0,1,1.677,2.655C-1595.41-527-1596.545-525.791-1598.834-525.791Z" transform="translate(1667.041 539.225)" fill="#484e58"/>
    </g>
  </g>
</svg>
