<svg id="Group_56" data-name="Group 56" xmlns="http://www.w3.org/2000/svg" width="108.754" height="35.432" viewBox="0 0 108.754 35.432">
  <g id="Group_55" data-name="Group 55" transform="translate(42.749 5.298)">
    <path id="Path_317" data-name="Path 317" d="M-1316.629-230.523v3.557h3.456v2.667h-3.481v5.412a1.555,1.555,0,0,0,1.626,1.778,3.536,3.536,0,0,0,1.5-.381l.864,2.642a6.932,6.932,0,0,1-2.566.534c-2.719.1-4.5-1.448-4.5-4.573V-224.3h-2.337v-2.667h2.337v-3.227Z" transform="translate(1322.065 232.225)" fill="#484e58"/>
    <path id="Path_318" data-name="Path 318" d="M-1290.842-218.381a6.253,6.253,0,0,1-6.529,6.529,6.232,6.232,0,0,1-6.5-6.529,6.269,6.269,0,0,1,6.479-6.529A6.332,6.332,0,0,1-1290.842-218.381Zm-9.934,0a3.392,3.392,0,0,0,3.4,3.684,3.392,3.392,0,0,0,3.4-3.684,3.537,3.537,0,0,0-3.4-3.709A3.441,3.441,0,0,0-1300.776-218.381Z" transform="translate(1314.495 229.889)" fill="#484e58"/>
    <path id="Path_319" data-name="Path 319" d="M-1274.927-233.439v10.264l4.218-5.03H-1267v.177l-5.107,5.717,5.818,6.4v.228h-3.735l-4.9-5.665v5.665h-3.1v-17.758Z" transform="translate(1303.737 233.439)" fill="#484e58"/>
    <path id="Path_320" data-name="Path 320" d="M-1253.24-217.379c.2,1.55,1.55,2.668,3.734,2.668a5.171,5.171,0,0,0,3.354-1.169l1.981,1.956a7.693,7.693,0,0,1-5.386,2.032c-4.319,0-6.885-2.667-6.885-6.682a6.268,6.268,0,0,1,6.657-6.555c4.192,0,6.808,2.592,6.325,7.748Zm6.809-2.565c-.2-1.627-1.473-2.439-3.251-2.439a3.373,3.373,0,0,0-3.506,2.439Z" transform="translate(1294.753 229.98)" fill="#484e58"/>
    <path id="Path_321" data-name="Path 321" d="M-1220.944-212.094v-6.554c0-1.906-1.042-3.353-3.023-3.353a3.3,3.3,0,0,0-3.2,3.506v6.4h-3.074v-12.55h2.77l.2,1.7a5.645,5.645,0,0,1,4.115-1.88c2.947,0,5.31,2.21,5.31,6.148v6.58Z" transform="translate(1283.85 229.853)" fill="#484e58"/>
  </g>
  <path id="Path_322" data-name="Path 322" d="M-1358.485-221.789a31.316,31.316,0,0,0-7.819-12.132c-8.12-8.12-18-10.958-22.5-6.461l-4.352,4.351c-4.5,4.5-1.659,14.381,6.461,22.5a34.629,34.629,0,0,0,8.447,6.28,1.506,1.506,0,0,0,.691.168,1.513,1.513,0,0,0,1.346-.82,1.512,1.512,0,0,0-.652-2.037,31.56,31.56,0,0,1-7.693-5.73c-7.383-7.383-9.3-15.384-6.461-18.225l.089-.089a16.061,16.061,0,0,0,.765,3.969,31.317,31.317,0,0,0,7.82,12.132,31.32,31.32,0,0,0,12.132,7.82,15.38,15.38,0,0,0,4.621.785,7.864,7.864,0,0,0,5.749-2.144C-1357.568-213.7-1357.085-217.378-1358.485-221.789Zm-3.5,8.231c-1.416,1.417-4.083,1.641-7.317.615a28.281,28.281,0,0,1-10.907-7.076,28.271,28.271,0,0,1-7.076-10.908c-1.026-3.233-.8-5.9.615-7.317a5.005,5.005,0,0,1,3.638-1.251,12.333,12.333,0,0,1,3.679.636,28.268,28.268,0,0,1,10.908,7.076,28.275,28.275,0,0,1,7.076,10.907C-1360.341-217.641-1360.565-214.975-1361.982-213.558Z" transform="translate(1395.288 242.513)" fill="#737d8c"/>
</svg>
