<svg id="Group_32" data-name="Group 32" xmlns="http://www.w3.org/2000/svg" width="129.207" height="30.041" viewBox="0 0 129.207 30.041">
  <g id="Group_31" data-name="Group 31" transform="translate(32.025 8.705)">
    <path id="Path_116" data-name="Path 116" d="M-1730.727-381.568h1.412v3.282a4.979,4.979,0,0,1,1.946-.381q3.8,0,3.8,3.847,0,4.168-3.992,4.167a14.281,14.281,0,0,1-3.168-.328Zm1.412,9.518a5.6,5.6,0,0,0,1.687.221q2.671,0,2.672-3.046,0-2.572-2.42-2.572a4.342,4.342,0,0,0-1.938.413Z" transform="translate(1730.727 381.568)" fill="#484e58"/>
    <path id="Path_117" data-name="Path 117" d="M-1716.441-371.005q0-2.465,3.252-2.465a14.492,14.492,0,0,1,2.091.152v-.755q0-1.381-2.16-1.381a8.976,8.976,0,0,0-2.534.381v-1.145a8.976,8.976,0,0,1,2.534-.381q3.572,0,3.572,2.488v5.526h-.793l-.489-.793a4.634,4.634,0,0,1-2.61.793Q-1716.441-368.586-1716.441-371.005Zm3.252-1.321q-1.84,0-1.84,1.3t1.45,1.3a3.955,3.955,0,0,0,2.481-.778v-1.664A14.407,14.407,0,0,0-1713.189-372.326Z" transform="translate(1724.781 379.5)" fill="#484e58"/>
    <path id="Path_118" data-name="Path 118" d="M-1701.932-368.968v-1.221a9.217,9.217,0,0,0,2.855.458q1.915,0,1.915-1.145,0-1.068-1.336-1.068h-1.145q-2.595,0-2.6-2.366,0-2.29,3.336-2.29a10.885,10.885,0,0,1,2.847.381V-375a9.176,9.176,0,0,0-2.847-.458q-2,0-2,1.145,0,1.068,1.259,1.068h1.145q2.748,0,2.748,2.366,0,2.29-3.328,2.29A10.891,10.891,0,0,1-1701.932-368.968Z" transform="translate(1718.87 379.5)" fill="#484e58"/>
    <path id="Path_119" data-name="Path 119" d="M-1686.937-381.568l-1.411,1.336v-1.336Zm0,2.9v8.014h-1.411v-8.014Z" transform="translate(1713.09 381.568)" fill="#484e58"/>
    <path id="Path_120" data-name="Path 120" d="M-1676.68-368.815a9.511,9.511,0,0,1-2.137.229q-4.274,0-4.274-4.16,0-3.854,4.274-3.854a9.477,9.477,0,0,1,2.137.229v1.145a9.846,9.846,0,0,0-2.214-.229q-2.786,0-2.786,2.709,0,3.015,2.786,3.015a9.878,9.878,0,0,0,2.214-.229Z" transform="translate(1710.902 379.5)" fill="#484e58"/>
    <path id="Path_121" data-name="Path 121" d="M-1669.971-369.022V-370.7a8.26,8.26,0,0,0,3.084.534q1.306,0,1.305-.84,0-.8-.878-.8h-1.45a2.142,2.142,0,0,1-2.442-2.4q0-2.519,3.564-2.519a8.72,8.72,0,0,1,2.847.458v1.68a7.744,7.744,0,0,0-2.9-.535q-1.641,0-1.641.84,0,.8.954.8h1.3q2.671,0,2.671,2.4,0,2.519-3.4,2.519A9.238,9.238,0,0,1-1669.971-369.022Z" transform="translate(1705.6 379.555)" fill="#484e58"/>
    <path id="Path_122" data-name="Path 122" d="M-1657.34-372.61q0-4.03,3.969-4.029t3.969,4.029q0,4.023-3.969,4.023Q-1657.325-368.587-1657.34-372.61Zm3.969,2.481q1.947,0,1.946-2.511,0-2.45-1.946-2.45t-1.946,2.45Q-1655.317-370.128-1653.371-370.129Z" transform="translate(1700.184 379.517)" fill="#484e58"/>
    <path id="Path_123" data-name="Path 123" d="M-1639.556-381.568v10.914h-2.022v-10.914Z" transform="translate(1693.625 381.568)" fill="#484e58"/>
    <path id="Path_124" data-name="Path 124" d="M-1628.158-376.6v8.014h-1.58l-.244-1.023a4.844,4.844,0,0,1-2.931,1.023q-2.458,0-2.458-2.908V-376.6h2.022v5.052q0,1.328,1.161,1.328a3.311,3.311,0,0,0,2.007-.786V-376.6Z" transform="translate(1691.041 379.5)" fill="#484e58"/>
    <path id="Path_125" data-name="Path 125" d="M-1620.345-378.823h1.5l.305,1.3h2.015v1.6h-1.793v3.687q0,1.122.969,1.122h.824v1.6h-1.8q-2.015,0-2.016-2.16Z" transform="translate(1684.788 380.426)" fill="#484e58"/>
    <path id="Path_126" data-name="Path 126" d="M-1609.788-381.568l-2.023,1.6v-1.6Zm0,2.9v8.014h-2.023v-8.014Z" transform="translate(1681.236 381.568)" fill="#484e58"/>
    <path id="Path_127" data-name="Path 127" d="M-1606.173-372.61q0-4.03,3.969-4.029t3.969,4.029q0,4.023-3.969,4.023T-1606.173-372.61Zm3.969,2.481q1.946,0,1.947-2.511,0-2.45-1.947-2.45t-1.946,2.45Q-1604.151-370.128-1602.2-370.129Z" transform="translate(1678.889 379.517)" fill="#484e58"/>
    <path id="Path_128" data-name="Path 128" d="M-1590.441-368.586V-376.6h1.565l.252,1.175A3.582,3.582,0,0,1-1586-376.6q2.847,0,2.847,2.961v5.053h-2.022v-5.053a1.17,1.17,0,0,0-1.321-1.328,2.98,2.98,0,0,0-1.924.786v5.595Z" transform="translate(1672.342 379.5)" fill="#484e58"/>
    <path id="Path_129" data-name="Path 129" d="M-1575.521-369.022V-370.7a8.258,8.258,0,0,0,3.083.534q1.306,0,1.305-.84,0-.8-.877-.8h-1.45a2.142,2.142,0,0,1-2.443-2.4q0-2.519,3.565-2.519a8.717,8.717,0,0,1,2.847.458v1.68a7.742,7.742,0,0,0-2.9-.535q-1.641,0-1.641.84,0,.8.954.8h1.3q2.671,0,2.672,2.4,0,2.519-3.4,2.519A9.235,9.235,0,0,1-1575.521-369.022Z" transform="translate(1666.292 379.555)" fill="#484e58"/>
  </g>
  <path id="Path_130" data-name="Path 130" d="M-1785.582-373.948l13.008,7.511,13.009-7.51v-15.021l-13.009-7.51-13.008,7.51Zm22.315-12.883h0l-9.307,5.373v10.746l-9.306-5.373v-10.746l9.306-5.373Z" transform="translate(1785.582 396.479)" fill="#737d8c"/>
</svg>
