<svg id="Group_30" data-name="Group 30" xmlns="http://www.w3.org/2000/svg" width="122.786" height="14.581" viewBox="0 0 122.786 14.581">
  <path id="Path_107" data-name="Path 107" d="M-1772.944-692.442a7.139,7.139,0,0,0-7.139,7.139,7.138,7.138,0,0,0,7.139,7.138,7.076,7.076,0,0,0,2.868-.617l-2.19-1.647a4.985,4.985,0,0,1-.665.05,4.93,4.93,0,0,1-4.931-4.931,4.931,4.931,0,0,1,4.931-4.932A4.932,4.932,0,0,1-1768-685.31a4.911,4.911,0,0,1-.241,1.518l-1.818-1.818h-3.06l2.5,2.583-3.1.022,2.484,1.869.39.294,1.918,1.443,2.044,1.538-1.372-2.094-.733-1.119,1.755.022a7.109,7.109,0,0,0,.66-1.079h0a7.063,7.063,0,0,0,.774-3.171A7.138,7.138,0,0,0-1772.944-692.442Z" transform="translate(1780.083 692.442)" fill="#484e58"/>
  <path id="Path_108" data-name="Path 108" d="M-1749.026-691.742h1.789v8.87c0,1.9,1.174,3.1,3.271,3.1s3.271-1.193,3.271-3.1v-8.87h1.771v8.947a4.511,4.511,0,0,1-1.4,3.482,5.161,5.161,0,0,1-3.637,1.289,5.208,5.208,0,0,1-3.655-1.289,4.511,4.511,0,0,1-1.4-3.482Z" transform="translate(1767.158 692.151)" fill="#484e58"/>
  <path id="Path_109" data-name="Path 109" d="M-1723.749-691.742h1.789v13.469h-1.789Z" transform="translate(1756.637 692.151)" fill="#484e58"/>
  <path id="Path_110" data-name="Path 110" d="M-1711.683-680.222a6.786,6.786,0,0,1-1.982-4.964,6.789,6.789,0,0,1,1.982-4.964,6.811,6.811,0,0,1,5.06-2.02,6.657,6.657,0,0,1,5.81,3.271l-1.558.9a4.741,4.741,0,0,0-4.252-2.443,5.1,5.1,0,0,0-3.81,1.5,5.134,5.134,0,0,0-1.462,3.752,5.12,5.12,0,0,0,1.462,3.732,5.1,5.1,0,0,0,3.81,1.5,4.763,4.763,0,0,0,4.252-2.424l1.558.884a6.274,6.274,0,0,1-2.4,2.405,6.71,6.71,0,0,1-3.405.885A6.809,6.809,0,0,1-1711.683-680.222Z" transform="translate(1752.441 692.329)" fill="#484e58"/>
  <path id="Path_111" data-name="Path 111" d="M-1675.1-678.273h-2.193l-5.81-6.465v6.465h-1.789v-13.469h1.789v6.08l5.618-6.08h2.194l-5.946,6.542Z" transform="translate(1740.467 692.151)" fill="#484e58"/>
  <path id="Path_112" data-name="Path 112" d="M-1652.373-682.083a3.645,3.645,0,0,1-1.135,2.713,3.817,3.817,0,0,1-2.77,1.1h-5.811v-13.469h5.388a3.671,3.671,0,0,1,2.674,1.058,3.5,3.5,0,0,1,1.1,2.617,3.22,3.22,0,0,1-1.462,2.809A3.439,3.439,0,0,1-1652.373-682.083Zm-7.927-7.984v4.117h3.6a2,2,0,0,0,2-2.059,1.962,1.962,0,0,0-.6-1.443,1.865,1.865,0,0,0-1.4-.615Zm4.021,10.12a2.132,2.132,0,0,0,2.135-2.193,2.107,2.107,0,0,0-.635-1.539,1.991,1.991,0,0,0-1.5-.635h-4.021v4.367Z" transform="translate(1730.976 692.151)" fill="#484e58"/>
  <path id="Path_113" data-name="Path 113" d="M-1636.737-679.966h5.81v1.693h-7.6v-13.469h1.789Z" transform="translate(1721.169 692.151)" fill="#484e58"/>
  <path id="Path_114" data-name="Path 114" d="M-1620.151-690.131a6.678,6.678,0,0,1,4.945-2.039,6.679,6.679,0,0,1,4.945,2.039,6.682,6.682,0,0,1,2.039,4.945,6.711,6.711,0,0,1-2.039,4.945,6.679,6.679,0,0,1-4.945,2.039,6.678,6.678,0,0,1-4.945-2.039,6.765,6.765,0,0,1-2.02-4.945A6.735,6.735,0,0,1-1620.151-690.131Zm8.639,1.213a4.9,4.9,0,0,0-3.694-1.52,4.975,4.975,0,0,0-3.713,1.52,5.133,5.133,0,0,0-1.482,3.732,5.165,5.165,0,0,0,1.482,3.732,5.031,5.031,0,0,0,3.713,1.5,4.96,4.96,0,0,0,3.694-1.5,5.107,5.107,0,0,0,1.5-3.732A5.075,5.075,0,0,0-1611.512-688.918Z" transform="translate(1714.362 692.329)" fill="#484e58"/>
  <path id="Path_115" data-name="Path 115" d="M-1579.532-685.128v.808a5.849,5.849,0,0,1-1.808,4.387,6.659,6.659,0,0,1-4.791,1.732,6.9,6.9,0,0,1-5.1-2.021,6.865,6.865,0,0,1-2-4.964,6.793,6.793,0,0,1,2-4.945,6.814,6.814,0,0,1,5.06-2.039,6.747,6.747,0,0,1,3.425.9,6.263,6.263,0,0,1,2.4,2.348l-1.539.9a4.833,4.833,0,0,0-4.31-2.424,5.029,5.029,0,0,0-3.79,1.52,5.135,5.135,0,0,0-1.482,3.732,5.136,5.136,0,0,0,1.482,3.732,5.233,5.233,0,0,0,3.867,1.5c2.694,0,4.425-1.462,4.791-3.56h-4.945v-1.616Z" transform="translate(1702.318 692.329)" fill="#484e58"/>
</svg>
