<svg id="Group_29" data-name="Group 29" xmlns="http://www.w3.org/2000/svg" width="157.732" height="31.039" viewBox="0 0 157.732 31.039">
  <g id="Group_26" data-name="Group 26" transform="translate(0 0)">
    <g id="Group_24" data-name="Group 24">
      <g id="Group_23" data-name="Group 23">
        <g id="Group_22" data-name="Group 22">
          <path id="Path_91" data-name="Path 91" d="M-2572.672-218.214a20.245,20.245,0,0,1,.929-3.736.6.6,0,0,0-.77-.743,11.443,11.443,0,0,1-2.386.66c-.531,0-1.274-.738-1.67-1.552a.6.6,0,0,0-1-.119c-1.095,1.316-3.089,3.585-3.632,3.353s.4-5.006.962-7.613a.6.6,0,0,0-.935-.615,6.473,6.473,0,0,1-.815.5.806.806,0,0,1-1.07-.344l-2.163-4.118a.59.59,0,0,0-1.047,0l-2.137,4.127a.809.809,0,0,1-1.08.354,6.569,6.569,0,0,1-.807-.493.6.6,0,0,0-.933.622c.174.782.385,1.757.578,2.747a.354.354,0,0,1-.348.422h-5.561a1.011,1.011,0,0,0-1.027.922.974.974,0,0,0,.973,1.025h8.369a1.011,1.011,0,0,1,1.027.922.974.974,0,0,1-.972,1.026h-5.853a1.011,1.011,0,0,0-1.028.921.974.974,0,0,0,.972,1.026h3.825a1.011,1.011,0,0,1,1.027.921.974.974,0,0,1-.972,1.026h-7.706a1.011,1.011,0,0,0-1.028.921.974.974,0,0,0,.972,1.026h9.046a1.011,1.011,0,0,1,1.027.921.973.973,0,0,1-.972,1.026h-10.669a1.011,1.011,0,0,0-1.027.922.974.974,0,0,0,.972,1.026h6.743a.271.271,0,0,1,.253.371c-.228.578-.561,1.326-.66,1.624a.728.728,0,0,0,.815.945l1.241-.214c1.776-.305,3.9-.671,4.2-.724.519-.095.988-.095.993.984l-.293,5.54a.734.734,0,0,0,.642.783.707.707,0,0,0,.766-.754l-.392-5.569c-.005-1.084.465-1.089.984-.994.381.067,3.875.644,5.656.938a.6.6,0,0,0,.661-.79,5.546,5.546,0,0,1-.367-1.44c0-.85,1.8-2.032,3.78-3.784s3.286-2.295,3.286-2.794C-2571.3-217.344-2572.668-217.181-2572.672-218.214Z" transform="translate(2600.576 232.853)" fill="#737d8c"/>
        </g>
      </g>
      <path id="Path_92" data-name="Path 92" d="M-2598.491-210.362h1.506a.974.974,0,0,0,.974-.974.974.974,0,0,0-.974-.973h-1.506a.973.973,0,0,0-.974.973A.974.974,0,0,0-2598.491-210.362Z" transform="translate(2600.114 224.303)" fill="#737d8c"/>
    </g>
    <g id="Group_25" data-name="Group 25" transform="translate(23.774 21.832)">
      <path id="Path_93" data-name="Path 93" d="M-2559.168-195.243v1.2h-.239v-1.2h-.448v-.215h1.136v.215Z" transform="translate(2559.855 195.458)" fill="#737d8c"/>
      <path id="Path_94" data-name="Path 94" d="M-2556.279-194.04l0-1.06-.448.912h-.156l-.448-.912v1.06h-.226v-1.418h.284l.469.942.466-.942h.282v1.418Z" transform="translate(2558.899 195.458)" fill="#737d8c"/>
    </g>
  </g>
  <g id="Group_28" data-name="Group 28" transform="translate(36.228 11.833)">
    <g id="Group_27" data-name="Group 27">
      <path id="Path_95" data-name="Path 95" d="M-2535.581-205.247l-2.941-7.248h.89l2.5,6.285,2.505-6.285h.87l-2.961,7.248Z" transform="translate(2538.522 212.547)" fill="#484e58"/>
      <path id="Path_96" data-name="Path 96" d="M-2518.8-211.7v2.381h3.655v.8h-3.655v2.485h4.224v.787h-5.053v-7.248h4.919v.8Z" transform="translate(2530.661 212.547)" fill="#484e58"/>
      <path id="Path_97" data-name="Path 97" d="M-2497.588-205.247l-4.349-5.819v5.819h-.828v-7.248h.859l4.349,5.829v-5.829h.818v7.248Z" transform="translate(2523.64 212.547)" fill="#484e58"/>
      <path id="Path_98" data-name="Path 98" d="M-2481.84-211.7v6.451h-.828V-211.7h-2.361v-.8h5.561v.8Z" transform="translate(2516.259 212.547)" fill="#484e58"/>
      <path id="Path_99" data-name="Path 99" d="M-2462.321-208.229a2.789,2.789,0,0,1-3.034,3.024,2.8,2.8,0,0,1-3.055-3.024v-4.266h.828v4.266a2.047,2.047,0,0,0,2.227,2.226,2.031,2.031,0,0,0,2.205-2.226v-4.266h.828Z" transform="translate(2509.342 212.547)" fill="#484e58"/>
      <path id="Path_100" data-name="Path 100" d="M-2445.943-207.556c-.155.011-.321.02-.487.02h-1.925v2.289h-.828v-7.248h2.754c1.813,0,2.858.89,2.858,2.433a2.27,2.27,0,0,1-1.626,2.35l1.7,2.464h-.942Zm-.487-.776c1.316,0,2.061-.58,2.061-1.709,0-1.1-.745-1.656-2.061-1.656h-1.925v3.365Z" transform="translate(2501.341 212.547)" fill="#484e58"/>
      <path id="Path_101" data-name="Path 101" d="M-2430.211-211.7v2.381h3.656v.8h-3.656v2.485h4.225v.787h-5.053v-7.248h4.919v.8Z" transform="translate(2493.789 212.547)" fill="#484e58"/>
      <path id="Path_102" data-name="Path 102" d="M-2409.612-205.247l-3.51-4.649v4.649h-1.564v-7.248h1.491l3.52,4.659v-4.659h1.553v7.248Z" transform="translate(2486.983 212.547)" fill="#484e58"/>
      <path id="Path_103" data-name="Path 103" d="M-2388.489-208.908a3.727,3.727,0,0,1-3.893,3.7,3.72,3.72,0,0,1-3.893-3.7,3.7,3.7,0,0,1,3.893-3.676A3.7,3.7,0,0,1-2388.489-208.908Zm-6.109,0a2.254,2.254,0,0,0,2.237,2.268,2.22,2.22,0,0,0,2.2-2.268,2.2,2.2,0,0,0-2.2-2.247A2.229,2.229,0,0,0-2394.6-208.908Z" transform="translate(2479.321 212.584)" fill="#484e58"/>
      <path id="Path_104" data-name="Path 104" d="M-2372.469-207.318h-1.667v2.071h-1.636v-7.248h3.148c1.894,0,2.971.911,2.971,2.516a2.393,2.393,0,0,1-1.356,2.34l1.542,2.392h-1.854Zm-.155-1.367c.9,0,1.418-.414,1.418-1.243,0-.807-.518-1.211-1.418-1.211h-1.512v2.454Z" transform="translate(2470.788 212.547)" fill="#484e58"/>
      <path id="Path_105" data-name="Path 105" d="M-2354.992-211.108v5.861h-1.636v-5.861h-2.205v-1.387h6.057v1.387Z" transform="translate(2463.738 212.547)" fill="#484e58"/>
      <path id="Path_106" data-name="Path 106" d="M-2336.71-205.247V-208.1h-3.282v2.858h-1.636v-7.248h1.636v3.024h3.282v-3.024h1.636v7.248Z" transform="translate(2456.578 212.547)" fill="#484e58"/>
    </g>
  </g>
</svg>
