<svg id="Group_62" data-name="Group 62" xmlns="http://www.w3.org/2000/svg" width="128.631" height="30.557" viewBox="0 0 128.631 30.557">
  <path id="Path_323" data-name="Path 323" d="M-1382.772-543.922l-1.648-.231a2.481,2.481,0,0,0-2.62,1.468l-2.661,6.123a1.171,1.171,0,0,1-.376.441l-4.521,3.192a1.287,1.287,0,0,1-1.705-.157,1.239,1.239,0,0,1,.219-1.827l2.7-1.907a1.171,1.171,0,0,0,.479-.758l.4-2.336a.329.329,0,0,0-.509-.329l-2.322,1.57a.812.812,0,0,1-1-.074.811.811,0,0,1-.066-1.13l5.488-5.617a2.48,2.48,0,0,0,.682-2.078l-.621-4.429a1.181,1.181,0,0,0-1.17-1.017h-10.026a1.181,1.181,0,0,0-1.17,1.017l-.994,7.084-7.084.994a1.181,1.181,0,0,0-1.017,1.17v10.026a1.18,1.18,0,0,0,1.017,1.169l1.648.232a2.48,2.48,0,0,0,2.62-1.468l2.661-6.124a1.171,1.171,0,0,1,.375-.44l4.522-3.192a1.286,1.286,0,0,1,1.705.157,1.238,1.238,0,0,1-.22,1.826l-2.7,1.907a1.169,1.169,0,0,0-.479.758l-.4,2.336a.33.33,0,0,0,.51.329l2.094-1.417a1.353,1.353,0,0,1,1.231-.081h0a.812.812,0,0,1,.066,1.13l-5.489,5.617a2.482,2.482,0,0,0-.682,2.078l.622,4.429a1.182,1.182,0,0,0,1.17,1.018h10.026a1.182,1.182,0,0,0,1.17-1.017l.994-7.085,7.084-.994a1.18,1.18,0,0,0,1.017-1.169v-10.026A1.181,1.181,0,0,0-1382.772-543.922Z" transform="translate(1412.312 553.017)" fill="#737d8c"/>
  <g id="Group_60" data-name="Group 60" transform="translate(101.51 8.606)">
    <g id="Group_59" data-name="Group 59">
      <g id="Group_57" data-name="Group 57" transform="translate(0.245)">
        <path id="Path_324" data-name="Path 324" d="M-1198.14-535.287h.511v3.878h-.511v-.76a1.74,1.74,0,0,1-1.567.854,1.935,1.935,0,0,1-1.42-.59,1.985,1.985,0,0,1-.582-1.443,1.986,1.986,0,0,1,.582-1.443,1.935,1.935,0,0,1,1.42-.59,1.74,1.74,0,0,1,1.567.854Zm-1.529,3.475a1.479,1.479,0,0,0,1.086-.442,1.511,1.511,0,0,0,.443-1.094,1.482,1.482,0,0,0-.443-1.086,1.457,1.457,0,0,0-1.086-.45,1.458,1.458,0,0,0-1.086.45,1.481,1.481,0,0,0-.442,1.086,1.51,1.51,0,0,0,.442,1.094A1.481,1.481,0,0,0-1199.668-531.812Z" transform="translate(1222.907 537.071)" fill="#737d8c"/>
        <path id="Path_325" data-name="Path 325" d="M-1192.859-532.614v-5.662h.511v5.662Z" transform="translate(1219.224 538.276)" fill="#737d8c"/>
        <path id="Path_326" data-name="Path 326" d="M-1233.055-537.877v5.429h-.543v-4.607l-1.9,3.18h-.078l-1.9-3.18v4.607h-.543v-5.429h.674l1.808,3.025,1.807-3.025Z" transform="translate(1238.019 538.11)" fill="#737d8c"/>
        <path id="Path_327" data-name="Path 327" d="M-1224.509-534.767a2.1,2.1,0,0,1,.535,1.435c0,.054-.008.14-.016.241h-3.405a1.454,1.454,0,0,0,1.544,1.28,1.363,1.363,0,0,0,1.249-.659l.449.264a1.946,1.946,0,0,1-1.706.892,2.018,2.018,0,0,1-1.489-.575,1.981,1.981,0,0,1-.574-1.458,1.982,1.982,0,0,1,.566-1.451,1.947,1.947,0,0,1,1.458-.582A1.731,1.731,0,0,1-1224.509-534.767Zm-2.886,1.179h2.893a1.445,1.445,0,0,0-.473-.954,1.387,1.387,0,0,0-.923-.341A1.449,1.449,0,0,0-1227.395-533.588Z" transform="translate(1233.817 537.071)" fill="#737d8c"/>
        <path id="Path_328" data-name="Path 328" d="M-1216.595-537.877h.512v5.429h-.512v-.76a1.738,1.738,0,0,1-1.567.854,1.934,1.934,0,0,1-1.419-.59,1.984,1.984,0,0,1-.582-1.443,1.984,1.984,0,0,1,.582-1.443,1.934,1.934,0,0,1,1.419-.59,1.738,1.738,0,0,1,1.567.854Zm-1.528,5.026a1.481,1.481,0,0,0,1.086-.442,1.512,1.512,0,0,0,.442-1.094,1.483,1.483,0,0,0-.442-1.086,1.458,1.458,0,0,0-1.086-.45,1.458,1.458,0,0,0-1.086.45,1.481,1.481,0,0,0-.442,1.086,1.511,1.511,0,0,0,.442,1.094A1.481,1.481,0,0,0-1218.123-532.851Z" transform="translate(1230.588 538.11)" fill="#737d8c"/>
        <path id="Path_329" data-name="Path 329" d="M-1211.407-537.269a.371.371,0,0,1,0-.528.371.371,0,0,1,.528,0,.371.371,0,0,1,0,.528A.371.371,0,0,1-1211.407-537.269Zm.008,4.809v-3.878h.512v3.878Z" transform="translate(1226.989 538.122)" fill="#737d8c"/>
        <path id="Path_330" data-name="Path 330" d="M-1208.394-531.9a1.988,1.988,0,0,1-.582-1.45,1.959,1.959,0,0,1,.582-1.443,1.959,1.959,0,0,1,1.458-.59,1.812,1.812,0,0,1,1.7,1.016l-.418.241a1.36,1.36,0,0,0-1.281-.76,1.458,1.458,0,0,0-1.086.45,1.481,1.481,0,0,0-.442,1.086,1.51,1.51,0,0,0,.442,1.094,1.481,1.481,0,0,0,1.086.442,1.459,1.459,0,0,0,1.311-.76l.427.248a1.924,1.924,0,0,1-1.738,1.009A1.982,1.982,0,0,1-1208.394-531.9Z" transform="translate(1225.932 537.071)" fill="#737d8c"/>
      </g>
      <g id="Group_58" data-name="Group 58" transform="translate(0 8.001)">
        <path id="Path_331" data-name="Path 331" d="M-1237.632-519.53a2.739,2.739,0,0,1-.807-1.993,2.739,2.739,0,0,1,.807-1.994,2.747,2.747,0,0,1,2.04-.814,2.676,2.676,0,0,1,2.351,1.334l-.481.279a2.088,2.088,0,0,0-1.87-1.086,2.209,2.209,0,0,0-1.66.659,2.243,2.243,0,0,0-.644,1.622,2.24,2.24,0,0,0,.644,1.621,2.207,2.207,0,0,0,1.66.66,2.088,2.088,0,0,0,1.87-1.086l.481.271a2.663,2.663,0,0,1-2.351,1.342A2.747,2.747,0,0,1-1237.632-519.53Z" transform="translate(1238.439 524.471)" fill="#737d8c"/>
        <path id="Path_332" data-name="Path 332" d="M-1228.142-518.908v-5.663h.512v5.663Z" transform="translate(1234.153 524.571)" fill="#737d8c"/>
        <path id="Path_333" data-name="Path 333" d="M-1225.5-523.564a.371.371,0,0,1,0-.528.37.37,0,0,1,.528,0,.369.369,0,0,1,0,.528A.37.37,0,0,1-1225.5-523.564Zm.008,4.81v-3.878h.512v3.878Z" transform="translate(1233.099 524.417)" fill="#737d8c"/>
        <path id="Path_334" data-name="Path 334" d="M-1219.333-520.084v2.381h-.512v-2.381a.979.979,0,0,0-1.055-1.094c-.744,0-1.257.458-1.257,1.443v2.032h-.511v-3.878h.511v.6a1.43,1.43,0,0,1,1.3-.7A1.449,1.449,0,0,1-1219.333-520.084Z" transform="translate(1231.875 523.365)" fill="#737d8c"/>
        <path id="Path_335" data-name="Path 335" d="M-1215.346-523.564a.37.37,0,0,1,0-.528.37.37,0,0,1,.527,0,.371.371,0,0,1,0,.528A.37.37,0,0,1-1215.346-523.564Zm.008,4.81v-3.878h.512v3.878Z" transform="translate(1228.874 524.417)" fill="#737d8c"/>
        <path id="Path_336" data-name="Path 336" d="M-1212.334-518.191a1.989,1.989,0,0,1-.582-1.451,1.957,1.957,0,0,1,.582-1.443,1.957,1.957,0,0,1,1.458-.59,1.812,1.812,0,0,1,1.7,1.016l-.418.241a1.361,1.361,0,0,0-1.28-.761,1.46,1.46,0,0,0-1.086.45,1.48,1.48,0,0,0-.442,1.086,1.512,1.512,0,0,0,.442,1.094,1.484,1.484,0,0,0,1.086.442,1.458,1.458,0,0,0,1.311-.76l.427.248a1.923,1.923,0,0,1-1.738,1.008A1.982,1.982,0,0,1-1212.334-518.191Z" transform="translate(1227.817 523.365)" fill="#737d8c"/>
      </g>
    </g>
  </g>
  <g id="Group_61" data-name="Group 61" transform="translate(39.528 8.606)">
    <path id="Path_337" data-name="Path 337" d="M-1334.852-527.731a3.572,3.572,0,0,1-1.167,2.735,4.016,4.016,0,0,1-2.85,1.091h-5.737v-13.387h5.316a3.9,3.9,0,0,1,2.773,1.071,3.45,3.45,0,0,1,1.147,2.639,3.222,3.222,0,0,1-1.358,2.735A3.405,3.405,0,0,1-1334.852-527.731Zm-7.554-7.5v3.519h3.117a1.71,1.71,0,0,0,1.721-1.758,1.712,1.712,0,0,0-1.721-1.76Zm3.538,9.257a1.829,1.829,0,0,0,1.817-1.875,1.829,1.829,0,0,0-1.817-1.874h-3.538v3.749Z" transform="translate(1344.605 537.867)" fill="#484e58"/>
    <path id="Path_338" data-name="Path 338" d="M-1323.451-525.258a2.856,2.856,0,0,0,3.06,2.256,2.833,2.833,0,0,0,2.467-1.186l1.7,1a4.706,4.706,0,0,1-4.189,2.084,5.168,5.168,0,0,1-3.767-1.415,4.9,4.9,0,0,1-1.435-3.614,4.906,4.906,0,0,1,1.415-3.576,4.828,4.828,0,0,1,3.634-1.453,4.48,4.48,0,0,1,3.442,1.472,5.112,5.112,0,0,1,1.358,3.576,5.619,5.619,0,0,1-.077.861Zm5.6-1.682a2.664,2.664,0,0,0-2.735-2.353,2.778,2.778,0,0,0-2.888,2.353Z" transform="translate(1336.7 535.317)" fill="#484e58"/>
    <path id="Path_339" data-name="Path 339" d="M-1305.211-523.906-1309-537.293h2.314l2.811,10.461,3.041-10.461h2.027l3.021,10.461,2.811-10.461h2.314l-3.786,13.387h-2.543l-2.831-9.773-2.849,9.773Z" transform="translate(1329.786 537.867)" fill="#484e58"/>
    <path id="Path_340" data-name="Path 340" d="M-1275.679-525.258a2.856,2.856,0,0,0,3.06,2.256,2.833,2.833,0,0,0,2.467-1.186l1.7,1a4.7,4.7,0,0,1-4.188,2.084,5.167,5.167,0,0,1-3.767-1.415,4.9,4.9,0,0,1-1.434-3.614,4.905,4.905,0,0,1,1.415-3.576,4.827,4.827,0,0,1,3.634-1.453,4.483,4.483,0,0,1,3.442,1.472,5.115,5.115,0,0,1,1.357,3.576,5.547,5.547,0,0,1-.077.861Zm5.6-1.682a2.664,2.664,0,0,0-2.734-2.353,2.778,2.778,0,0,0-2.888,2.353Z" transform="translate(1316.818 535.317)" fill="#484e58"/>
    <path id="Path_341" data-name="Path 341" d="M-1257.863-524.315v-13.961h2.065v13.961Z" transform="translate(1308.504 538.276)" fill="#484e58"/>
    <path id="Path_342" data-name="Path 342" d="M-1250.233-524.315v-13.961h2.066v13.961Z" transform="translate(1305.329 538.276)" fill="#484e58"/>
  </g>
</svg>
