<svg id="Group_72" data-name="Group 72" xmlns="http://www.w3.org/2000/svg" width="129.392" height="32.607" viewBox="0 0 129.392 32.607">
  <path id="Path_368" data-name="Path 368" d="M-1374.32-78.848l-13.073-12.164a6.707,6.707,0,0,0-9.106,0l-13.069,12.164a1.692,1.692,0,0,0-.423,1.869,1.692,1.692,0,0,0,1.583,1.078h2.381v6.886a8.838,8.838,0,0,0,8.828,8.828,8.826,8.826,0,0,0,5.256-1.734,8.824,8.824,0,0,0,5.256,1.734,8.838,8.838,0,0,0,8.828-8.828V-75.9h2.381a1.693,1.693,0,0,0,1.583-1.078A1.692,1.692,0,0,0-1374.32-78.848Zm-4.765.5a1.224,1.224,0,0,0-1.224,1.224v8.11a6.386,6.386,0,0,1-6.379,6.379,6.371,6.371,0,0,1-3.485-1.036,8.838,8.838,0,0,0,.724-1.12l1.472-2.7a1.216,1.216,0,0,0,.075-.991l3-5.5a2.652,2.652,0,0,0-.05-2.646,2.652,2.652,0,0,0-2.3-1.308h-.665a1.317,1.317,0,0,0-1.036-.508,1.324,1.324,0,0,0-1.324,1.324,1.324,1.324,0,0,0,1.324,1.324,1.318,1.318,0,0,0,1.036-.508h.665a1.021,1.021,0,0,1,.9.51,1.02,1.02,0,0,1,.019,1.031l-3,5.5a1.217,1.217,0,0,0-.792.6l-1.473,2.7a6.455,6.455,0,0,1-.345.563,6.521,6.521,0,0,1-.346-.563l-1.472-2.7a1.215,1.215,0,0,0-.792-.6l-3-5.5a1.02,1.02,0,0,1,.019-1.031,1.02,1.02,0,0,1,.9-.51h.665a1.317,1.317,0,0,0,1.036.508,1.324,1.324,0,0,0,1.324-1.324,1.324,1.324,0,0,0-1.324-1.324,1.316,1.316,0,0,0-1.036.508h-.665a2.652,2.652,0,0,0-2.3,1.309,2.652,2.652,0,0,0-.049,2.646l3,5.5a1.216,1.216,0,0,0,.075.991l1.472,2.7a8.85,8.85,0,0,0,.724,1.12,6.371,6.371,0,0,1-3.485,1.036,6.386,6.386,0,0,1-6.379-6.379v-8.11a1.224,1.224,0,0,0-1.224-1.224h-1.706l11.678-10.869a4.25,4.25,0,0,1,5.769,0l11.682,10.87Z" transform="translate(1410.112 92.794)" fill="#737d8c"/>
  <g id="Group_71" data-name="Group 71" transform="translate(45.482 6.154)">
    <g id="Group_70" data-name="Group 70">
      <path id="Path_369" data-name="Path 369" d="M-1325.893-78.653v4.129h4.011v3.1h-4.041v6.283a1.806,1.806,0,0,0,1.887,2.064,4.108,4.108,0,0,0,1.74-.442l1,3.067a8.037,8.037,0,0,1-2.979.619c-3.156.118-5.22-1.681-5.22-5.309v-6.283h-2.714v-3.1h2.714v-3.746Z" transform="translate(1332.206 80.755)" fill="#484e58"/>
      <path id="Path_370" data-name="Path 370" d="M-1299.5-71.882h3.451v14.542h-3.392l-.177-2.124c-.826,1.711-3.1,2.537-4.719,2.566-4.307.03-7.492-2.625-7.492-7.728,0-5.014,3.333-7.64,7.58-7.61a5.338,5.338,0,0,1,4.631,2.36Zm-8.731,7.256a4.165,4.165,0,0,0,4.306,4.424c5.664,0,5.664-8.819,0-8.819A4.141,4.141,0,0,0-1308.232-64.626Z" transform="translate(1323.726 78.084)" fill="#484e58"/>
      <path id="Path_371" data-name="Path 371" d="M-1275.177-78.653v4.129h4.011v3.1h-4.041v6.283a1.805,1.805,0,0,0,1.887,2.064,4.107,4.107,0,0,0,1.74-.442l1,3.067a8.037,8.037,0,0,1-2.979.619c-3.156.118-5.221-1.681-5.221-5.309v-6.283h-2.714v-3.1h2.714v-3.746Z" transform="translate(1311.098 80.755)" fill="#484e58"/>
      <path id="Path_372" data-name="Path 372" d="M-1255.586-82.038v8.053c.856-1.5,3.245-2.33,4.778-2.33,4.248,0,7.4,2.6,7.4,7.61,0,4.779-3.215,7.61-7.492,7.61a5.293,5.293,0,0,1-4.69-2.33l-.236,2.005h-3.362V-82.038Zm.236,13.333a4.121,4.121,0,0,0,4.218,4.276,4.087,4.087,0,0,0,4.13-4.276,4.012,4.012,0,0,0-4.13-4.248A4.15,4.15,0,0,0-1255.349-68.705Z" transform="translate(1301.815 82.164)" fill="#484e58"/>
      <path id="Path_373" data-name="Path 373" d="M-1223.826-80.151a2.124,2.124,0,0,1-4.248,0A2.124,2.124,0,0,1-1223.826-80.151Zm-3.923,4.041v14.6h3.6v-14.6Z" transform="translate(1288.868 82.253)" fill="#484e58"/>
      <path id="Path_374" data-name="Path 374" d="M-1211.911-82.038v8.053c.856-1.5,3.245-2.33,4.779-2.33,4.247,0,7.4,2.6,7.4,7.61,0,4.779-3.216,7.61-7.493,7.61a5.293,5.293,0,0,1-4.69-2.33l-.236,2.005h-3.363V-82.038Zm.236,13.333a4.121,4.121,0,0,0,4.217,4.276,4.087,4.087,0,0,0,4.13-4.276,4.012,4.012,0,0,0-4.13-4.248A4.15,4.15,0,0,0-1211.675-68.705Z" transform="translate(1283.639 82.164)" fill="#484e58"/>
    </g>
  </g>
</svg>
