<svg xmlns="http://www.w3.org/2000/svg" xmlns:xlink="http://www.w3.org/1999/xlink" width="1088" height="211.504" viewBox="0 0 1088 211.504">
  <defs>
    <linearGradient id="linear-gradient" x1="0.5" x2="0.5" y2="1" gradientUnits="objectBoundingBox">
      <stop offset="0" stop-color="#f93737"/>
      <stop offset="1" stop-color="#f93737" stop-opacity="0"/>
    </linearGradient>
  </defs>
  <g id="Group_1321" data-name="Group 1321" transform="translate(-416 -6281)">
    <path id="Path_1568" data-name="Path 1568" d="M-1052.031,858.733l-23.052,13.325v25.679l-22.238-12.84-23.052,13.309v25.679l-22.238-12.84-22.238,12.84V898.206L-1187.9,884.9l-22.239,12.84V872.042l-23.052-13.309-23.052,13.325v25.671l-22.238-12.84-22.638,13.086L-1323.77,884.9l-22.645,13.074L-1369.06,884.9l-22.576,13.034-22.714-13.114-22.714,13.114L-1459.64,884.9l-23.052,13.309V924.37l-22.238,12.84-22.238-12.84V898.206l-23.052-13.309-22.645,13.074L-1595.51,884.9l-23.052,13.309V924.37l-22.238,12.84-22.238-12.84V898.206l-23.052-13.309-22.576,13.034-22.714-13.114-22.714,13.114-22.576-13.034-22.646,13.074-22.645-13.074-22.651,13.078-22.638-13.086-22.238,12.84V872.058l-23.051-13.325-23.052,13.309v25.695l-22.239-12.84-23.052,13.309v25.679l-22.238-12.84-22.238,12.84V898.206l-23.052-13.309-22.238,12.84V872.058l-23.052-13.325-23.052,13.309v52.781l22.645,13.074v25.7l-22.645,13.074v26.617l23.052,13.309,22.645-13.075,22.645,13.075,22.645-13.075,22.645,13.075,22.645-13.075,22.645,13.075,22.646-13.075,22.645,13.075,22.645-13.075,22.645,13.075,22.645-13.075,22.645,13.075,22.645-13.075,22.646,13.075,22.645-13.075,22.645,13.075,22.645-13.075,22.645,13.075,22.645-13.075,22.645,13.075,22.645-13.075,22.645,13.075,22.645-13.075,22.645,13.075,22.645-13.075,22.645,13.075,22.645-13.075,22.645,13.075,22.645-13.075,22.645,13.075,22.645-13.075,22.645,13.075,22.646-13.075,22.645,13.075,22.645-13.075,22.645,13.075,22.645-13.075,22.645,13.075,22.645-13.075,22.645,13.075,22.645-13.075,22.645,13.075,22.645-13.075,22.645,13.075,22.645-13.075,22.645,13.075,23.052-13.309V976.667l-22.645-13.074V937.9l22.645-13.074V872.042Zm21.967,39.786-21.967,12.683L-1074,898.519l21.968-12.683Zm-21.967,65.778,21.968,12.683-21.968,12.682L-1074,976.98l10.848-6.263ZM-2093.7,885.836l21.968,12.683L-2093.7,911.2l-21.967-12.683Zm475.951,13.152,22.238,12.84,22.238-12.84v25.366l-22.238,12.839-22.238-12.839Zm135.87,0,21.967,12.683v25.365l-21.967-12.682Zm-589.582,0v25.366l-21.967,12.682V911.671Zm136.684,0,21.967,12.683v25.365l-21.967-12.682Zm226.042,26.086,21.968,12.683-21.968,12.683-21.967-12.683Zm-45.29,25.366-21.968-12.683,21.968-12.683,21.968,12.683Zm-45.29,0-21.967-12.683,21.967-12.683,21.968,12.683Zm-23.322-12.683L-1844.6,950.44l-21.968-12.683,21.968-12.683Zm-67.257,12.683-21.968-12.683,21.968-12.683,21.968,12.683Zm-45.29,0-21.968-12.683,21.968-12.683,21.967,12.683Zm22.916-13.4V911.671l21.967-12.683v25.366Zm-68.206,13.4-21.968-12.683,21.968-12.683,21.968,12.683Zm-45.29,0-21.968-12.683,21.968-12.683,21.967,12.683Zm-45.29-25.366,21.968,12.683-21.968,12.683-21.968-12.683Zm.271,51.2V950.91l21.967-12.683v25.366l-11.119,6.42ZM-2048,963.593V938.227l21.967,12.683v25.366l-10.848-6.263Zm22.51,12.683V950.91l21.967-12.683v25.366l-7.49,4.324Zm22.781-12.683V938.227l21.967,12.683v25.366l-8.637-4.986Zm22.509,12.683V950.91l21.967-12.683v25.366l-11.119,6.42Zm22.78-12.683V938.227l21.968,12.683v25.366l-10.848-6.263Zm22.51,12.683V950.91l21.967-12.683v25.366l-11.12,6.42Zm22.78-12.683V938.227l21.967,12.683v25.366l-10.848-6.263Zm22.509,12.683V950.91l21.967-12.683v25.366l-11.12,6.42Zm22.78-12.683V938.227l21.967,12.683v25.366l-10.848-6.263Zm22.509,12.683V950.91l21.967-12.683v25.366l-11.119,6.42Zm22.78-12.683V938.227l21.967,12.683v25.366l-10.848-6.263Zm22.509,12.683V950.91l21.968-12.683v25.366l-7.49,4.324Zm22.781-12.683V938.227l21.967,12.683v25.366l-10.848-6.263Zm22.509,12.683V950.91l21.967-12.683v25.366l-11.119,6.42Zm22.78-12.683V938.227l21.967,12.683v25.366l-10.848-6.263Zm22.509,12.683V950.91l21.968-12.683v25.366l-11.119,6.42Zm22.781-12.683V938.227l21.967,12.683v25.366l-10.848-6.263Zm22.509,12.683V950.91l21.967-12.683v25.366l-11.119,6.42Zm22.78-12.683V938.227l21.967,12.683v25.366l-10.848-6.263Zm22.509,12.683V950.91l21.967-12.683v25.366l-11.119,6.42Zm45.019-25.835-21.968-12.683,21.968-12.683,21.968,12.683Zm-22.238,13.153V938.227l21.967,12.683v25.366l-10.848-6.263Zm22.509,12.683V950.91l21.968-12.683v25.366l-11.12,6.42Zm22.781-12.683V938.227l21.967,12.683v25.366l-10.848-6.263Zm22.509,12.683V950.91l21.967-12.683v25.366l-11.119,6.42Zm22.781-12.683V938.227l21.967,12.683v25.366l-10.848-6.263Zm22.509,12.683V950.91l21.967-12.683v25.366l-11.119,6.42Zm226.585-77.287,21.967,12.683v25.365l-21.967-12.682Zm135.463,51.452-21.967-12.683,21.967-12.683L-1098,937.758Zm-45.29,0-21.968-12.683,21.968-12.683,21.968,12.683Zm-45.29,0-21.967-12.683,21.967-12.683,21.968,12.683Zm-22.374-13.4V911.671l21.967-12.683v25.366Zm-.948.721-21.968,12.683-21.968-12.683,21.968-12.683Zm-67.257,12.683-21.968-12.683,21.968-12.683,21.968,12.683Zm-45.29,0-21.968-12.683,21.968-12.683,21.967,12.683Zm-45.29-25.366,21.968,12.683-21.968,12.683-21.968-12.683Zm-45.29,25.366-21.968-12.683,21.968-12.683,21.967,12.683Zm-22.239,13.153V938.227l21.968,12.683v25.366l-10.848-6.263Zm22.51,12.683V950.91l21.967-12.683v25.366l-11.119,6.42Zm22.78-12.683V938.227l21.967,12.683v25.366l-10.848-6.263Zm22.509,12.683V950.91l21.967-12.683v25.366l-11.119,6.42Zm22.78-12.683V938.227l21.968,12.683v25.366l-10.848-6.263Zm22.51,12.683V950.91l21.967-12.683v25.366l-11.119,6.42Zm22.78-12.683V938.227l21.967,12.683v25.366l-10.848-6.263Zm22.51,12.683V950.91l21.967-12.683v25.366l-11.119,6.42Zm22.78-12.683V938.227l21.967,12.683v25.366l-10.848-6.263Zm22.509,12.683V950.91l21.967-12.683v25.366l-11.119,6.42Zm22.78-12.683V938.227l21.967,12.683v25.366l-10.848-6.263Zm22.509,12.683V950.91l21.968-12.683v25.366l-11.119,6.42Zm22.781-12.683V938.227l21.967,12.683v25.366l-10.848-6.263Zm22.509,12.683V950.91l21.967-12.683v25.366l-13.33,7.7Zm22.78-12.683V938.227l21.967,12.683v25.366l-14.477-8.359Zm22.509,12.683V950.91l21.968-12.683v25.366l-11.12,6.42Zm22.781-12.683V938.227l21.967,12.683v25.366l-10.848-6.263Zm22.238-13.153-21.968-12.683,21.968-12.683,21.968,12.683Zm.407-51.452,21.967,12.683v25.365l-21.967-12.682Zm-.813.157v25.209l-21.967,12.682V911.671l21.967-12.683Zm-136.141-.626L-1233.19,911.2l-21.967-12.683,21.967-12.683Zm-67.257,38.691-21.839-12.609,21.839-12.608,21.839,12.608Zm-23.052-12.855-21.967,12.682V911.671l21.967-12.683Zm-22.509,12.682-21.967-12.682V898.988l21.967,12.683Zm-45.29,0-21.967-12.682V898.911l21.967,12.76Zm-22.78-12.666-22.238,12.84-22.238-12.84v-25.3l22.238,12.839,22.238-12.839Zm-45.29-.016-21.968,12.682V911.671l21.968-12.683Zm-22.916,13.4-21.968,12.683-21.968-12.683,21.968-12.683Zm-67.257,12.683-21.968-12.683,21.968-12.683,21.968,12.683Zm-22.645-13.247-22.239-12.839V898.988l22.239,12.84,22.238-12.84v25.366Zm-45.968.564-21.968,12.683-21.968-12.683,21.968-12.683Zm-67.257,12.683-21.968-12.683,21.968-12.683,21.968,12.683Zm-22.374-13.4V911.671l21.967-12.683v25.366Zm-.542,0-21.968-12.682V898.988l21.968,12.683Zm-22.781-12.666-22.238,12.84-22.238-12.84v-25.3l22.238,12.839,22.238-12.839Zm-45.29-.016-21.967,12.682V911.671l21.967-12.76Zm-45.29,0-21.967,12.682V911.671l21.967-12.683Zm-22.509,12.682-21.967-12.682V898.988l21.967,12.683Zm-45.019.174-21.839-12.609,21.839-12.608,21.839,12.608Zm-23.323-38.691-21.967,12.683-21.968-12.683,21.968-12.683Zm-158.108,38.517-21.967-12.682V898.988l21.967,12.683Zm-22.645,13.873v25.366l-10.848-6.263-11.119-6.42V938.227Zm-11.255,19.807,10.848,6.263-21.968,12.682-21.967-12.682L-2093.7,964.3Zm-10.848,19.415,21.967-12.682v25.365l-21.967,12.683Zm33.9-19.415,11.119-6.42,11.119,6.42,10.848,6.263-21.968,12.682-21.967-12.682Zm11.39,19.415,21.967-12.682v25.365l-21.967,12.683Zm31.688-18.139,13.33-7.7,7.49,4.324,14.478,8.359-21.968,12.682-21.968-12.682Zm13.6,18.139,21.967-12.682v25.365l-21.967,12.683Zm33.9-19.415,11.119-6.42,11.12,6.42,10.848,6.263-21.968,12.682L-1979.8,976.98Zm11.39,19.415,21.968-12.682v25.365l-21.968,12.683Zm33.9-19.415,11.12-6.42,11.119,6.42,10.848,6.263-21.967,12.682-21.968-12.682Zm11.391,19.415,21.967-12.682v25.365l-21.967,12.683Zm33.9-19.415,11.119-6.42,11.12,6.42,10.848,6.263-21.967,12.682-21.967-12.682Zm11.391,19.415,21.967-12.682v25.365l-21.967,12.683Zm33.9-19.415,11.119-6.42,11.119,6.42,10.848,6.263-21.968,12.682-21.967-12.682Zm11.39,19.415,21.967-12.682v25.365l-21.967,12.683ZM-1790,971.993l13.331-7.7,11.119,6.42,10.848,6.263-21.967,12.682-21.968-12.682Zm13.6,18.139,21.967-12.682v25.365L-1776.4,1015.5Zm33.9-19.415,11.119-6.42,11.119,6.42,10.848,6.263-21.968,12.682-21.967-12.682Zm11.39,19.415,21.967-12.682v25.365l-21.967,12.683Zm33.9-19.415,11.119-6.42,11.119,6.42,10.848,6.263-21.967,12.682-21.968-12.682Zm11.39,19.415,21.967-12.682v25.365l-21.967,12.683Zm33.9-19.415,11.119-6.42,11.119,6.42,10.848,6.263-21.967,12.682-21.968-12.682Zm11.39,19.415,21.967-12.682v25.365l-21.967,12.683Zm33.9-19.415,11.119-6.42,11.119,6.42,10.848,6.263-21.968,12.682-21.967-12.682Zm11.39,19.415,21.967-12.682v25.365l-21.967,12.683Zm33.9-19.415,11.119-6.42,11.119,6.42,10.848,6.263-21.967,12.682-21.968-12.682Zm11.39,19.415,21.967-12.682v25.365l-21.967,12.683Zm33.9-19.415,11.119-6.42,11.119,6.42,10.848,6.263-21.967,12.682L-1526.9,976.98Zm11.39,19.415,21.967-12.682v25.365l-21.967,12.683Zm33.9-19.415,11.119-6.42,11.119,6.42,10.848,6.263-21.968,12.682-21.967-12.682Zm11.39,19.415,21.968-12.682v25.365l-21.968,12.683Zm33.9-19.415,11.119-6.42,11.119,6.42,10.848,6.263-21.967,12.682-21.968-12.682Zm11.391,19.415,21.967-12.682v25.365l-21.967,12.683Zm33.9-19.415,11.119-6.42,11.119,6.42,10.848,6.263-21.968,12.682-21.967-12.682Zm11.391,19.415,21.968-12.682v25.365l-21.968,12.683Zm33.9-19.415,11.12-6.42,11.119,6.42,10.848,6.263-21.967,12.682-21.968-12.682Zm11.391,19.415,21.967-12.682v25.365L-1323.5,1015.5Zm33.9-19.415,11.119-6.42,11.119,6.42,10.848,6.263-21.967,12.682-21.967-12.682Zm11.391,19.415,21.967-12.682v25.365l-21.967,12.683Zm33.9-19.415,11.119-6.42,11.119,6.42,10.848,6.263-21.968,12.682-21.967-12.682Zm11.39,19.415,21.967-12.682v25.365l-21.967,12.683Zm33.9-19.415,11.119-6.42,11.119,6.42,10.848,6.263-21.967,12.682-21.968-12.682Zm11.391,19.415,21.967-12.682v25.365l-21.967,12.683Zm37.529-21.51,7.49-4.324,13.33,7.7,8.637,4.987-21.968,12.682-21.967-12.682Zm7.761,21.51,21.967-12.682v25.365l-21.967,12.683Zm33.9-19.415,11.119-6.42,11.119,6.42,10.848,6.263-21.967,12.682-21.968-12.682Zm11.391,19.415,21.967-12.682v25.365l-21.967,12.683Zm33.493-20.119-10.848,6.263V950.91l21.967-12.683v25.366Zm-11.8-71.493L-1097.32,911.2l-21.968-12.683,21.968-12.683Zm-44.206.47,21.968,12.683v25.365l-21.561-12.447h0l-.407-.235Zm-23.051,13,21.832,12.6-21.832,12.6-21.832-12.6Zm-23.458,12.6h0l-21.56,12.447V911.671l21.967-12.683v25.366Zm.136-26.07-22.1,12.762-.136.078v25.678l-21.968-12.682V898.676l22.239-12.839Zm-89.5-25.992,22.238-12.855,22.238,12.839v25.225L-1233.19,884.9l-22.238,12.839Zm-.813,26.14v25.225l-22.238-12.839-22.238,12.839V898.683l22.238-12.855Zm-45.56-.149L-1323.77,911.2l-21.968-12.683,21.968-12.683Zm-45.019.157v25.679l-21.968,12.682V911.359l-22.172-12.878,21.9-12.644Zm-67.528-12.918,21.832,12.6-21.832,12.6-21.832-12.6Zm-23.323,12.762L-1459.64,911.2l-21.967-12.683,21.967-12.683Zm-90.579,0-21.968,12.683-21.968-12.683,21.968-12.683Zm-45.29,0L-1595.51,911.2l-21.968-12.683,21.968-12.683Zm-90.58,0-21.967,12.683-21.968-12.683,21.968-12.683Zm-67.257-12.762,21.831,12.6-21.831,12.6-21.832-12.6Zm-23.389,12.723-22.171,12.878v25.678l-21.968-12.682V898.676l22.239-12.839Zm-45.223.038-21.968,12.683-21.968-12.683,21.968-12.683Zm-45.019.164v25.209l-22.238-12.839-22.238,12.839V898.667l22.238-12.839Zm-89.766-26.172,22.238-12.839,22.238,12.855v25.209l-22.238-12.839-22.238,12.839Zm-.813,26.164v25.679l-21.968,12.682V911.358l-22.238-12.839,21.967-12.683Zm-44.477.313,21.967,12.683v25.365l-21.56-12.447h0l-.407-.235Zm-23.051,13,21.832,12.6-21.832,12.6-21.831-12.6Zm-23.458,12.6h0l-21.561,12.447V911.671l21.967-12.683v25.366Zm.135-26.07-21.968,12.683-21.967-12.683,21.967-12.683Zm-89.5-.782V872.511l22.238-12.839,22.238,12.855v25.209L-2093.7,884.9Zm0,1.252,21.967,12.683v25.365l-21.967-12.682Zm0,78.461,21.967,12.682V1015.5l-21.967-12.683Zm45.29,0,21.967,12.682V1015.5l-21.967-12.683Zm45.29,0,21.967,12.682V1015.5l-21.967-12.683Zm45.29,0,21.967,12.682V1015.5l-21.967-12.683Zm45.29,0,21.967,12.682V1015.5l-21.967-12.683Zm45.29,0,21.967,12.682V1015.5l-21.967-12.683Zm45.29,0,21.967,12.682V1015.5l-21.967-12.683Zm45.29,0,21.968,12.682V1015.5l-21.968-12.683Zm45.29,0,21.967,12.682V1015.5l-21.967-12.683Zm45.29,0,21.968,12.682V1015.5l-21.968-12.683Zm45.29,0,21.967,12.682V1015.5l-21.967-12.683Zm45.29,0,21.967,12.682V1015.5l-21.967-12.683Zm45.29,0,21.968,12.682V1015.5l-21.968-12.683Zm45.29,0,21.967,12.682V1015.5l-21.967-12.683Zm45.29,0,21.967,12.682V1015.5l-21.967-12.683Zm45.29,0,21.967,12.682V1015.5l-21.967-12.683Zm45.29,0,21.967,12.682V1015.5l-21.967-12.683Zm45.29,0,21.967,12.682V1015.5l-21.967-12.683Zm45.29,0,21.967,12.682V1015.5l-21.967-12.683Zm45.29,0,21.967,12.682V1015.5l-21.967-12.683Zm45.29,0,21.968,12.682V1015.5l-21.968-12.683Zm45.29,0,21.967,12.682V1015.5l-21.967-12.683Zm45.29,0,21.968,12.682V1015.5l-21.968-12.683Zm45.29,0,21.967,12.682V1015.5l-21.967-12.683Zm22.509,38.048V990.132l21.967-12.682v25.365Zm0-78.461V911.671l21.967-12.683v25.366Zm-22.509-39.3V872.527l22.238-12.855,22.238,12.839v25.225l-22.238-12.839Z" transform="translate(2532.979 5475.911)" fill="#fff" opacity="0.3"/>
    <rect id="Rectangle_63" data-name="Rectangle 63" width="1088" height="165" transform="translate(416 6281)" fill="url(#linear-gradient)"/>
  </g>
</svg>
