<svg id="Group_113" data-name="Group 113" xmlns="http://www.w3.org/2000/svg" width="17.193" height="17.193" viewBox="0 0 17.193 17.193">
  <path id="Path_469" data-name="Path 469" d="M-1763.842-827.922h0v-6.305c0-3.085-.664-5.461-4.271-5.461a3.744,3.744,0,0,0-3.372,1.853h-.051V-839.4h-3.419v11.478h3.56v-5.684c0-1.5.284-2.944,2.137-2.944,1.826,0,1.854,1.708,1.854,3.04v5.589Zm0,0" transform="translate(1781.03 845.115)" fill="#f93737"/>
  <rect id="Rectangle_16" data-name="Rectangle 16" width="3.565" height="11.478" transform="translate(0.284 5.715)" fill="#f93737"/>
  <path id="Path_470" data-name="Path 470" d="M-1790.036-854.992a2.065,2.065,0,0,0-2.065,2.065,2.082,2.082,0,0,0,2.065,2.084,2.082,2.082,0,0,0,2.065-2.084,2.067,2.067,0,0,0-2.065-2.065Zm0,0" transform="translate(1792.101 854.992)" fill="#f93737"/>
</svg>
