<svg xmlns="http://www.w3.org/2000/svg" xmlns:xlink="http://www.w3.org/1999/xlink" width="109.243" height="109.243" viewBox="0 0 109.243 109.243">
  <defs>
    <filter id="Path_584" x="0" y="0" width="109.243" height="109.243" filterUnits="userSpaceOnUse">
      <feOffset dy="3" input="SourceAlpha"/>
      <feGaussianBlur stdDeviation="7.5" result="blur"/>
      <feFlood flood-color="#191e37" flood-opacity="0.2"/>
      <feComposite operator="in" in2="blur"/>
      <feComposite in="SourceGraphic"/>
    </filter>
  </defs>
  <g id="Group_150" data-name="Group 150" transform="translate(22.5 19.5)">
    <g transform="matrix(1, 0, 0, 1, -22.5, -19.5)" filter="url(#Path_584)">
      <path id="Path_584-2" data-name="Path 584" d="M0,0H64.243V64.243H0Z" transform="translate(22.5 19.5)" fill="#fbfbfb"/>
    </g>
    <g id="Group_140" data-name="Group 140" transform="translate(16.345 15.794)">
      <g id="Group_137" data-name="Group 137" transform="translate(9.596)">
        <path id="Path_585" data-name="Path 585" d="M161.2,126.152H159.67l-10.558-15.662v-1.033L159.67,93.8H161.2l10.559,15.662v1.033Zm-10.21-16.178,9.445,14.009,9.444-14.009-9.444-14.009Z" transform="translate(-149.112 -93.796)"/>
      </g>
      <g id="Group_138" data-name="Group 138" transform="translate(0)">
        <path id="Path_586" data-name="Path 586" d="M105.566,126.152h-1.532L93.475,110.491v-1.033L104.033,93.8h1.532l10.559,15.662v1.033Zm-10.21-16.178,9.444,14.009,9.444-14.009L104.8,95.965Z" transform="translate(-93.475 -93.796)"/>
      </g>
      <g id="Group_139" data-name="Group 139" transform="translate(4.798)">
        <path id="Path_587" data-name="Path 587" d="M133.384,126.152h-1.532l-10.559-15.662v-1.033L131.852,93.8h1.532l10.558,15.662v1.033Zm-10.21-16.178,9.444,14.009,9.444-14.009-9.444-14.009Z" transform="translate(-121.293 -93.796)"/>
      </g>
    </g>
  </g>
</svg>
