<svg xmlns="http://www.w3.org/2000/svg" xmlns:xlink="http://www.w3.org/1999/xlink" width="109" height="109" viewBox="0 0 109 109">
  <defs>
    <filter id="Rectangle_52" x="0" y="0" width="109" height="109" filterUnits="userSpaceOnUse">
      <feOffset dy="3" input="SourceAlpha"/>
      <feGaussianBlur stdDeviation="7.5" result="blur"/>
      <feFlood flood-color="#191e37" flood-opacity="0.2"/>
      <feComposite operator="in" in2="blur"/>
      <feComposite in="SourceGraphic"/>
    </filter>
  </defs>
  <g id="Group_149" data-name="Group 149" transform="translate(22.5 19.5)">
    <g transform="matrix(1, 0, 0, 1, -22.5, -19.5)" filter="url(#Rectangle_52)">
      <rect id="Rectangle_52-2" data-name="Rectangle 52" width="64" height="64" transform="translate(22.5 19.5)" fill="#25ae60"/>
    </g>
    <g id="Group_136" data-name="Group 136" transform="translate(15.326 20.033)">
      <g id="Group_135" data-name="Group 135" transform="translate(1.173)">
        <path id="Path_580" data-name="Path 580" d="M570.22,451.384l-.011.006a12.844,12.844,0,0,0-4.59,4.244h-6.967V459.2h5.267a14.574,14.574,0,0,0-.305,3.007c0,.4.017.8.045,1.184h-5.007v3.486l-.011.006a23.639,23.639,0,0,0-4.319,3.711V451.384Z" transform="translate(-554.322 -450.808)" fill="#fff"/>
        <path id="Path_581" data-name="Path 581" d="M578.962,452.2a12.984,12.984,0,0,0-5.46-1.2,12.515,12.515,0,0,0-6.222,1.618,11.535,11.535,0,0,0-4.438,4.283,11.889,11.889,0,0,0-1.551,6.09c0,.295.009.585.025.871a41.389,41.389,0,0,1,4.354-1.441,7.443,7.443,0,0,1,2.23-4.956,7.519,7.519,0,0,1,5.532-2.246,9.444,9.444,0,0,1,7,3.289l3.05-2.907A13.047,13.047,0,0,0,578.962,452.2Z" transform="translate(-550.81 -451.001)" fill="#fff"/>
      </g>
      <path id="Path_582" data-name="Path 582" d="M583.075,465.7a16.27,16.27,0,0,1-4.8,3.437,13.077,13.077,0,0,1-5.154.957,11.87,11.87,0,0,1-8.746-3.386,11.329,11.329,0,0,1-1.928-2.54,10.388,10.388,0,0,1-.526-1.087,27.2,27.2,0,0,1,3.856-2.224,7.189,7.189,0,0,0,.474,1.1c.026.048.051.1.078.146a7.159,7.159,0,0,0,2.815,2.792,8.19,8.19,0,0,0,4.047,1.012,8.3,8.3,0,0,0,3.47-.71,12.4,12.4,0,0,0,3.455-2.578Z" transform="translate(-549.318 -446.033)" fill="#fff"/>
      <path id="Path_583" data-name="Path 583" d="M586.116,458.074A50.579,50.579,0,0,0,570,462.26a27.189,27.189,0,0,0-3.856,2.224,16.739,16.739,0,0,0-5.715,6.439h-6.888a10.22,10.22,0,0,1,1.173-1.842,20.671,20.671,0,0,1,4.33-4.122,30.04,30.04,0,0,1,6.3-3.435,38.973,38.973,0,0,1,4.238-1.447A60.263,60.263,0,0,1,586.116,458.074Z" transform="translate(-553.542 -447.436)" fill="#fff"/>
    </g>
  </g>
</svg>
