<svg xmlns="http://www.w3.org/2000/svg" xmlns:xlink="http://www.w3.org/1999/xlink" width="109" height="109" viewBox="0 0 109 109">
  <defs>
    <filter id="Rectangle_39" x="0" y="0" width="109" height="109" filterUnits="userSpaceOnUse">
      <feOffset dy="3" input="SourceAlpha"/>
      <feGaussianBlur stdDeviation="7.5" result="blur"/>
      <feFlood flood-color="#191e37" flood-opacity="0.2"/>
      <feComposite operator="in" in2="blur"/>
      <feComposite in="SourceGraphic"/>
    </filter>
  </defs>
  <g id="Group_152" data-name="Group 152" transform="translate(22.5 19.5)">
    <g id="Group_151" data-name="Group 151" transform="translate(0 0)">
      <g transform="matrix(1, 0, 0, 1, -22.5, -19.5)" filter="url(#Rectangle_39)">
        <rect id="Rectangle_39-2" data-name="Rectangle 39" width="64" height="64" transform="translate(22.5 19.5)" fill="#4b0d07"/>
      </g>
    </g>
    <g id="Group_134" data-name="Group 134" transform="translate(16.289 16.288)">
      <rect id="Rectangle_40" data-name="Rectangle 40" width="6.289" height="6.289" transform="translate(6.289)" fill="#df3629"/>
      <rect id="Rectangle_41" data-name="Rectangle 41" width="6.289" height="6.289" transform="translate(18.866)" fill="#df3629"/>
      <rect id="Rectangle_42" data-name="Rectangle 42" width="6.289" height="6.289" transform="translate(25.155 6.289)" fill="#df3629"/>
      <rect id="Rectangle_43" data-name="Rectangle 43" width="6.289" height="6.289" transform="translate(25.155)" fill="#c5110c"/>
      <rect id="Rectangle_44" data-name="Rectangle 44" width="6.289" height="6.289" transform="translate(25.155 18.862)" fill="#df3629"/>
      <rect id="Rectangle_45" data-name="Rectangle 45" width="6.289" height="6.289" transform="translate(18.866 25.151)" fill="#df3629"/>
      <rect id="Rectangle_46" data-name="Rectangle 46" width="6.289" height="6.289" transform="translate(25.155 25.151)" fill="#c5110c"/>
      <rect id="Rectangle_47" data-name="Rectangle 47" width="6.289" height="6.289" transform="translate(0 6.289)" fill="#df3629"/>
      <rect id="Rectangle_48" data-name="Rectangle 48" width="6.289" height="6.289" transform="translate(0)" fill="#c5110c"/>
      <rect id="Rectangle_49" data-name="Rectangle 49" width="6.289" height="6.289" transform="translate(0 18.862)" fill="#df3629"/>
      <rect id="Rectangle_50" data-name="Rectangle 50" width="6.289" height="6.289" transform="translate(6.289 25.151)" fill="#df3629"/>
      <rect id="Rectangle_51" data-name="Rectangle 51" width="6.289" height="6.289" transform="translate(0 25.151)" fill="#c5110c"/>
    </g>
  </g>
</svg>
