<svg xmlns="http://www.w3.org/2000/svg" xmlns:xlink="http://www.w3.org/1999/xlink" width="1920" height="389" viewBox="0 0 1920 389">
  <defs>
    <clipPath id="clip-path">
      <rect id="Rectangle_110" data-name="Rectangle 110" width="1920" height="389" transform="translate(-2075.063 3643.935)" fill="none"/>
    </clipPath>
    <linearGradient id="linear-gradient" x1="0.5" x2="0.5" y2="1" gradientUnits="objectBoundingBox">
      <stop offset="0" stop-color="#191e37"/>
      <stop offset="0.653" stop-color="#191e37" stop-opacity="0.929"/>
      <stop offset="1" stop-color="#191e37" stop-opacity="0.741"/>
    </linearGradient>
  </defs>
  <g id="Group_1320" data-name="Group 1320" transform="translate(0 -393)">
    <g id="Group_1168" data-name="Group 1168" transform="translate(2075.063 -3250.935)">
      <g id="Group_1167" data-name="Group 1167" clip-path="url(#clip-path)">
        <path id="Path_1597" data-name="Path 1597" d="M-153.036,3767.233l-42.515,24.576v47.361l-41.015-23.681-42.516,24.547v47.36l-41.015-23.681-41.015,23.681v-47.36l-42.515-24.547-41.016,23.681v-47.39l-42.515-24.547-42.515,24.576v47.346l-41.015-23.681-41.753,24.136-41.777-24.121-41.765,24.114-41.766-24.114-41.638,24.04-41.892-24.187-41.893,24.187-41.638-24.04-42.515,24.547v48.255l-41.015,23.681-41.015-23.681v-48.255l-42.515-24.547-41.766,24.114-41.765-24.114-42.515,24.547v48.255l-41.015,23.681-41.015-23.681v-48.255l-42.515-24.547-41.638,24.04-41.893-24.187-41.892,24.187-41.638-24.04-41.766,24.114-41.765-24.114-41.777,24.121-41.753-24.136-41.015,23.681v-47.346l-42.515-24.576-42.515,24.547v47.39l-41.016-23.681-42.515,24.547v47.36l-41.015-23.681-41.015,23.681v-47.36l-42.516-24.547-41.015,23.681v-47.361l-42.515-24.576-42.515,24.547v97.348l41.765,24.112v47.391l-41.765,24.114v49.091l42.515,24.546,41.765-24.113,41.765,24.113,41.766-24.113,41.765,24.113,41.765-24.113,41.765,24.113,41.766-24.113,41.765,24.113,41.765-24.113,41.765,24.113,41.765-24.113,41.765,24.113,41.765-24.113,41.766,24.113,41.765-24.113,41.765,24.113,41.765-24.113,41.766,24.113,41.765-24.113,41.765,24.113,41.765-24.113,41.765,24.113,41.765-24.113,41.766,24.113,41.765-24.113,41.765,24.113,41.765-24.113,41.765,24.113,41.766-24.113,41.765,24.113,41.765-24.113,41.765,24.113,41.766-24.113,41.765,24.113,41.765-24.113,41.765,24.113,41.765-24.113,41.765,24.113,41.765-24.113,41.766,24.113,41.765-24.113,41.765,24.113,41.765-24.113,41.766,24.113,41.765-24.113,41.765,24.113,42.515-24.546v-49.091l-41.765-24.114V3913.24l41.765-24.112V3791.78Zm40.515,73.38L-153.036,3864l-40.516-23.392,40.516-23.392Zm-40.515,121.317,40.516,23.392-40.516,23.391-40.515-23.391,20.007-11.552Zm-250.591,47.36.25-.433-40.766-23.535,20.008-11.552,20.508-11.84,20.507,11.84,20.508,11.84v47.36l-40.515,23.391V4009.29Zm-1001.865.288,40.515-23.391v46.783l-40.515,23.391Zm-668.743-192.357,40.516,23.392L-2074.235,3864l-40.515-23.392Zm877.819,24.257,41.015,23.681,41.015-23.681v46.784l-41.015,23.679-41.015-23.679Zm250.591,0,40.515,23.392v46.782l-40.515-23.39Zm-167.811,94.9-40.516-23.392,40.516-23.392,40.517,23.392Zm-41.015,24.257v-46.783l40.515,23.391v46.784l-20.007-11.552Zm41.515,23.392v-46.784l40.516-23.391v46.783l-20.508,11.84Zm42.016-23.392v-46.783l40.515,23.391v46.784l-20.008-11.552Zm41.515,23.392v-46.784l40.515-23.391v46.783l-20.507,11.84Zm42.015-23.392v-46.783l40.515,23.391v46.784l-20.007-11.552Zm41.515,23.392v-46.784l40.515-23.391v46.783l-20.507,11.84Zm333.622-47.649-40.516-23.392,40.516-23.392,40.516,23.392Zm-83.53,0-40.517-23.392,40.517-23.392,40.515,23.392Zm-83.531-46.784L-739,3912.982l-40.516,23.392-40.516-23.392Zm-83.53,46.784-40.516-23.392,40.516-23.392,40.515,23.392Zm-41.016,24.257v-46.783l40.516,23.391v46.784l-20.008-11.552Zm41.516,23.392v-46.784l40.515-23.391v46.783l-20.508,11.84Zm42.015-23.392v-46.783l40.515,23.391v46.784l-20.008-11.552Zm41.515,23.392v-46.784l40.515-23.391v46.783l-20.508,11.84ZM-737,3960.631v-46.783l40.516,23.391v46.784l-20.008-11.552Zm41.516,23.392v-46.784l40.515-23.391v46.783l-20.508,11.84Zm42.015-23.392v-46.783l40.515,23.391v46.784l-20.008-11.552Zm41.515,23.392v-46.784l40.515-23.391v46.783l-20.508,11.84Zm42.015-23.392V3913.27l41.015-23.68,40.516,23.392-40.766,23.536.25.433h-.5v47.072l-20.007-11.552Zm41.765-119.153,40.515,23.392v46.782l-40.515-23.39Zm166.311,94.9-40.516-23.392,40.516-23.392,40.516,23.392Zm-83.531,0-40.515-23.392,40.515-23.392,40.516,23.392Zm-41.265-24.722V3864.87l40.515-23.392v46.784Zm-41.765,72.371v-46.784l40.515-23.391v46.783l-20.507,11.84Zm42.015-23.392v-46.783l40.515,23.391v46.784l-20.007-11.552Zm41.515,23.392v-46.784l40.516-23.391v46.783l-20.508,11.84Zm42.016-23.392v-46.783l40.515,23.391v46.784l-20.008-11.552Zm41.515,23.392v-46.784l40.515-23.391v46.783l-24.586,14.195Zm42.015-23.392V3913.27l41.015-23.68,40.516,23.392-40.766,23.536.25.433h-.5v47.072l-26.7-15.416Zm41.515,23.392v-46.784l40.516-23.391v46.783l-20.508,11.84Zm42.016-23.392v-46.783l40.515,23.391v46.784l-20.008-11.552Zm41.015-24.257-40.516-23.392,40.516-23.392,40.516,23.392Zm.75-94.9,40.515,23.392v46.782l-40.515-23.39Zm-1.5.289v46.495l-40.515,23.39V3864.87l40.515-23.392Zm-251.091-1.154L-487.158,3864l-40.515-23.392,40.515-23.392Zm-124.046,71.359-40.278-23.255,40.278-23.254,40.278,23.254Zm-42.515-23.71-40.515,23.39V3864.87l40.515-23.392Zm-41.515,23.39-40.515-23.39v-46.784l40.515,23.392Zm-83.531,0-40.515-23.39v-46.926l40.515,23.534Zm-42.015-23.361-41.015,23.681-41.015-23.681v-46.67l41.015,23.679,41.015-23.679Zm-83.53-.029-40.516,23.39V3864.87l40.516-23.392Zm-42.265,24.72-40.516,23.392-40.516-23.392,40.516-23.392Zm-124.046,23.392-40.516-23.392,40.516-23.392,40.516,23.392Zm-41.765-24.433-41.016-23.679v-46.784l41.016,23.681,41.015-23.681v46.784Zm-84.281,1.329v47.361l-20.507,11.84-20.008,11.552v-47.072h-.5l.25-.433-40.766-23.536,40.516-23.392Zm-877.069-71.792v46.784l-40.515,23.39V3864.87Zm84.281,94.9-40.516-23.392,40.516-23.392,40.515,23.392Zm-83.531-46.784,40.516,23.392-40.516,23.392-40.516-23.392Zm.5,94.433v-46.784l40.515-23.391v46.783l-20.507,11.84Zm42.015-23.392v-46.783l40.516,23.391v46.784l-20.008-11.552Zm41.516,23.392v-46.784l40.515-23.391v46.783l-13.814,7.976Zm42.015-23.392v-46.783l40.515,23.391v46.784l-15.929-9.2Zm41.515,23.392v-47.072h-.5l.25-.433-40.766-23.536,40.516-23.392,41.015,23.68v47.361l-20.507,11.84Zm83.781-142.545,40.515,23.392v46.782l-40.515-23.39Zm41.515,70.174V3864.87l40.515-23.392v46.784Zm-83.281,48.979v-46.783l40.516,23.391v46.784l-20.008-11.552Zm41.016-24.257-40.516-23.392,40.516-23.392,40.515,23.392Zm83.53-46.784,40.516,23.392-40.516,23.392-40.516-23.392Zm167.06,46.784-40.515-23.392,40.515-23.392,40.516,23.392Zm-43.014-23.392-40.516,23.392-40.516-23.392,40.516-23.392Zm-123.546,71.041v-46.784l40.515-23.391v46.783l-20.508,11.84Zm42.015-23.392v-46.783l40.515,23.391v46.784l-20.007-11.552Zm41.515,23.392v-46.784l40.515-23.391v46.783l-20.507,11.84Zm42.015-23.392v-46.783l40.515,23.391v46.784l-20.007-11.552Zm41.515,23.392v-46.784l40.516-23.391v46.783l-13.814,7.976Zm42.016-23.392v-46.783l40.515,23.391v46.784l-20.007-11.552Zm41.015-24.257-40.516-23.392,40.516-23.392,40.516,23.392Zm83.53-46.784,40.516,23.392-40.516,23.392-40.515-23.392Zm.5,94.433v-46.784l40.516-23.391v46.783l-20.508,11.84Zm42.016-23.392v-46.783l40.515,23.391v46.784l-20.008-11.552Zm41.515,23.392v-46.784l40.515-23.391v46.783l-20.508,11.84Zm42.015-23.392v-46.783l40.515,23.391v46.784l-20.008-11.552Zm-42.515-24.257-40.516-23.392,40.516-23.392,40.516,23.392Zm-41.265-24.722V3864.87l40.515-23.392v46.784Zm-1,0-40.516-23.39v-46.784l40.516,23.392Zm-42.016-23.361-41.015,23.681-41.015-23.681v-46.67l41.015,23.679,41.015-23.679Zm-83.53-.029-40.515,23.39V3864.87l40.515-23.534Zm-83.531,0-40.515,23.39V3864.87l40.515-23.392Zm-41.515,23.39-40.515-23.39v-46.784l40.515,23.392Zm-83.03.32-40.278-23.255,40.278-23.254,40.278,23.254Zm-43.015-71.359L-1740.113,3864l-40.516-23.392,40.516-23.392Zm-291.607,71.039-40.515-23.39v-46.784l40.515,23.392Zm-41.765,25.587v46.784l-20.007-11.552-20.508-11.84v-46.783Zm-20.757,36.531,20.008,11.552-40.516,23.391-40.516-23.391,40.516-23.392Zm-20.008,35.808,40.515-23.391v46.783l-40.515,23.391Zm62.523-35.808,20.507-11.84,20.508,11.84,20.008,11.552-40.516,23.391-40.515-23.391Zm79.452,2.355,24.586-14.2,13.814,7.975,26.7,15.417-40.516,23.391-40.516-23.391Zm25.086,33.453,40.515-23.391v46.783l-40.515,23.391Zm62.523-35.808,20.507-11.84,20.508,11.84,20.008,11.552-40.516,23.391-40.515-23.391Zm21.007,35.808,40.516-23.391v46.783l-40.516,23.391Zm41.766-25.555v-46.784l40.515-23.391v46.783l-20.508,11.84Zm42.015-23.392v-46.783l40.515,23.391v46.784l-20.008-11.552Zm62.272,13.139,20.508-11.84,20.508,11.84,20.007,11.552-40.515,23.391-40.515-23.391Zm21.008,35.808,40.515-23.391v46.783l-40.515,23.391Zm62.523-35.808,20.507-11.84,20.508,11.84,20.008,11.552-40.516,23.391-40.515-23.391Zm21.007,35.808,40.515-23.391v46.783l-40.515,23.391Zm58.445-33.453,24.586-14.2,20.508,11.84,20.007,11.552-40.515,23.391-40.516-23.391Zm25.086,33.453,40.515-23.391v46.783l-40.515,23.391Zm41.765-25.555v-46.784l40.515-23.391v46.783l-20.507,11.84Zm42.015-23.392v-46.783l40.515,23.391v46.784l-20.007-11.552Zm62.273,13.139,20.508-11.84,20.507,11.84,20.008,11.552-40.515,23.391-40.516-23.391Zm21.008,35.808,40.515-23.391v46.783l-40.515,23.391Zm62.522-35.808,20.508-11.84,20.507,11.84,20.008,11.552-40.515,23.391-40.516-23.391Zm21.008,35.808,40.515-23.391v46.783l-40.515,23.391Zm62.523-35.808,20.507-11.84,20.508,11.84,20.008,11.552-40.516,23.391-40.515-23.391Zm83.53,0,20.508-11.84,20.507,11.84,20.008,11.552-40.515,23.391-40.516-23.391Zm21.008,35.808,40.515-23.391v46.783l-40.515,23.391Zm62.523-35.808,20.507-11.84,20.508,11.84,20.007,11.552-40.515,23.391-40.515-23.391Zm21.007,35.808,40.515-23.391v46.783l-40.515,23.391Zm62.523-35.808,20.507-11.84,20.508,11.84,20.008,11.552-40.516,23.391-40.515-23.391Zm21.007,35.808,40.516-23.391v46.783l-40.516,23.391Zm62.523-35.808,20.508-11.84,20.507,11.84,20.008,11.552-40.515,23.391-40.516-23.391Zm21.008,35.808,40.515-23.391v46.783l-40.515,23.391Zm62.522-35.808,20.508-11.84,20.508,11.84,20.008,11.552-40.516,23.391-40.515-23.391Zm21.008,35.808,40.516-23.391v46.783l-40.516,23.391Zm62.523-35.808,20.508-11.84,20.507,11.84,20.008,11.552-40.515,23.391-40.516-23.391Zm83.53,0,20.508-11.84,20.508,11.84,20.007,11.552-40.515,23.391-40.515-23.391Zm21.008,35.808,40.515-23.391v46.783l-40.515,23.391Zm62.523-35.808,20.507-11.84,20.508,11.84,20.008,11.552-40.516,23.391-40.515-23.391Zm21.007,35.808,40.515-23.391v46.783l-40.515,23.391Zm152.747-39.673,13.814-7.975,24.586,14.2,15.93,9.2-40.516,23.391-40.515-23.391Zm14.314,39.673,40.515-23.391v46.783l-40.515,23.391Zm62.523-35.808,20.508-11.84,20.507,11.84,20.008,11.552-40.515,23.391-40.516-23.391Zm82.78-1.3-20.007,11.552v-46.784l40.515-23.391v46.783Zm-21.757-131.858L-236.566,3864l-40.516-23.392,40.516-23.392Zm-81.531.865,40.516,23.392v46.782l-39.766-22.957h0l-.75-.433Zm-42.515,23.97,40.265,23.247-40.265,23.246-40.265-23.246Zm-43.265,23.247h0l-39.765,22.957v-46.781l40.515-23.393v46.784Zm.25-48.082-40.765,23.536-.25.144v47.359l-40.516-23.39V3840.9l41.016-23.68Zm-165.061-47.939,41.015-23.709,41.015,23.68v46.525l-41.015-23.681-41.015,23.681Zm-1.5,48.212v46.525l-41.015-23.681-41.015,23.681v-46.495l41.015-23.709Zm-84.029-.273L-654.218,3864l-40.516-23.392,40.516-23.392Zm-83.031.288v47.361l-40.516,23.39v-47.358l-40.892-23.753,40.392-23.32Zm-124.546-23.826,40.265,23.247-40.265,23.246-40.265-23.246Zm-43.015,23.538L-904.81,3864l-40.515-23.392,40.515-23.392Zm-167.06,0L-1071.87,3864l-40.516-23.392,40.516-23.392Zm-83.531,0L-1155.4,3864l-40.516-23.392,40.516-23.392Zm-167.061,0L-1322.461,3864l-40.516-23.392,40.516-23.392Zm-124.046-23.538,40.265,23.247-40.265,23.246-40.265-23.246Zm-43.138,23.466-40.892,23.753v47.358l-40.516-23.39V3840.9l41.016-23.68Zm-83.407.072L-1573.053,3864l-40.516-23.392,40.516-23.392Zm-83.031.3v46.495l-41.015-23.681-41.015,23.681v-46.525l41.015-23.679Zm-165.56-48.271,41.015-23.68,41.015,23.709v46.5l-41.015-23.681-41.015,23.681Zm-1.5,48.256v47.361l-40.516,23.39v-47.359l-41.015-23.68,40.515-23.392Zm-82.031.577,40.515,23.393v46.781l-39.765-22.957h0l-.75-.433Zm-42.515,23.97,40.265,23.247-40.265,23.246-40.265-23.246Zm-43.265,23.247h0l-39.766,22.957V3864.87l40.516-23.392v46.784Zm.25-48.082L-1990.7,3864l-40.515-23.392,40.515-23.392Zm-165.061-1.443v-46.525l41.015-23.68,41.015,23.709v46.5l-41.015-23.681Zm0,2.308,40.515,23.392v46.782l-40.515-23.39Zm0,144.709,40.515,23.391v46.783l-40.515-23.391Zm83.53,46.783v-46.783l41.015,23.68,41.016-23.68v46.783l-41.016,23.68Zm83.531-46.783,40.515,23.391v46.783l-40.515-23.391Zm83.53,0,40.515,23.391v46.783l-40.515-23.391Zm83.531-.577,20.507-11.84,20.508-11.84,20.507,11.84,20.008,11.552-40.765,23.535-.25.144v47.36l-40.515-23.391Zm82.03.577v46.783l-40.515,23.391v-46.782Zm1.5,0,40.515,23.391v46.783l-40.515-23.391Zm83.53,0,40.515,23.391v46.783l-40.515-23.391Zm83.53,0,40.516,23.391v46.783l-40.516-23.391Zm83.531-.577,20.508-11.84,20.507-11.84,20.508,11.84,20.008,11.552-40.766,23.535.25.433h-.5v47.071l-40.515-23.391Zm83.53.577,40.516,23.391v46.783l-40.516-23.391Zm83.531,0,40.515,23.391v46.783l-40.515-23.391Zm83.53,46.783v-46.783l41.015,23.68,41.015-23.68v46.783l-41.015,23.68Zm83.53-46.783,40.516,23.391v46.783l-40.516-23.391Zm83.531,0,40.515,23.391v46.783l-40.515-23.391Zm83.53,0,40.515,23.391v46.783l-40.515-23.391Zm83.531,0,40.515,23.391v46.783l-40.515-23.391Zm83.53,0,40.515,23.391v46.783l-40.515-23.391Zm83.531,46.783v-46.783l41.015,23.68,41.015-23.68v46.783l-41.015,23.68Zm83.53-46.783,40.515,23.391v46.783L-611.7,4032.97Zm83.53,0,40.515,23.391v46.783l-40.515-23.391Zm83.53,0,40.516,23.391v46.783l-40.516-23.391Zm83.531,0,40.515,23.391v46.783l-40.515-23.391Zm83.53,46.783v-46.783l41.016,23.68,41.015-23.68v46.783l-41.015,23.68Zm83.531-46.783,40.515,23.391v46.783l-40.515-23.391Zm41.515,70.174v-46.783l40.515-23.391v46.783Zm0-144.709V3864.87l40.515-23.392v46.784Zm-41.515-72.482v-46.5l41.015-23.709,41.015,23.68v46.525l-41.015-23.681Z" fill="#8b8faa"/>
      </g>
    </g>
    <rect id="Rectangle_31" data-name="Rectangle 31" width="1920" height="369" transform="translate(0 413)" fill="url(#linear-gradient)"/>
  </g>
</svg>
