<svg xmlns="http://www.w3.org/2000/svg" width="11.427" height="19.45" viewBox="0 0 11.427 19.45">
  <path id="Path_566" data-name="Path 566" d="M-321.621,793.188a1.054,1.054,0,0,0-.752-.31,1.056,1.056,0,0,0-.753.31l-.637.637a1.065,1.065,0,0,0,0,1.5l7.269,7.268-7.277,7.277a1.056,1.056,0,0,0-.311.752,1.058,1.058,0,0,0,.311.753l.638.637a1.056,1.056,0,0,0,.752.31,1.057,1.057,0,0,0,.753-.31l8.664-8.664a1.059,1.059,0,0,0,.31-.754,1.059,1.059,0,0,0-.31-.756Z" transform="translate(324.082 -792.877)" fill="#f93737"/>
</svg>
