<svg xmlns="http://www.w3.org/2000/svg" xmlns:xlink="http://www.w3.org/1999/xlink" width="109" height="109" viewBox="0 0 109 109">
  <defs>
    <filter id="Rectangle_55" x="0" y="0" width="109" height="109" filterUnits="userSpaceOnUse">
      <feOffset dy="3" input="SourceAlpha"/>
      <feGaussianBlur stdDeviation="7.5" result="blur"/>
      <feFlood flood-color="#191e37" flood-opacity="0.2"/>
      <feComposite operator="in" in2="blur"/>
      <feComposite in="SourceGraphic"/>
    </filter>
  </defs>
  <g id="Group_1321" data-name="Group 1321" transform="translate(-1446.5 -3249.5)">
    <g id="Group_1137" data-name="Group 1137" transform="translate(1468.871 3269)">
      <g transform="matrix(1, 0, 0, 1, -22.37, -19.5)" filter="url(#Rectangle_55)">
        <rect id="Rectangle_55-2" data-name="Rectangle 55" width="64" height="64" transform="translate(22.5 19.5)" fill="#61acd8"/>
      </g>
    </g>
    <g id="Group_1138" data-name="Group 1138" transform="translate(1485.632 3285.762)">
      <path id="Path_588" data-name="Path 588" d="M153.5,142a1.977,1.977,0,0,0-2.8,0h0a1.977,1.977,0,0,0,0,2.8L161.209,155.3a1.977,1.977,0,1,0,2.8-2.8Z" transform="translate(-141.927 -133.223)" fill="#fff"/>
      <path id="Path_589" data-name="Path 589" d="M216.062,114.33a1.977,1.977,0,0,0,2.8-2.8l-4.428-4.428a1.977,1.977,0,0,0-2.8,2.8Z" transform="translate(-188.636 -106.474)" fill="#fff"/>
      <path id="Path_590" data-name="Path 590" d="M118.606,202.931a1.977,1.977,0,0,0-2.8,2.8l4.428,4.428a1.977,1.977,0,0,0,2.8-2.8Z" transform="translate(-115.177 -179.932)" fill="#fff"/>
      <path id="Path_591" data-name="Path 591" d="M221.964,210.464l-3.617-3.617a1.977,1.977,0,0,0-2.8,2.8l3.617,3.617a1.977,1.977,0,0,0,2.8-2.8Z" transform="translate(-191.639 -182.935)" fill="#fff"/>
      <path id="Path_592" data-name="Path 592" d="M119.147,113.238a1.977,1.977,0,0,0,2.8-2.8l-3.568-3.568a1.977,1.977,0,0,0-2.8,2.8Z" transform="translate(-115 -106.296)" fill="#fff"/>
      <path id="Path_593" data-name="Path 593" d="M118.688,155.1a1.977,1.977,0,1,0-2.8,2.8l5.078,5.078a1.977,1.977,0,1,0,2.8-2.8Z" transform="translate(-115.241 -143.266)" fill="#fff"/>
      <path id="Path_594" data-name="Path 594" d="M168.882,115.063a1.977,1.977,0,0,0,2.8-2.8l-5.078-5.078a1.977,1.977,0,0,0-2.8,2.8Z" transform="translate(-151.97 -106.537)" fill="#fff"/>
      <path id="Path_595" data-name="Path 595" d="M163.651,200.064a1.976,1.976,0,0,0-2.8,0h0a1.977,1.977,0,0,0,0,2.8l5.078,5.078a1.977,1.977,0,0,0,2.8,0h0a1.977,1.977,0,0,0,0-2.8Z" transform="translate(-149.709 -177.735)" fill="#fff"/>
      <path id="Path_596" data-name="Path 596" d="M213.846,160.026a1.977,1.977,0,0,0,2.8,0h0a1.977,1.977,0,0,0,0-2.8l-5.078-5.078a1.976,1.976,0,0,0-2.8,0h0a1.977,1.977,0,0,0,0,2.8Z" transform="translate(-186.439 -141.005)" fill="#fff"/>
    </g>
  </g>
</svg>
