<svg xmlns="http://www.w3.org/2000/svg" xmlns:xlink="http://www.w3.org/1999/xlink" width="109" height="109" viewBox="0 0 109 109">
  <defs>
    <filter id="Rectangle_39" x="0" y="0" width="109" height="109" filterUnits="userSpaceOnUse">
      <feOffset dy="3" input="SourceAlpha"/>
      <feGaussianBlur stdDeviation="7.5" result="blur"/>
      <feFlood flood-color="#191e37" flood-opacity="0.2"/>
      <feComposite operator="in" in2="blur"/>
      <feComposite in="SourceGraphic"/>
    </filter>
    <linearGradient id="linear-gradient" x1="0.5" x2="0.5" y2="1" gradientUnits="objectBoundingBox">
      <stop offset="0.119" stop-color="#fff" stop-opacity="0.302"/>
      <stop offset="1" stop-color="#999"/>
    </linearGradient>
    <linearGradient id="linear-gradient-2" x1="0.5" y1="1" x2="0.5" y2="0" xlink:href="#linear-gradient"/>
  </defs>
  <g id="Group_1322" data-name="Group 1322" transform="translate(-364.5 -4181.5)">
    <g id="Group_151" data-name="Group 151" transform="translate(387 4201)">
      <g transform="matrix(1, 0, 0, 1, -22.5, -19.5)" filter="url(#Rectangle_39)">
        <rect id="Rectangle_39-2" data-name="Rectangle 39" width="64" height="64" transform="translate(22.5 19.5)" fill="#00555c"/>
      </g>
    </g>
    <g id="Group_1151" data-name="Group 1151" transform="translate(-215.622 4112.256)">
      <g id="Group_1150" data-name="Group 1150" transform="translate(620.205 106.705)">
        <path id="Path_1591" data-name="Path 1591" d="M623.244,133.656l5.9,3.409,5.9-3.409V125.9l-11.809-7.613Z" transform="translate(-621.563 -111.883)" fill="none"/>
        <path id="Path_1592" data-name="Path 1592" d="M647.638,113.623v7.754l11.809,7.613V113.623l-5.9-3.409Z" transform="translate(-632.467 -108.274)" fill="none"/>
        <path id="Path_1593" data-name="Path 1593" d="M641.281,106.705l-7.586,4.379v7.641l-.2-.128,2.787,1.8-2.787-1.8-13.292-8.57v19.421l7.585,4.38,7.586-4.38v-7.64l13.49,8.7V111.084Zm-7.586,21.774-5.9,3.409-5.9-3.409V113.111l11.809,7.613Zm13.49-1.057-11.809-7.613v-7.753l5.9-3.409,5.9,3.409Z" transform="translate(-620.205 -106.705)" fill="#fff"/>
      </g>
      <path id="Path_1594" data-name="Path 1594" d="M644.6,118.174l1.681,1.084v5.677l-1.681-1.084Z" transform="translate(-10.903 -5.126)" fill="url(#linear-gradient)"/>
      <path id="Path_1595" data-name="Path 1595" d="M646.279,138.817l-1.681-1.084v-5.677l1.681,1.084Z" transform="translate(-10.903 -11.331)" fill="url(#linear-gradient-2)"/>
    </g>
  </g>
</svg>
